<?xml version="1.0" encoding="UTF-8"?>
<svg width="59px" height="59px" viewBox="0 0 59 59" version="1.1" xmlns="http://www.w3.org/2000/svg" xmlns:xlink="http://www.w3.org/1999/xlink">
    <!-- Generator: Sketch 55.2 (78181) - https://sketchapp.com -->
    <title>latch-icon-2</title>
    <desc>Created with Sketch.</desc>
    <defs>
        <polygon id="path-1" points="0 0.238054054 57.7647778 0.238054054 57.7647778 58.3783784 0 58.3783784"></polygon>
    </defs>
    <g id="Page-1" stroke="none" stroke-width="1" fill="none" fill-rule="evenodd">
        <g id="Populife---Latch" transform="translate(-602.000000, -951.000000)">
            <g id="Product-Features" transform="translate(0.000000, 750.000000)">
                <g id="latch-icon-2" transform="translate(602.500000, 200.000000)">
                    <path d="M31.1297278,36.8320541 C31.1297278,35.8007027 31.9610611,34.9655676 32.9841167,34.9655676 L33.1967833,34.9655676 C34.22145,34.9655676 35.0527833,35.8007027 35.0527833,36.8320541 L35.0527833,37.0461081 C35.0527833,38.0774595 34.22145,38.9125946 33.1967833,38.9125946 L32.9841167,38.9125946 C31.9610611,38.9125946 31.1297278,38.0774595 31.1297278,37.0461081 L31.1297278,36.8320541 Z M31.7838389,40.2261081 L34.39545,40.2261081 C35.4781167,40.2261081 36.3561722,39.3439459 36.3561722,38.2558378 L36.3561722,35.6239459 C36.3561722,34.5342162 35.4797278,33.6520541 34.39545,33.6520541 L31.7822278,33.6520541 C30.6995611,33.6520541 29.8215056,34.5342162 29.8215056,35.6239459 L29.8231167,38.2558378 C29.8247278,39.3439459 30.7027833,40.2261081 31.7838389,40.2261081 L31.7838389,40.2261081 Z" id="Fill-1" fill="#1F1D1E"></path>
                    <path d="M26.5559444,22.4695135 L27.8625556,22.4695135 C28.2218333,22.4695135 28.5150556,22.1743784 28.5150556,21.8127568 C28.5150556,21.4495135 28.2218333,21.1543784 27.8625556,21.1543784 L26.5559444,21.1543784 C26.1950556,21.1543784 25.9034444,21.4495135 25.9034444,21.8127568 C25.9034444,22.1743784 26.1950556,22.4695135 26.5559444,22.4695135" id="Fill-3" fill="#1F1D1E"></path>
                    <path d="M27.2105389,29.154 C27.2105389,30.1853514 26.3792056,31.0204865 25.3577611,31.0204865 L25.1434833,31.0204865 C24.1188167,31.0204865 23.2890944,30.1853514 23.2890944,29.154 L23.2890944,28.9399459 C23.2890944,27.9085946 24.1188167,27.0734595 25.1434833,27.0734595 L25.3577611,27.0734595 C26.3792056,27.0734595 27.2105389,27.9085946 27.2105389,28.9399459 L27.2105389,29.154 Z M26.5564278,25.7599366 L23.9432056,25.7599366 C23.4212056,25.7583243 22.9233722,25.9675135 22.5544278,26.3372432 C22.1870944,26.706973 21.9808722,27.2096757 21.9808722,27.7334595 L21.9808722,30.3637297 C21.9808722,30.8858919 22.1887056,31.3885946 22.5544278,31.7583243 C22.9233722,32.1280541 23.4212056,32.3356216 23.9432056,32.3340094 L26.5564278,32.3340094 C27.6390944,32.3340094 28.5155389,31.4518378 28.51715,30.3637297 L28.51715,27.7334595 C28.51715,26.6437297 27.6390944,25.7599366 26.5564278,25.7599366 L26.5564278,25.7599366 Z" id="Fill-5" fill="#1F1D1E"></path>
                    <path d="M31.1297278,28.9401081 C31.1297278,27.9087568 31.9610611,27.0736216 32.9841167,27.0736216 L33.1967833,27.0736216 C34.22145,27.0736216 35.0527833,27.9087568 35.0527833,28.9401081 L35.0527833,29.1541622 C35.0527833,30.1855135 34.22145,31.0206486 33.1967833,31.0206486 L32.9841167,31.0206486 C31.9610611,31.0206486 31.1297278,30.1855135 31.1297278,29.1541622 L31.1297278,28.9401081 Z M31.7838389,32.3341622 L34.39545,32.3341622 C35.4781167,32.3341622 36.3561722,31.452 36.3561722,30.3638919 L36.3561722,27.732 C36.3561722,26.6422703 35.4797278,25.7601081 34.39545,25.7601081 L31.7822278,25.7601081 C30.6995611,25.7601081 29.8215056,26.6422703 29.8215056,27.732 L29.8231167,30.3638919 C29.8247278,31.452 30.7027833,32.3341622 31.7838389,32.3341622 L31.7838389,32.3341622 Z" id="Fill-7" fill="#1F1D1E"></path>
                    <path d="M27.2105389,37.0465946 C27.2105389,38.0763243 26.3792056,38.9130811 25.3577611,38.9130811 L25.1434833,38.9130811 C24.1188167,38.9130811 23.2890944,38.0763243 23.2890944,37.0465946 L23.2890944,36.8325405 C23.2890944,35.8011892 24.1188167,34.9660541 25.1434833,34.9660541 L25.3577611,34.9660541 C26.3792056,34.9660541 27.2105389,35.8011892 27.2105389,36.8325405 L27.2105389,37.0465946 Z M26.5564278,33.6509189 L23.9432056,33.6509189 C23.4212056,33.6509189 22.9233722,33.8584865 22.5544278,34.2282162 C22.1870944,34.5995676 21.9808722,35.1006486 21.9808722,35.6244324 L21.9808722,38.2563243 C21.9808722,38.7784865 22.1887056,39.2795676 22.5544278,39.6492973 C22.9233722,40.019027 23.4212056,40.2265946 23.9432056,40.2265946 L26.5564278,40.2265946 C27.6390944,40.2265946 28.5155389,39.3444324 28.51715,38.2563243 L28.51715,35.6244324 C28.51715,34.5347027 27.6390944,33.6509189 26.5564278,33.6509189 L26.5564278,33.6509189 Z" id="Fill-9" fill="#1F1D1E"></path>
                    <path d="M28.8514556,48.2784324 C28.9513444,48.2784324 29.0480111,48.258973 29.1398444,48.2216757 C29.3283444,48.1438378 29.4797889,47.9962703 29.5587333,47.8065405 C29.6392889,47.6184324 29.6409,47.4043784 29.5651778,47.2146486 L29.5555111,47.1935676 C29.4797889,47.0022162 29.3315667,46.8514054 29.1446778,46.7703243 C28.9545667,46.6908649 28.7451222,46.6892432 28.5550111,46.7654595 C28.1619,46.926 27.9717889,47.3751892 28.1296778,47.7708649 L28.1409556,47.7935676 C28.2569556,48.0854595 28.5389,48.2784324 28.8514556,48.2784324" id="Fill-11" fill="#1F1D1E"></path>
                    <path d="M39.67925,14.9648108 L18.0871389,14.9648108 L18.0871389,14.1264324 C18.08875,13.2329189 18.8073056,12.5080541 19.6950278,12.5080541 L38.0713611,12.5080541 C38.9606944,12.5080541 39.67925,13.2345405 39.67925,14.1264324 L39.67925,14.9648108 Z M39.67925,44.5950811 L18.0871389,44.5950811 L18.0871389,26.1507568 L18.0871389,16.5118378 L39.67925,16.5118378 L39.67925,44.5950811 Z M39.67925,47.2577838 C39.67925,48.1496757 38.9590833,48.8745405 38.0713611,48.8745405 L19.6950278,48.8745405 C18.8073056,48.8745405 18.08875,48.1512973 18.0871389,47.2577838 L18.0871389,46.1437297 L39.67925,46.1437297 L39.67925,47.2577838 Z M41.2081944,14.0567027 C41.2065833,12.3475135 39.8306944,10.9626486 38.1325833,10.9594054 L19.6241389,10.9594054 C17.9260278,10.9642703 16.55175,12.3491351 16.5485278,14.0567027 L16.5485278,47.3291351 C16.5501389,48.1512973 16.8755833,48.9394054 17.4539722,49.5199459 C18.03075,50.1004865 18.8153611,50.4248108 19.6321944,50.4248108 L38.1406389,50.4248108 C39.83875,50.4231892 41.2146389,49.0383243 41.21625,47.3291351 L41.2081944,14.0567027 Z" id="Fill-13" fill="#1F1D1E"></path>
                    <path d="M31.0446611,12.9685946 L26.6511611,12.9685946 C26.2274389,12.9685946 25.8826611,13.314 25.8826611,13.7421081 C25.8826611,14.1702162 26.2274389,14.5156216 26.6511611,14.5156216 L31.0446611,14.5156216 C31.4699944,14.5156216 31.8131611,14.1702162 31.8131611,13.7421081 C31.8131611,13.314 31.4699944,12.9685946 31.0446611,12.9685946" id="Fill-15" fill="#1F1D1E"></path>
                    <path d="M21.9791,24.4427027 C22.3399889,24.4427027 22.6316,24.1491892 22.6316,23.7859459 L22.6316,22.4691892 L23.9430444,22.4691892 C24.3023222,22.4691892 24.5955444,22.1756757 24.5955444,21.8124324 C24.5955444,21.4491892 24.3023222,21.1556757 23.9430444,21.1556757 L21.9807111,21.1556757 C21.6198222,21.1556757 21.3282111,21.4491892 21.3282111,21.8124324 L21.3266,23.7859459 C21.3266,24.1491892 21.6182111,24.4427027 21.9791,24.4427027" id="Fill-17" fill="#1F1D1E"></path>
                    <g id="Group-21" transform="translate(0.000000, 1.384054)">
                        <mask id="mask-2" fill="white">
                            <use xlink:href="#path-1"></use>
                        </mask>
                        <g id="Clip-20"></g>
                        <path d="M28.8735278,55.9067027 L28.5319722,55.9050811 C14.13025,55.7250811 2.43197222,43.764 2.45610151,29.2391351 C2.47869444,14.6104865 14.3413056,2.70778378 28.8993056,2.70778378 C35.9656389,2.70778378 42.6018056,5.47751351 47.5849722,10.5045405 C52.56975,15.5331892 55.31025,22.2288649 55.3086396,29.3575135 C55.3038056,43.9975135 43.4460278,55.9067027 28.8735278,55.9067027 M28.8976944,0.238054054 C12.9541389,0.236432432 0.0281944444,13.224 -0.000844460771,29.2358919 C-0.0265833333,45.2494054 12.7608056,58.1785946 28.5029722,58.3764324 C44.7220278,58.5775135 57.7575278,45.4050811 57.7655857,29.3591351 C57.7720278,13.2548108 44.8686389,0.238054054 28.8976944,0.238054054" id="Fill-19" fill="#1F1D1E" mask="url(#mask-2)"></path>
                    </g>
                </g>
            </g>
        </g>
    </g>
</svg>