<?xml version="1.0" encoding="UTF-8"?>
<svg width="58px" height="58px" viewBox="0 0 58 58" version="1.1" xmlns="http://www.w3.org/2000/svg" xmlns:xlink="http://www.w3.org/1999/xlink">
    <!-- Generator: Sketch 55.2 (78181) - https://sketchapp.com -->
    <title>latch-icon-1</title>
    <desc>Created with Sketch.</desc>
    <defs>
        <polygon id="path-1" points="0 0.233684211 56.60953 0.233684211 56.60953 56.8421053 0 56.8421053"></polygon>
    </defs>
    <g id="Page-1" stroke="none" stroke-width="1" fill="none" fill-rule="evenodd">
        <g id="Populife---Latch" transform="translate(-413.000000, -951.000000)">
            <g id="Product-Features" transform="translate(0.000000, 750.000000)">
                <g id="latch-icon-1" transform="translate(413.500000, 200.000000)">
                    <path d="M28.2225789,27.3737368 C28.1278421,27.3737368 28.0331053,27.3863684 27.9367895,27.4132105 C27.3920526,27.5726842 27.0778421,28.1442632 27.2357368,28.6858421 C27.2515263,28.7411053 28.8099474,34.4016316 28.3804737,46.719 C28.3694211,46.9968947 28.4673158,47.259 28.6552105,47.4595263 C28.8415263,47.6600526 29.0957368,47.7737368 29.2883684,47.7737368 C29.2899474,47.7737368 29.361,47.7863684 29.361,47.7863684 L29.4083684,47.7863684 C29.9657368,47.7863684 30.4157368,47.3505789 30.4362632,46.7932105 C30.8799474,34.0842632 29.2804737,28.3558421 29.2125789,28.1158421 C29.0846842,27.6784737 28.6788947,27.3737368 28.2225789,27.3737368" id="Fill-1" fill="#333132"></path>
                    <path d="M43.3498421,22.0038947 C40.7714211,15.9138947 34.8345789,11.9807368 28.2235263,11.9807368 C26.043,11.9807368 23.9145789,12.4054737 21.8998421,13.2470526 C20.7898421,13.7112632 19.7414211,14.2607368 18.7814211,14.8844211 C18.3045789,15.1954737 18.1687895,15.8349474 18.4798421,16.3102105 C18.6708947,16.6023158 18.9945789,16.776 19.3435263,16.776 C19.5424737,16.776 19.7351053,16.7191579 19.9024737,16.6102105 C20.7551053,16.056 21.693,15.5633684 22.6940526,15.1465263 C24.453,14.4091579 26.313,14.0365263 28.2235263,14.0365263 C34.0072105,14.0365263 39.2003684,17.4786316 41.4535263,22.806 C42.3961579,25.0354737 42.9108947,29.1865263 43.1335263,31.4633684 C43.1856316,31.9923158 43.6245789,32.3917895 44.1566842,32.3917895 L44.2561579,32.3870526 C44.5308947,32.3602105 44.7772105,32.2291579 44.9524737,32.016 C45.1261579,31.8028421 45.2082632,31.5344211 45.1814211,31.2628421 C44.8956316,28.3402105 44.3461579,24.3612632 43.3498421,22.0038947" id="Fill-3" fill="#333132"></path>
                    <path d="M17.5692632,18.4790526 C17.7666316,18.2864211 17.8755789,18.0290526 17.8771753,17.7543158 C17.8787368,17.478 17.7729474,17.2190526 17.5818947,17.0248421 C17.3876842,16.8258947 17.1271579,16.7153684 16.8476842,16.7153684 C16.5761053,16.7153684 16.3187368,16.8211579 16.1261053,17.0122105 C12.8576842,20.2332632 9.59557895,26.2095789 12.6287368,36.3922105 C12.7566316,36.8264211 13.1624211,37.128 13.6155789,37.128 C13.7118947,37.128 13.8113684,37.1153684 13.9061053,37.0853684 C14.1697895,37.008 14.3876842,36.8327368 14.5187368,36.5895789 C14.6513684,36.3464211 14.6797895,36.0685263 14.6008421,35.8064211 C12.4329474,28.5211579 13.4576842,22.5290526 17.5692632,18.4790526" id="Fill-5" fill="#333132"></path>
                    <path d="M28.6959474,15.5407895 C28.5285789,15.5344737 28.3612105,15.5297368 28.1938421,15.5297368 C26.5075263,15.5297368 24.8496316,15.8660526 23.2691053,16.5244737 C17.2580526,19.0318421 14.0638421,25.6413158 15.8354211,31.8986842 C16.0043684,32.4892105 16.1748947,33.1192105 16.2648947,33.7318421 C16.4733158,35.1544737 16.4843684,37.8086842 16.4843684,42.0197368 C16.4843684,42.5865789 16.9454211,43.0476316 17.5122632,43.0476316 C18.0791053,43.0476316 18.5417368,42.5865789 18.5417368,42.0197368 C18.5417368,37.5844737 18.5306842,34.9997368 18.3017368,33.4334211 C18.1943684,32.6976316 18.0033158,31.9934211 17.817,31.3381579 C16.3280526,26.0818421 19.0122632,20.5286842 24.0601579,18.4239474 C25.3880526,17.8697368 26.7964737,17.5902632 28.2491053,17.5902632 L28.6217368,17.595 C32.6685789,17.7418421 37.2585789,21.3181579 38.6448947,25.4044737 C39.8701579,29.0139474 39.8780526,35.2160526 39.7233158,40.8086842 C39.7106842,41.3739474 40.1575263,41.8492105 40.7448947,41.8634211 C41.3117368,41.8539474 41.7664737,41.4134211 41.7822632,40.8639474 C41.9401579,35.0865789 41.9212105,28.6555263 40.5933158,24.7444737 C38.9322632,19.845 33.5938421,15.7160526 28.6959474,15.5407895" id="Fill-7" fill="#333132"></path>
                    <path d="M28.2241579,19.0848947 C27.5467895,19.0848947 26.8741579,19.1575263 26.2267895,19.3012105 C25.9583684,19.3596316 25.7278421,19.5191053 25.581,19.7512105 C25.431,19.9833158 25.3836316,20.2580526 25.4420526,20.5280526 C25.5462632,21.0033158 25.9599474,21.3333158 26.4478421,21.3333158 L26.6673158,21.3112105 C27.1804737,21.1991053 27.7031053,21.1422632 28.2241579,21.1422632 C31.1467895,21.1422632 33.771,22.8822632 34.9094211,25.5743684 C36.3162632,28.8964737 36.4062632,34.3059474 36.0778421,43.7591053 C36.0667895,44.0338421 36.1646842,44.2975263 36.3525789,44.4996316 C36.5404737,44.7001579 36.7931053,44.8138421 36.9857368,44.8138421 C36.9857368,44.8138421 37.0567895,44.8248947 37.0567895,44.8248947 L37.1057368,44.8248947 C37.6615263,44.8248947 38.1131053,44.3891053 38.1320526,43.8333158 C38.481,33.867 38.3704737,28.4717368 36.8041579,24.7738421 C35.3436316,21.3175263 31.9757368,19.0848947 28.2241579,19.0848947" id="Fill-9" fill="#333132"></path>
                    <path d="M24.0786316,22.4456842 C24.5412632,22.1188421 24.6549474,21.4777895 24.3296842,21.0151579 C24.1370526,20.7404211 23.8212632,20.5762105 23.4865263,20.5762105 C23.2733684,20.5762105 23.0681053,20.6409474 22.8944211,20.7625263 C19.6970526,23.0093684 18.3028421,27.3135789 19.4317895,31.4804211 C19.4428421,31.5230526 20.6286316,35.8162105 20.6286316,42.612 C20.6286316,43.1804211 21.0912632,43.6398947 21.6581053,43.6398947 C22.2249474,43.6398947 22.6875789,43.1804211 22.6875789,42.612 C22.6875789,35.5335789 21.4654737,31.1125263 21.4149474,30.9325263 C20.5149474,27.6072632 21.5854737,24.1967368 24.0786316,22.4456842" id="Fill-11" fill="#333132"></path>
                    <path d="M34.5290526,40.8440526 C34.5322105,40.2772105 34.0743158,39.8114211 33.4995789,39.8066842 C32.9374737,39.8066842 32.4764211,40.2645789 32.4716842,40.8282632 C32.4685263,41.2766842 32.4827368,41.9303684 32.5001053,42.693 C32.5222105,43.6908947 32.5474737,44.8135263 32.5222105,45.5351053 C32.5127368,45.8114211 32.6106316,46.0751053 32.7985263,46.2756316 C32.9864211,46.4761579 33.2422105,46.5914211 33.5311579,46.6008947 L33.5516842,46.6008947 C34.1074737,46.6008947 34.5590526,46.1651053 34.578,45.6077368 C34.6048421,44.8245789 34.5795789,43.6387895 34.5558947,42.5919474 C34.5401053,41.9098421 34.5258947,41.2766842 34.5290526,40.8440526" id="Fill-13" fill="#333132"></path>
                    <path d="M28.2241579,23.2296316 C27.5373158,23.2296316 26.8662632,23.3622632 26.2331053,23.6291053 C23.7162632,24.6791053 22.4894211,27.5101579 23.3799474,30.2164737 C23.8078421,31.5127895 24.1820526,38.6875263 24.1820526,45.5733158 C24.1820526,46.1401579 24.6431053,46.6012105 25.2099474,46.6012105 C25.7783684,46.6012105 26.2394211,46.1401579 26.2394211,45.5733158 C26.2394211,39.057 25.9015263,31.2917368 25.3346842,29.5738421 C24.7836316,27.8985789 25.5099474,26.1601579 27.0257368,25.5285789 C27.4062632,25.3675263 27.8104737,25.287 28.2241579,25.287 C29.4794211,25.287 30.6052105,26.037 31.0946842,27.1927895 C32.1746842,29.7475263 32.4967895,34.4259474 32.5757368,37.9012105 C32.5899474,38.4633158 33.0415263,38.9038421 33.6273158,38.9038421 C34.1957368,38.8927895 34.6457368,38.4206842 34.6331053,37.8522632 C34.5478421,34.197 34.1957368,29.2422632 32.9894211,26.3875263 C32.1778421,24.4691053 30.3067895,23.2296316 28.2241579,23.2296316" id="Fill-15" fill="#333132"></path>
                    <g id="Group-19" transform="translate(0.000000, 1.345421)">
                        <mask id="mask-2" fill="white">
                            <use xlink:href="#path-1"></use>
                        </mask>
                        <g id="Clip-18"></g>
                        <path d="M28.2958421,54.4354737 L27.9626842,54.4338947 C13.8468947,54.2586316 2.38215789,42.6123158 2.40737938,28.4712632 C2.42952632,14.2275789 14.0537368,2.63968421 28.3211053,2.63968421 C35.2463684,2.63968421 41.7500526,5.33494737 46.6337368,10.2296842 C51.519,15.126 54.2047895,21.6454737 54.2032112,28.5865263 C54.1968947,42.8412632 42.5758421,54.4354737 28.2958421,54.4354737 M28.3195263,0.233368421 C12.6942632,0.233368421 0.0263684211,12.8775789 -0.000511812736,28.4681053 C-0.0257368421,44.0586316 12.5063684,56.6491579 27.9326842,56.8402105 C43.8263684,57.036 56.6032105,44.2117895 56.60953,28.5881053 C56.6174211,12.9075789 43.9700526,0.233368421 28.3195263,0.233368421" id="Fill-17" fill="#333132" mask="url(#mask-2)"></path>
                    </g>
                </g>
            </g>
        </g>
    </g>
</svg>