<?xml version="1.0" encoding="UTF-8"?>
<svg width="90px" height="90px" viewBox="0 0 90 90" version="1.1" xmlns="http://www.w3.org/2000/svg" xmlns:xlink="http://www.w3.org/1999/xlink">
    <!-- Generator: Sketch 53.1 (72631) - https://sketchapp.com -->
    <title>access-control-system</title>
    <desc>Created with Sketch.</desc>
    <g id="Welcome" stroke="none" stroke-width="1" fill="none" fill-rule="evenodd">
        <g id="Populife_Website_Japan" transform="translate(-1072.000000, -2052.000000)" fill="#B1B3B6">
            <g id="Application-Market" transform="translate(170.000000, 1846.000000)">
                <g id="access-control-system" transform="translate(902.000000, 206.000000)">
                    <path d="M5.97510373,89.7423237 L77.7771784,89.7423237 C81.0771371,89.7423237 83.7522822,87.0671786 83.7522822,83.7672199 L83.7522822,79.2858921 C83.7522822,78.4609024 83.0834959,77.7921162 82.2585062,77.7921162 L79.2709544,77.7921162 L79.2709544,53.8431535 L76.2834025,53.8431535 L76.2834025,77.7771784 L73.2958506,77.7771784 L73.2958506,53.8431535 L70.3082988,53.8431535 L70.3082988,77.7771784 L51.206639,77.7771784 C49.6130373,77.7687397 48.154395,78.670604 47.4497925,80.1 C47.245959,80.5112497 46.8257929,80.7705937 46.366805,80.7684647 L37.7439834,80.7684647 C37.2860888,80.7700558 36.8672865,80.5106592 36.6647303,80.1 C35.9574771,78.6712619 34.4983413,77.7699884 32.9041494,77.7771784 L13.4626556,77.7771784 L13.4626556,40.3842324 C13.4626556,39.5592427 14.1314419,38.8904564 14.9564315,38.8904564 L41.8780083,38.8904564 L41.8780083,35.9029046 L14.9564315,35.9029046 C12.4814625,35.9029046 10.4751037,37.9092634 10.4751037,40.3842324 L10.4751037,77.7771784 L7.46887967,77.7771784 L7.46887967,37.3929461 C7.46887967,34.9179771 9.47523847,32.9116183 11.9502075,32.9116183 L41.8630705,32.9116183 L41.8630705,29.9240664 L11.9502075,29.9240664 C7.82951781,29.9343297 4.49159109,33.2722564 4.4813278,37.3929461 L4.4813278,77.7771784 L1.49377593,77.7771784 C0.668786266,77.7771784 1.01032096e-16,78.4459647 0,79.2709544 L0,83.7522822 C4.04128382e-16,87.0522408 2.67514506,89.7273859 5.97510373,89.7273859 L5.97510373,89.7423237 Z M2.98755187,80.779668 L32.9004149,80.779668 C33.3590649,80.7750473 33.7798895,81.0333466 33.9834025,81.4443983 C34.6896935,82.8727543 36.1468155,83.7751271 37.740249,83.7709544 L46.3630705,83.7709544 C47.9567555,83.7760158 49.4143096,82.8733755 50.119917,81.4443983 C50.3241182,81.0339756 50.744504,80.7759457 51.2029046,80.779668 L80.7647303,80.779668 L80.7647303,83.7672199 C80.7647303,85.4171993 79.4271578,86.7547718 77.7771784,86.7547718 L5.97510373,86.7547718 C4.3251244,86.7547718 2.98755187,85.4171993 2.98755187,83.7672199 L2.98755187,80.779668 Z" id="Shape" fill-rule="nonzero"></path>
                    <path d="M19.4452282,55.3406639 L19.4452282,67.2908714 C19.4452282,68.115861 20.1140145,68.7846473 20.9390041,68.7846473 L62.8170124,68.7846473 C63.6420021,68.7846473 64.3107884,68.115861 64.3107884,67.2908714 L64.3107884,55.3406639 C64.3107884,54.5156742 63.6420021,53.846888 62.8170124,53.846888 L20.9390041,53.846888 C20.1140145,53.846888 19.4452282,54.5156742 19.4452282,55.3406639 Z M22.4327801,56.8344398 L61.3232365,56.8344398 L61.3232365,65.7970954 L22.4365145,65.7970954 L22.4327801,56.8344398 Z" id="Shape" fill-rule="nonzero"></path>
                    <rect id="Rectangle" x="25.4278008" y="59.8257261" width="2.99128631" height="2.99128631"></rect>
                    <rect id="Rectangle" x="31.4103734" y="59.8257261" width="2.99128631" height="2.99128631"></rect>
                    <rect id="Rectangle" x="37.3929461" y="59.8257261" width="2.99128631" height="2.99128631"></rect>
                    <rect id="Rectangle" x="43.3755187" y="59.8257261" width="2.99128631" height="2.99128631"></rect>
                    <path d="M85.253527,22.4925311 L85.253527,17.9477178 C85.253527,8.03546698 77.21806,6.06950314e-16 67.3058091,0 C57.3935583,-6.06950314e-16 49.3580913,8.03546698 49.3580913,17.9477178 L49.3580913,22.4925311 C46.8164848,22.7664029 44.8867768,24.9067706 44.8767635,27.4630705 L44.8767635,45.8253112 C44.8808812,48.6011519 47.131211,50.849811 49.9070539,50.8518672 L84.7195021,50.8518672 C87.495345,50.849811 89.7456748,48.6011519 89.7497925,45.8253112 L89.7497925,27.4630705 C89.7397792,24.9067706 87.8100713,22.7664029 85.2684647,22.4925311 L85.253527,22.4925311 Z M52.3493776,17.9477178 C52.3493776,9.68750879 59.0456001,2.99128631 67.3058091,2.99128631 C75.5660182,2.99128631 82.2622407,9.68750879 82.2622407,17.9477178 L82.2622407,22.4290456 L79.2746888,22.4290456 L79.2746888,17.9477178 C79.2746888,11.3395506 73.9177108,5.98257261 67.3095436,5.98257261 C60.7013763,5.98257261 55.3443983,11.3395506 55.3443983,17.9477178 L55.3443983,22.4290456 L52.3568465,22.4290456 L52.3493776,17.9477178 Z M58.3244813,22.4290456 L58.3244813,17.9477178 C58.3244813,12.9915924 62.3422148,8.97385892 67.2983402,8.97385892 C72.2544657,8.97385892 76.2721992,12.9915924 76.2721992,17.9477178 L76.2721992,22.4290456 L58.3244813,22.4290456 Z M86.7435685,45.8178423 C86.7415087,46.9424946 85.8292184,47.8531139 84.7045643,47.853112 L49.8995851,47.853112 C48.7749309,47.8531139 47.8626407,46.9424946 47.8605809,45.8178423 L47.8605809,27.4630705 C47.8626407,26.3384183 48.7749309,25.4277989 49.8995851,25.4278008 L84.7120332,25.4278008 C85.8366873,25.4277989 86.7489775,26.3384183 86.7510373,27.4630705 L86.7435685,45.8178423 Z" id="Shape" fill-rule="nonzero"></path>
                    <path d="M67.3058091,31.4103734 C65.1328575,31.4223127 63.2815891,32.9914549 62.9137698,35.1330829 C62.5459504,37.2747109 63.7675842,39.3716164 65.8120332,40.1078838 L65.8120332,43.3755187 L68.7995851,43.3755187 L68.7995851,40.1078838 C70.8440341,39.3716164 72.0656678,37.2747109 71.6978485,35.1330829 C71.3300292,32.9914549 69.4787608,31.4223127 67.3058091,31.4103734 L67.3058091,31.4103734 Z M67.3058091,37.3854772 C66.4808195,37.3854772 65.8120332,36.7166909 65.8120332,35.8917012 C65.8120332,35.0667116 66.4808195,34.3979253 67.3058091,34.3979253 C68.1307988,34.3979253 68.7995851,35.0667116 68.7995851,35.8917012 C68.7995851,36.7166909 68.1307988,37.3854772 67.3058091,37.3854772 Z" id="Shape" fill-rule="nonzero"></path>
                    <rect id="Rectangle" x="26.9215768" y="23.9302905" width="2.99128631" height="2.99128631"></rect>
                    <rect id="Rectangle" x="26.9215768" y="17.9477178" width="2.99128631" height="2.99128631"></rect>
                    <rect id="Rectangle" x="26.9215768" y="11.9651452" width="2.99128631" height="2.99128631"></rect>
                    <rect id="Rectangle" x="26.9215768" y="5.98257261" width="2.99128631" height="2.99128631"></rect>
                    <rect id="Rectangle" x="32.9041494" y="5.98257261" width="2.99128631" height="2.99128631"></rect>
                    <rect id="Rectangle" x="38.886722" y="5.98257261" width="2.99128631" height="2.99128631"></rect>
                    <rect id="Rectangle" x="44.8692946" y="5.98257261" width="2.99128631" height="2.99128631"></rect>
                </g>
            </g>
        </g>
    </g>
</svg>