<?xml version="1.0" encoding="UTF-8"?>
<svg width="88px" height="55px" viewBox="0 0 88 55" version="1.1" xmlns="http://www.w3.org/2000/svg" xmlns:xlink="http://www.w3.org/1999/xlink">
    <!-- Generator: Sketch 53.1 (72631) - https://sketchapp.com -->
    <title>cloud-end-support</title>
    <desc>Created with Sketch.</desc>
    <g id="Welcome" stroke="none" stroke-width="1" fill="none" fill-rule="evenodd">
        <g id="Populife_Website_Japan" transform="translate(-676.000000, -1098.000000)" fill="#B1B3B6" fill-rule="nonzero">
            <g id="Providing" transform="translate(170.000000, 895.000000)">
                <g id="cloud-end-support" transform="translate(506.000000, 203.000000)">
                    <path d="M54.929902,5.49460784 C63.9476792,5.50264172 71.2874709,12.7511664 71.4083333,21.7681373 C71.3651961,22.0997549 71.3328431,22.4340686 71.3220588,22.7764706 L71.1845588,26.8205882 L75.0022059,28.152451 C80.0767421,29.8859996 83.1475597,35.0412903 82.2553395,40.3290169 C81.3631194,45.6167434 76.770735,49.4789901 71.4083333,49.4514706 L16.4784314,49.4514706 C10.4692246,49.4160509 5.60345278,44.5592078 5.55699612,38.5500762 C5.51053947,32.5409446 10.3006376,27.6094518 16.3085784,27.4811275 C16.5647059,27.5188725 16.8316176,27.5512255 17.1012255,27.567402 L21.2747549,27.8370098 L22.6470588,23.8818627 C24.3003261,18.720673 29.5644337,15.6227741 34.8791667,16.6833333 L38.7237745,17.3762255 L40.6379902,13.9683824 C43.5246242,8.77382125 48.9846128,5.53594495 54.9272059,5.49460784 L54.929902,5.49460784 Z M54.9272059,0 C46.7014706,9.57839472e-16 39.6134804,4.58333333 35.8578431,11.275 C27.8910456,9.75077375 20.0271588,14.3623479 17.4678922,22.0593137 C17.1416667,22.035049 16.8262255,21.9595588 16.4865196,21.9595588 C7.46719444,22.0749237 0.216182562,29.4192753 0.216182562,38.4393382 C0.216182562,47.4594012 7.46719444,54.8037528 16.4865196,54.9191176 L71.4083333,54.9191176 C79.4337122,54.9160439 86.2849267,49.1210321 87.6192182,41.2073489 C88.9535098,33.2936658 84.3811853,25.572581 76.8004902,22.9382353 C76.8004902,22.6039216 76.8948529,22.2938725 76.8948529,21.9595588 C76.8889004,9.83199035 67.0574715,0.00297499515 54.929902,3.39703755e-15 L54.9272059,0 Z" id="Shape"></path>
                </g>
            </g>
        </g>
    </g>
</svg>