<?xml version="1.0" encoding="UTF-8"?>
<svg width="63px" height="100px" viewBox="0 0 63 100" version="1.1" xmlns="http://www.w3.org/2000/svg" xmlns:xlink="http://www.w3.org/1999/xlink">
    <!-- Generator: Sketch 53.1 (72631) - https://sketchapp.com -->
    <title>customized-app</title>
    <desc>Created with Sketch.</desc>
    <g id="Welcome" stroke="none" stroke-width="1" fill="none" fill-rule="evenodd">
        <g id="Populife_Website_Japan" transform="translate(-1109.000000, -1481.000000)" fill="#B1B3B6">
            <g id="Providing" transform="translate(170.000000, 895.000000)">
                <g id="customized-app" transform="translate(939.000000, 586.000000)">
                    <path d="M25.5214724,37.4969325 L18.8527607,37.4969325 C16.091337,37.4969325 13.8527607,39.7355088 13.8527607,42.4969325 L13.8527607,49.1656442 C13.8527605,50.4914447 14.3796426,51.7628991 15.3174127,52.700094 C16.2551829,53.6372889 17.5269604,54.1633906 18.8527607,54.1625767 L25.5214724,54.1625767 C26.8472727,54.1633906 28.1190502,53.6372889 29.0568204,52.700094 C29.9945906,51.7628991 30.5214726,50.4914447 30.5214724,49.1656442 L30.5214724,42.4969325 C30.5214724,39.7355088 28.2828961,37.4969325 25.5214724,37.4969325 Z M27.1871166,49.1533742 C27.1871166,49.5951305 27.0116296,50.0187936 26.6992607,50.3311625 C26.3868918,50.6435314 25.9632287,50.8190184 25.5214724,50.8190184 L18.8527607,50.8190184 C17.9340352,50.8241191 17.1846678,50.0843591 17.1779141,49.1656442 L17.1779141,42.4969325 C17.1779141,41.5770226 17.9236484,40.8312883 18.8435583,40.8312883 L25.5214724,40.8312883 C26.4413823,40.8312883 27.1871166,41.5770226 27.1871166,42.4969325 L27.1871166,49.1533742 Z" id="Shape" fill-rule="nonzero"></path>
                    <path d="M38.8527607,54.1625767 L45.5184049,54.1625767 C46.8442052,54.1633906 48.1159827,53.6372889 49.0537529,52.700094 C49.9915231,51.7628991 50.5184052,50.4914447 50.5184049,49.1656442 L50.5184049,42.4969325 C50.5184049,39.7355088 48.2798287,37.4969325 45.5184049,37.4969325 L38.8527607,37.4969325 C36.091337,37.4969325 33.8527607,39.7355088 33.8527607,42.4969325 L33.8527607,49.1656442 C33.8527605,50.4914447 34.3796426,51.7628991 35.3174127,52.700094 C36.2551829,53.6372889 37.5269604,54.1633906 38.8527607,54.1625767 L38.8527607,54.1625767 Z M37.1871166,42.506135 C37.1871166,42.0643787 37.3626036,41.6407156 37.6749724,41.3283467 C37.9873413,41.0159778 38.4110044,40.8404908 38.8527607,40.8404908 L45.5184049,40.8404908 C46.4388123,40.8404892 47.1854246,41.5857291 47.1871166,42.506135 L47.1871166,49.1748466 C47.1854246,50.0952525 46.4388123,50.8404924 45.5184049,50.8404908 L38.8527607,50.8404908 C37.9328509,50.8404908 37.1871166,50.0947565 37.1871166,49.1748466 L37.1871166,42.506135 Z" id="Shape" fill-rule="nonzero"></path>
                    <path d="M25.5214724,57.4969325 L18.8527607,57.4969325 C17.5266783,57.4969325 16.2549087,58.0237167 15.3172268,58.9613986 C14.3795449,59.8990805 13.8527607,61.1708501 13.8527607,62.4969325 L13.8527607,69.1625767 C13.8527607,70.4886591 14.3795449,71.7604287 15.3172268,72.6981106 C16.2549087,73.6357925 17.5266783,74.1625767 18.8527607,74.1625767 L25.5214724,74.1625767 C28.2828961,74.1625767 30.5214724,71.9240004 30.5214724,69.1625767 L30.5214724,62.4969325 C30.5214724,61.1708501 29.9946882,59.8990805 29.0570063,58.9613986 C28.1193244,58.0237167 26.8475548,57.4969325 25.5214724,57.4969325 Z M27.1871166,69.1533742 C27.1871181,70.0737816 26.4418782,70.820394 25.5214724,70.8220859 L18.8527607,70.8220859 C17.9323464,70.8254838 17.1829837,70.0829833 17.1779141,69.1625767 L17.1779141,62.4969325 C17.1779141,62.0551762 17.3534011,61.6315131 17.66577,61.3191442 C17.9781389,61.0067754 18.401802,60.8312883 18.8435583,60.8312883 L25.5214724,60.8312883 C26.4413823,60.8312883 27.1871166,61.5770226 27.1871166,62.4969325 L27.1871166,69.1533742 Z" id="Shape" fill-rule="nonzero"></path>
                    <path d="M38.8527607,74.1625767 L45.5184049,74.1625767 C48.2798287,74.1625767 50.5184049,71.9240004 50.5184049,69.1625767 L50.5184049,62.4969325 C50.5184049,61.1708501 49.9916207,59.8990805 49.0539388,58.9613986 C48.1162569,58.0237167 46.8444874,57.4969325 45.5184049,57.4969325 L38.8527607,57.4969325 C37.5266783,57.4969325 36.2549087,58.0237167 35.3172268,58.9613986 C34.3795449,59.8990805 33.8527607,61.1708501 33.8527607,62.4969325 L33.8527607,69.1625767 C33.8527607,71.9240004 36.091337,74.1625767 38.8527607,74.1625767 L38.8527607,74.1625767 Z M37.1871166,62.506135 C37.1871166,61.5862251 37.9328509,60.8404908 38.8527607,60.8404908 L45.5184049,60.8404908 C46.4388123,60.8404892 47.1854246,61.5857291 47.1871166,62.506135 L47.1871166,69.1717791 C47.1854284,70.092683 46.4393087,70.8388026 45.5184049,70.8404908 L38.8527607,70.8404908 C37.9323549,70.8387989 37.187115,70.0921865 37.1871166,69.1717791 L37.1871166,62.506135 Z" id="Shape" fill-rule="nonzero"></path>
                    <path d="M13.8527607,34.1656442 C14.2955803,34.1664604 14.7204981,33.9909124 15.0336193,33.6777911 C15.3467406,33.3646699 15.5222887,32.9397521 15.5214724,32.4969325 L15.5214724,29.1656442 L18.8527607,29.1656442 C19.4654451,29.1919309 20.043181,28.8800429 20.3573641,28.3533911 C20.6715471,27.8267393 20.6715471,27.1701932 20.3573641,26.6435414 C20.043181,26.1168896 19.4654451,25.8050016 18.8527607,25.8312883 L13.8527607,25.8312883 C12.9323549,25.8329803 12.187115,26.5795926 12.1871166,27.5 L12.1871166,32.4969325 C12.186302,32.9392201 12.3614294,33.3636716 12.6738866,33.6767043 C12.9863438,33.9897369 13.4104724,34.1656449 13.8527607,34.1656442 L13.8527607,34.1656442 Z" id="Path"></path>
                    <path d="M25.5214724,29.1656442 L28.8527607,29.1656442 C29.4654451,29.1919309 30.043181,28.8800429 30.3573641,28.3533911 C30.6715471,27.8267393 30.6715471,27.1701932 30.3573641,26.6435414 C30.043181,26.1168896 29.4654451,25.8050016 28.8527607,25.8312883 L25.5214724,25.8312883 C24.908788,25.8050016 24.3310522,26.1168896 24.0168691,26.6435414 C23.702686,27.1701932 23.702686,27.8267393 24.0168691,28.3533911 C24.3310522,28.8800429 24.908788,29.1919309 25.5214724,29.1656442 Z" id="Path"></path>
                    <path d="M55.0705521,-4.35915755e-15 L7.83128834,-4.35915755e-15 C3.50630541,0.0118232186 0.00505219776,3.51856214 0,7.84355828 L0,92.1503067 C0.00168928017,96.4824778 3.51138985,99.9949236 7.84355828,100 L55.0828221,100 C59.4125975,99.994929 62.9213094,96.4862171 62.9263804,92.1564417 L62.9263804,7.84355828 C62.9213011,3.50899458 59.4051185,-0.00169616603 55.0705521,-4.35915755e-15 Z M58.9907975,91.9754601 C58.9874562,94.2314467 57.1639336,96.0618195 54.9079755,96.0736196 L8.02147239,96.0736196 C5.75952232,96.0702411 3.92669146,94.2374102 3.92331288,91.9754601 L3.92331288,89.1533742 L58.9907975,89.1533742 L58.9907975,91.9754601 Z M58.9907975,85.2269939 L3.92331288,85.2269939 L3.92331288,14.0613497 L58.9907975,14.0613497 L58.9907975,85.2269939 Z M58.9907975,10.1441718 L3.92331288,10.1441718 L3.92331288,8.02147239 C3.92500459,5.75882249 5.75882249,3.92500459 8.02147239,3.92331288 L54.9079755,3.92331288 C57.1706254,3.92500459 59.0044433,5.75882249 59.006135,8.02147239 L58.9907975,10.1441718 Z" id="Shape" fill-rule="nonzero"></path>
                    <path d="M36.9723926,5.08588957 L25.7668712,5.08588957 C25.0475361,5.05743868 24.370326,5.42498114 24.0021936,6.04363359 C23.6340611,6.66228603 23.6340611,7.43280599 24.0021936,8.05145844 C24.370326,8.67011088 25.0475361,9.03765334 25.7668712,9.00920245 L36.9754601,9.00920245 C38.0286918,8.9675454 38.8610636,8.10160119 38.8610636,7.04754601 C38.8610636,5.99349083 38.0286918,5.12754662 36.9754601,5.08588957 L36.9723926,5.08588957 Z" id="Path"></path>
                    <path d="M29.5613497,93.3343558 C29.8605298,94.0761993 30.580468,94.5618237 31.3803681,94.5613497 C31.6314207,94.5606022 31.8801025,94.5127388 32.1134969,94.4202454 C32.5955639,94.2254502 32.9804866,93.8471063 33.1835624,93.3684687 C33.3866382,92.8898311 33.391227,92.3501196 33.196319,91.8680982 L33.1748466,91.8128834 C32.9129249,91.1630107 32.3241963,90.7022372 31.6304292,90.6041317 C30.9366621,90.5060262 30.2432562,90.7854933 29.8114108,91.3372605 C29.3795654,91.8890277 29.2748881,92.6292684 29.5368098,93.2791411 L29.5613497,93.3343558 Z" id="Path"></path>
                </g>
            </g>
        </g>
    </g>
</svg>