<?xml version="1.0" encoding="UTF-8"?>
<svg width="77px" height="75px" viewBox="0 0 77 75" version="1.1" xmlns="http://www.w3.org/2000/svg" xmlns:xlink="http://www.w3.org/1999/xlink">
    <!-- Generator: Sketch 53.1 (72631) - https://sketchapp.com -->
    <title>hotel-management</title>
    <desc>Created with Sketch.</desc>
    <g id="Welcome" stroke="none" stroke-width="1" fill="none" fill-rule="evenodd">
        <g id="Populife_Website_Japan" transform="translate(-1078.000000, -2297.000000)" fill="#B1B3B6">
            <g id="Application-Market" transform="translate(170.000000, 1846.000000)">
                <g id="hotel-management" transform="translate(908.000000, 451.000000)">
                    <path d="M75.3303965,11.438326 L61.3348018,11.438326 L61.3348018,1.27202643 C61.3356795,0.934968224 61.2023985,0.611414255 60.9643717,0.372767574 C60.7263449,0.134120892 60.4031386,-1.14291695e-06 60.0660793,0 L16.8502203,0 C16.1476995,-4.30169924e-17 15.5781938,0.569505632 15.5781938,1.27202643 L15.5781938,19.0638767 L1.60242291,19.0638767 C0.899902108,19.0638767 0.330396476,19.6333823 0.330396476,20.3359031 L0.330396476,72.4427313 C0.306454443,72.9120502 0.543213995,73.3563367 0.946134011,73.5981815 C1.34905403,73.8400263 1.85248782,73.8400263 2.25540784,73.5981815 C2.65832785,73.3563367 2.89508741,72.9120502 2.87114537,72.4427313 L2.87114537,21.6046256 L15.5814978,21.6046256 L15.5814978,73.7147577 C15.5779737,74.0538321 15.7099791,74.3802789 15.948198,74.6215995 C16.1864168,74.8629202 16.5111286,74.9991376 16.8502203,75 L60.0660793,75 C60.7673095,74.9981786 61.3348041,74.4292061 61.3348018,73.7279736 L61.3348018,13.9790749 L74.0451542,13.9790749 L74.0451542,72.4592511 C74.0212122,72.92857 74.2579717,73.3728565 74.6608917,73.6147013 C75.0638117,73.8565462 75.5672455,73.8565462 75.9701655,73.6147013 C76.3730856,73.3728565 76.6098451,72.92857 76.5859031,72.4592511 L76.5859031,12.7103524 C76.5877556,12.013498 76.0272155,11.4455825 75.3303965,11.438326 Z M37.1861233,72.4427313 L32.1046256,72.4427313 L32.1046256,61.0044053 L37.1861233,61.0044053 L37.1861233,72.4427313 Z M44.811674,72.4427313 L39.7301762,72.4427313 L39.7301762,61.0044053 L44.811674,61.0044053 L44.811674,72.4427313 Z M58.7940529,72.4427313 L47.3557269,72.4427313 L47.3557269,59.7356828 C47.3557269,59.033162 46.7862212,58.4636564 46.0837004,58.4636564 L30.8325991,58.4636564 C30.1300783,58.4636564 29.5605727,59.033162 29.5605727,59.7356828 L29.5605727,72.4427313 L18.1222467,72.4427313 L18.1222467,2.5407489 L58.8105727,2.5407489 L58.7940529,72.4427313 Z" id="Shape" fill-rule="nonzero"></path>
                    <path d="M21.935022,15.2511013 L29.5605727,15.2511013 C30.2630935,15.2511013 30.8325991,14.6815957 30.8325991,13.9790749 L30.8325991,6.35352423 C30.8326003,6.01646488 30.6984782,5.69325864 30.4598315,5.45523182 C30.2211849,5.217205 29.8976309,5.083924 29.5605727,5.08480176 L21.935022,5.08480176 C21.234326,5.08480176 20.6662996,5.65282816 20.6662996,6.35352423 L20.6662996,13.9790749 C20.6654218,14.3161331 20.7987028,14.6396871 21.0367296,14.8783337 C21.2747564,15.1169804 21.5979627,15.2511025 21.935022,15.2511013 L21.935022,15.2511013 Z M23.2070485,7.62555066 L28.2918502,7.62555066 L28.2918502,12.7103524 L23.2070485,12.7103524 L23.2070485,7.62555066 Z" id="Shape" fill-rule="nonzero"></path>
                    <path d="M34.6453744,15.2511013 L42.2709251,15.2511013 C42.9734459,15.2511013 43.5429515,14.6815957 43.5429515,13.9790749 L43.5429515,6.35352423 C43.5429527,6.01646488 43.4088307,5.69325864 43.170184,5.45523182 C42.9315373,5.217205 42.6079833,5.083924 42.2709251,5.08480176 L34.6453744,5.08480176 C34.3080117,5.08392436 33.9841181,5.2171003 33.744947,5.45503216 C33.5057759,5.69296402 33.3709192,6.01616149 33.3700441,6.35352423 L33.3700441,13.9790749 C33.3700429,14.3170105 33.504513,14.6410571 33.7437793,14.8797036 C33.9830456,15.11835 34.30744,15.2519791 34.6453744,15.2511013 L34.6453744,15.2511013 Z M35.9174009,7.62555066 L40.9988987,7.62555066 L40.9988987,12.7103524 L35.9174009,12.7103524 L35.9174009,7.62555066 Z" id="Shape" fill-rule="nonzero"></path>
                    <path d="M47.3557269,15.2511013 L54.9812775,15.2511013 C55.6837983,15.2511013 56.253304,14.6815957 56.253304,13.9790749 L56.253304,6.35352423 C56.2514826,5.65229405 55.6825101,5.0847994 54.9812775,5.08480176 L47.3557269,5.08480176 C47.0186687,5.083924 46.6951147,5.217205 46.456468,5.45523182 C46.2178213,5.69325864 46.0836993,6.01646488 46.0837004,6.35352423 L46.0837004,13.9790749 C46.0837004,14.6815957 46.6532061,15.2511013 47.3557269,15.2511013 L47.3557269,15.2511013 Z M48.6277533,7.62555066 L53.7092511,7.62555066 L53.7092511,12.7103524 L48.6277533,12.7103524 L48.6277533,7.62555066 Z" id="Shape" fill-rule="nonzero"></path>
                    <path d="M21.935022,27.9614537 L29.5605727,27.9614537 C30.2630935,27.9614537 30.8325991,27.3919481 30.8325991,26.6894273 L30.8325991,19.0638767 C30.8325991,18.3613559 30.2630935,17.7918502 29.5605727,17.7918502 L21.935022,17.7918502 C21.2337919,17.7936716 20.6662972,18.3626441 20.6662996,19.0638767 L20.6662996,26.6894273 C20.6654218,27.0264855 20.7987028,27.3500395 21.0367296,27.5886862 C21.2747564,27.8273329 21.5979627,27.9614549 21.935022,27.9614537 Z M23.2070485,20.3359031 L28.2918502,20.3359031 L28.2918502,25.4174009 L23.2070485,25.4174009 L23.2070485,20.3359031 Z" id="Shape" fill-rule="nonzero"></path>
                    <path d="M34.6453744,27.9614537 L42.2709251,27.9614537 C42.9734459,27.9614537 43.5429515,27.3919481 43.5429515,26.6894273 L43.5429515,19.0638767 C43.5429515,18.3613559 42.9734459,17.7918502 42.2709251,17.7918502 L34.6453744,17.7918502 C33.9423172,17.7918479 33.3718654,18.3608217 33.3700441,19.0638767 L33.3700441,26.6894273 C33.3700429,27.0273629 33.504513,27.3514095 33.7437793,27.590056 C33.9830456,27.8287024 34.30744,27.9623315 34.6453744,27.9614537 L34.6453744,27.9614537 Z M35.9174009,20.3359031 L40.9988987,20.3359031 L40.9988987,25.4174009 L35.9174009,25.4174009 L35.9174009,20.3359031 Z" id="Shape" fill-rule="nonzero"></path>
                    <path d="M47.3557269,27.9614537 L54.9812775,27.9614537 C55.6837983,27.9614537 56.253304,27.3919481 56.253304,26.6894273 L56.253304,19.0638767 C56.2514883,18.3621093 55.6830449,17.7936659 54.9812775,17.7918502 L47.3557269,17.7918502 C46.6532061,17.7918502 46.0837004,18.3613559 46.0837004,19.0638767 L46.0837004,26.6894273 C46.0837004,27.3919481 46.6532061,27.9614537 47.3557269,27.9614537 L47.3557269,27.9614537 Z M48.6277533,20.3359031 L53.7092511,20.3359031 L53.7092511,25.4174009 L48.6277533,25.4174009 L48.6277533,20.3359031 Z" id="Shape" fill-rule="nonzero"></path>
                    <path d="M21.935022,40.6685022 L29.5605727,40.6685022 C29.8976309,40.66938 30.2211849,40.536099 30.4598315,40.2980721 C30.6984782,40.0600453 30.8326003,39.7368391 30.8325991,39.3997797 L30.8325991,31.7742291 C30.8325991,31.0717083 30.2630935,30.5022026 29.5605727,30.5022026 L21.935022,30.5022026 C21.5979627,30.5022015 21.2747564,30.6363235 21.0367296,30.8749702 C20.7987028,31.1136169 20.6654218,31.4371709 20.6662996,31.7742291 L20.6662996,39.3997797 C20.6662996,40.1004758 21.234326,40.6685022 21.935022,40.6685022 L21.935022,40.6685022 Z M23.2070485,33.0396476 L28.2918502,33.0396476 L28.2918502,38.1277533 L23.2070485,38.1277533 L23.2070485,33.0396476 Z" id="Shape" fill-rule="nonzero"></path>
                    <path d="M34.6453744,40.6685022 L42.2709251,40.6685022 C42.6079833,40.66938 42.9315373,40.536099 43.170184,40.2980721 C43.4088307,40.0600453 43.5429527,39.7368391 43.5429515,39.3997797 L43.5429515,31.7742291 C43.5429515,31.0717083 42.9734459,30.5022026 42.2709251,30.5022026 L34.6453744,30.5022026 C34.30744,30.5013249 33.9830456,30.634954 33.7437793,30.8736004 C33.504513,31.1122468 33.3700429,31.4362935 33.3700441,31.7742291 L33.3700441,39.3997797 C33.3709192,39.7371425 33.5057759,40.0603399 33.744947,40.2982718 C33.9841181,40.5362037 34.3080117,40.6693796 34.6453744,40.6685022 L34.6453744,40.6685022 Z M35.9174009,33.0396476 L40.9988987,33.0396476 L40.9988987,38.1277533 L35.9174009,38.1277533 L35.9174009,33.0396476 Z" id="Shape" fill-rule="nonzero"></path>
                    <path d="M47.3557269,40.6685022 L54.9812775,40.6685022 C55.6825101,40.6685046 56.2514826,40.1010099 56.253304,39.3997797 L56.253304,31.7742291 C56.253304,31.0717083 55.6837983,30.5022026 54.9812775,30.5022026 L47.3557269,30.5022026 C46.6532061,30.5022026 46.0837004,31.0717083 46.0837004,31.7742291 L46.0837004,39.3997797 C46.0836993,39.7368391 46.2178213,40.0600453 46.456468,40.2980721 C46.6951147,40.536099 47.0186687,40.66938 47.3557269,40.6685022 L47.3557269,40.6685022 Z M48.6277533,33.0396476 L53.7092511,33.0396476 L53.7092511,38.1277533 L48.6277533,38.1277533 L48.6277533,33.0396476 Z" id="Shape" fill-rule="nonzero"></path>
                    <path d="M21.935022,53.3788546 L29.5605727,53.3788546 C29.8976309,53.3797324 30.2211849,53.2464514 30.4598315,53.0084246 C30.6984782,52.7703977 30.8326003,52.4471915 30.8325991,52.1101322 L30.8325991,44.4812775 C30.8326003,44.1442182 30.6984782,43.8210119 30.4598315,43.5829851 C30.2211849,43.3449583 29.8976309,43.2116773 29.5605727,43.2125551 L21.935022,43.2125551 C21.234326,43.2125551 20.6662996,43.7805815 20.6662996,44.4812775 L20.6662996,52.1101322 C20.6662996,52.8108282 21.234326,53.3788546 21.935022,53.3788546 Z M23.2070485,45.753304 L28.2918502,45.753304 L28.2918502,50.8381057 L23.2070485,50.8381057 L23.2070485,45.753304 Z" id="Shape" fill-rule="nonzero"></path>
                    <path d="M34.6453744,53.3788546 L42.2709251,53.3788546 C42.6079833,53.3797324 42.9315373,53.2464514 43.170184,53.0084246 C43.4088307,52.7703977 43.5429527,52.4471915 43.5429515,52.1101322 L43.5429515,44.4812775 C43.5429527,44.1442182 43.4088307,43.8210119 43.170184,43.5829851 C42.9315373,43.3449583 42.6079833,43.2116773 42.2709251,43.2125551 L34.6453744,43.2125551 C33.9441419,43.2125527 33.3751694,43.7800474 33.373348,44.4812775 L33.373348,52.1101322 C33.3751694,52.8113623 33.9441419,53.378857 34.6453744,53.3788546 L34.6453744,53.3788546 Z M35.9174009,45.753304 L40.9988987,45.753304 L40.9988987,50.8381057 L35.9174009,50.8381057 L35.9174009,45.753304 Z" id="Shape" fill-rule="nonzero"></path>
                    <path d="M47.3557269,53.3788546 L54.9812775,53.3788546 C55.6825101,53.378857 56.2514826,52.8113623 56.253304,52.1101322 L56.253304,44.4812775 C56.2514826,43.7800474 55.6825101,43.2125527 54.9812775,43.2125551 L47.3557269,43.2125551 C47.0186687,43.2116773 46.6951147,43.3449583 46.456468,43.5829851 C46.2178213,43.8210119 46.0836993,44.1442182 46.0837004,44.4812775 L46.0837004,52.1101322 C46.0836993,52.4471915 46.2178213,52.7703977 46.456468,53.0084246 C46.6951147,53.2464514 47.0186687,53.3797324 47.3557269,53.3788546 Z M48.6277533,45.753304 L53.7092511,45.753304 L53.7092511,50.8381057 L48.6277533,50.8381057 L48.6277533,45.753304 Z" id="Shape" fill-rule="nonzero"></path>
                    <rect id="Rectangle" x="5.41519824" y="24.1486784" width="3.81277533" height="3.81277533" rx="1.90638767"></rect>
                    <rect id="Rectangle" x="10.496696" y="24.1486784" width="3.81277533" height="3.81277533" rx="1.90638767"></rect>
                    <rect id="Rectangle" x="5.41519824" y="29.2301762" width="3.81277533" height="3.81277533" rx="1.90638767"></rect>
                    <rect id="Rectangle" x="10.496696" y="29.2301762" width="3.81277533" height="3.81277533" rx="1.90638767"></rect>
                    <rect id="Rectangle" x="5.41519824" y="34.314978" width="3.81277533" height="3.81277533" rx="1.90638767"></rect>
                    <rect id="Rectangle" x="10.496696" y="34.314978" width="3.81277533" height="3.81277533" rx="1.90638767"></rect>
                    <rect id="Rectangle" x="5.41519824" y="39.3997797" width="3.81277533" height="3.81277533" rx="1.90638767"></rect>
                    <rect id="Rectangle" x="10.496696" y="39.3997797" width="3.81277533" height="3.81277533" rx="1.90638767"></rect>
                    <rect id="Rectangle" x="5.41519824" y="44.4812775" width="3.81277533" height="3.81277533" rx="1.90638767"></rect>
                    <rect id="Rectangle" x="10.496696" y="44.4812775" width="3.81277533" height="3.81277533" rx="1.90638767"></rect>
                    <rect id="Rectangle" x="5.41519824" y="49.5660793" width="3.81277533" height="3.81277533" rx="1.90638767"></rect>
                    <rect id="Rectangle" x="10.496696" y="49.5660793" width="3.81277533" height="3.81277533" rx="1.90638767"></rect>
                    <rect id="Rectangle" x="5.41519824" y="54.6508811" width="3.81277533" height="3.81277533" rx="1.90638767"></rect>
                    <rect id="Rectangle" x="10.496696" y="54.6508811" width="3.81277533" height="3.81277533" rx="1.90638767"></rect>
                    <rect id="Rectangle" x="5.41519824" y="59.7356828" width="3.81277533" height="3.81277533" rx="1.90638767"></rect>
                    <rect id="Rectangle" x="10.496696" y="59.7356828" width="3.81277533" height="3.81277533" rx="1.90638767"></rect>
                    <rect id="Rectangle" x="5.41519824" y="64.8171806" width="3.81277533" height="3.81277533" rx="1.90638767"></rect>
                    <rect id="Rectangle" x="10.496696" y="64.8171806" width="3.81277533" height="3.81277533" rx="1.90638767"></rect>
                    <path d="M65.1475771,24.1486784 L70.2323789,24.1486784 C70.9348997,24.1486784 71.5044053,23.5791728 71.5044053,22.876652 L71.5044053,17.7918502 C71.5044053,17.4544878 71.3703886,17.1309429 71.1318374,16.8923917 C70.8932861,16.6538405 70.5697412,16.5198238 70.2323789,16.5198238 L65.1475771,16.5198238 C64.446881,16.5198238 63.8788546,17.0878502 63.8788546,17.7885463 L63.8788546,22.876652 C63.8779769,23.2137102 64.0112579,23.5372642 64.2492847,23.7759108 C64.4873115,24.0145575 64.8105177,24.1486796 65.1475771,24.1486784 L65.1475771,24.1486784 Z M66.4096916,19.0638767 L68.9504405,19.0638767 L68.9504405,21.6046256 L66.4096916,21.6046256 L66.4096916,19.0638767 Z" id="Shape" fill-rule="nonzero"></path>
                    <path d="M63.8788546,33.0396476 C63.8779769,33.3767058 64.0112579,33.7002598 64.2492847,33.9389064 C64.4873115,34.1775531 64.8105177,34.3116752 65.1475771,34.311674 L70.2323789,34.311674 C70.9348997,34.311674 71.5044053,33.7421684 71.5044053,33.0396476 L71.5044053,27.9614537 C71.5044053,27.2589329 70.9348997,26.6894273 70.2323789,26.6894273 L65.1475771,26.6894273 C64.8105177,26.6894262 64.4873115,26.8235482 64.2492847,27.0621949 C64.0112579,27.3008416 63.8779769,27.6243955 63.8788546,27.9614537 L63.8788546,33.0396476 Z M66.4096916,29.2301762 L68.9504405,29.2301762 L68.9504405,31.7742291 L66.4096916,31.7742291 L66.4096916,29.2301762 Z" id="Shape" fill-rule="nonzero"></path>
                    <path d="M63.8788546,43.2125551 C63.8788546,43.9132511 64.446881,44.4812775 65.1475771,44.4812775 L70.2323789,44.4812775 C70.9336114,44.4812799 71.5025839,43.9137852 71.5044053,43.2125551 L71.5044053,38.1277533 C71.5025896,37.425986 70.9341462,36.8575426 70.2323789,36.8557269 L65.1475771,36.8557269 C64.4463469,36.8575483 63.8788523,37.4265208 63.8788546,38.1277533 L63.8788546,43.2125551 Z M66.4096916,39.3997797 L68.9504405,39.3997797 L68.9504405,41.9405286 L66.4096916,41.9405286 L66.4096916,39.3997797 Z" id="Shape" fill-rule="nonzero"></path>
                    <path d="M63.8788546,53.3788546 C63.8779769,53.7159128 64.0112579,54.0394668 64.2492847,54.2781135 C64.4873115,54.5167602 64.8105177,54.6508822 65.1475771,54.6508811 L70.2323789,54.6508811 C70.9348997,54.6508811 71.5044053,54.0813754 71.5044053,53.3788546 L71.5044053,48.2973568 C71.5044053,47.594836 70.9348997,47.0253304 70.2323789,47.0253304 L65.1475771,47.0253304 C64.8105177,47.0253293 64.4873115,47.1594513 64.2492847,47.398098 C64.0112579,47.6367447 63.8779769,47.9602986 63.8788546,48.2973568 L63.8788546,53.3788546 Z M66.4096916,49.5594714 L68.9504405,49.5594714 L68.9504405,52.1035242 L66.4096916,52.1035242 L66.4096916,49.5594714 Z" id="Shape" fill-rule="nonzero"></path>
                    <path d="M63.8788546,63.5484581 C63.8788546,64.2491542 64.446881,64.8171806 65.1475771,64.8171806 L70.2323789,64.8171806 C70.9336114,64.817183 71.5025839,64.2496883 71.5044053,63.5484581 L71.5044053,58.4801762 C71.5044053,57.7776554 70.9348997,57.2081498 70.2323789,57.2081498 L65.1475771,57.2081498 C64.8105177,57.2081486 64.4873115,57.3422707 64.2492847,57.5809174 C64.0112579,57.819564 63.8779769,58.143118 63.8788546,58.4801762 L63.8788546,63.5484581 Z M66.4096916,59.7356828 L68.9504405,59.7356828 L68.9504405,62.2764317 L66.4096916,62.2764317 L66.4096916,59.7356828 Z" id="Shape" fill-rule="nonzero"></path>
                </g>
            </g>
        </g>
    </g>
</svg>