<?xml version="1.0" encoding="UTF-8"?>
<svg width="240px" height="240px" viewBox="0 0 240 240" version="1.1" xmlns="http://www.w3.org/2000/svg" xmlns:xlink="http://www.w3.org/1999/xlink">
    <!-- Generator: Sketch 53.1 (72631) - https://sketchapp.com -->
    <title>iot-solution</title>
    <desc>Created with Sketch.</desc>
    <g id="Welcome" stroke="none" stroke-width="1" fill="none" fill-rule="evenodd">
        <g id="Populife_Website_Japan" transform="translate(-600.000000, -1411.000000)" fill="#B1B3B6">
            <g id="Providing" transform="translate(170.000000, 895.000000)">
                <g id="iot-solution" transform="translate(430.000000, 516.000000)">
                    <path d="M119.950452,239.897806 C53.8095484,239.897806 0,186.088258 0,119.947355 C0,53.8064516 53.8095484,0 119.950452,0 C186.091355,0 239.897806,53.8095484 239.897806,119.947355 C239.897806,186.085161 186.088258,239.897806 119.950452,239.897806 Z M119.950452,1.52980645 C54.651871,1.52980645 1.52980645,54.651871 1.52980645,119.947355 C1.52980645,185.242839 54.651871,238.368 119.950452,238.368 C185.249032,238.368 238.371097,185.245935 238.371097,119.947355 C238.371097,54.6487742 185.245935,1.52980645 119.950452,1.52980645 Z" id="Shape" fill-rule="nonzero"></path>
                    <path d="M119.950452,219.870968 C64.8495484,219.870968 20.0237419,175.042065 20.0237419,119.941161 C20.0237419,64.8402581 64.8495484,20.0206452 119.950452,20.0206452 C175.051355,20.0206452 219.870968,64.8495484 219.870968,119.947355 C219.870968,175.045161 175.048258,219.870968 119.950452,219.870968 Z M119.950452,21.5442581 C65.691871,21.5442581 21.5504516,65.6856774 21.5504516,119.941161 C21.5504516,174.196645 65.691871,218.347355 119.950452,218.347355 C174.209032,218.347355 218.347355,174.205935 218.347355,119.947355 C218.347355,65.6887742 174.205935,21.5504516 119.950452,21.5504516 L119.950452,21.5442581 Z" id="Shape" fill-rule="nonzero"></path>
                    <path d="M119.383742,47.3806452 C100.029687,47.3451422 81.4593794,55.0237964 67.7821935,68.7174194 C39.3290323,97.1767742 39.3290323,143.470452 67.7821935,171.923613 C96.2353548,200.376774 142.529032,200.376774 170.982194,171.923613 C199.435355,143.470452 199.435355,97.1767742 170.982194,68.7236129 C157.306976,55.0281897 138.737684,47.3472651 119.383742,47.3806452 L119.383742,47.3806452 Z" id="Path"></path>
                </g>
            </g>
        </g>
    </g>
</svg>