<?xml version="1.0" encoding="UTF-8"?>
<svg width="121px" height="20px" viewBox="0 0 121 20" version="1.1" xmlns="http://www.w3.org/2000/svg" xmlns:xlink="http://www.w3.org/1999/xlink">
    <!-- Generator: Sketch 53.1 (72631) - https://sketchapp.com -->
    <title>line-left</title>
    <desc>Created with Sketch.</desc>
    <g id="Welcome" stroke="none" stroke-width="1" fill="none" fill-rule="evenodd">
        <g id="Populife_Website_Japan" transform="translate(-409.000000, -1521.000000)" fill="#B1B3B6" fill-rule="nonzero">
            <g id="Providing" transform="translate(170.000000, 895.000000)">
                <g id="line-left" transform="translate(299.500000, 636.000000) scale(-1, 1) translate(-299.500000, -636.000000) translate(239.000000, 626.000000)">
                    <path d="M117.029787,6.18723404 C115.310643,6.18451131 113.800338,7.32768032 113.33617,8.98297872 L19.5744681,8.98297872 C19.0217764,3.90878634 14.5981693,0.152274959 9.50147391,0.429027912 C4.40477848,0.705780864 0.413942403,4.91920045 0.413942403,10.0234043 C0.413942403,15.1276081 4.40477848,19.3410276 9.50147391,19.6177806 C14.5981693,19.8945336 19.0217764,16.1380222 19.5744681,11.0638298 L113.33617,11.0638298 C113.884592,12.9603946 115.784873,14.1292841 117.724943,13.7634252 C119.665012,13.3975663 121.009058,11.6168607 120.829068,9.65081711 C120.649077,7.68477354 119.004038,6.17771729 117.029787,6.17021277 L117.029787,6.18723404 Z M10.0085106,14.3531915 C7.62356531,14.3414544 5.69859108,12.400634 5.70640619,10.0156726 C5.7142213,7.63071121 7.65187353,5.70254797 10.0368446,5.70644109 C12.4218156,5.71033421 14.3531626,7.64481303 14.3531915,10.0297872 C14.3543221,11.1767716 13.8991849,12.2771034 13.0881442,13.0881442 C12.2771034,13.8991849 11.1767716,14.3543221 10.0297872,14.3531915 L10.0085106,14.3531915 Z" id="Shape"></path>
                </g>
            </g>
        </g>
    </g>
</svg>