<?xml version="1.0" encoding="UTF-8"?>
<svg width="90px" height="90px" viewBox="0 0 90 90" version="1.1" xmlns="http://www.w3.org/2000/svg" xmlns:xlink="http://www.w3.org/1999/xlink">
    <!-- Generator: Sketch 53.1 (72631) - https://sketchapp.com -->
    <title>parking-ioT-manageme</title>
    <desc>Created with Sketch.</desc>
    <g id="Welcome" stroke="none" stroke-width="1" fill="none" fill-rule="evenodd">
        <g id="Populife_Website_Japan" transform="translate(-287.000000, -2282.000000)" fill="#B1B3B6">
            <g id="Application-Market" transform="translate(170.000000, 1846.000000)">
                <g id="parking-ioT-manageme" transform="translate(117.000000, 436.000000)">
                    <path d="M61.4417355,77.827686 L4.83471074,77.827686 C3.64528995,77.8469804 2.49891181,77.3829913 1.65775364,76.5418331 C0.816595479,75.700675 0.35260635,74.5542968 0.371900826,73.364876 L0.371900826,56.9714876 C0.351559074,55.7817574 0.815211599,54.6347669 1.65660084,53.7933777 C2.49799008,52.9519885 3.64498056,52.4883359 4.83471074,52.5086777 L5.5785124,52.5086777 C6.22651262,52.4569813 6.79574316,52.0585199 7.0661157,51.4673554 L12.2727273,33.288843 L12.2727273,33.1400826 C13.4774014,30.4326496 16.1598026,28.685157 19.1231405,28.6772727 L47.1272727,28.6772727 C50.0906106,28.685157 52.7730118,30.4326496 53.977686,33.1400826 L53.977686,33.288843 L59.1842975,51.4636364 C59.3862359,52.1082286 59.9971238,52.5358502 60.6719008,52.5049587 L61.4157025,52.5049587 C62.6054327,52.4846169 63.7524231,52.9482695 64.5938124,53.7896587 C65.4352016,54.6310479 65.8988541,55.7780384 65.8785124,56.9677686 L65.8785124,73.353719 C65.9017291,74.5407851 65.442966,75.6866026 64.6069341,76.5296423 C63.7709023,77.3726819 62.6289541,77.8409933 61.4417355,77.827686 L61.4417355,77.827686 Z M4.83471074,55.4838843 C4.4332611,55.4597527 4.04069959,55.6087161 3.75631943,55.8930963 C3.47193927,56.1774765 3.32297583,56.570038 3.34710744,56.9714876 L3.34710744,73.357438 C3.32419125,73.7585622 3.47354691,74.1504015 3.75764707,74.4345017 C4.04174723,74.7186019 4.43358651,74.8679575 4.83471074,74.8450413 L61.4417355,74.8450413 C61.8428598,74.8679575 62.2346991,74.7186019 62.5187992,74.4345017 C62.8028994,74.1504015 62.952255,73.7585622 62.9293388,73.357438 L62.9293388,56.9714876 C62.9534704,56.570038 62.804507,56.1774765 62.5201268,55.8930963 C62.2357467,55.6087161 61.8431852,55.4597527 61.4417355,55.4838843 L60.6979339,55.4838843 C58.699213,55.4447999 56.9536904,54.1213873 56.3764463,52.207438 L51.1698347,34.185124 C50.4429517,32.6250561 48.8705888,31.6345111 47.1495868,31.6524793 L19.1380165,31.6524793 C17.4238438,31.6583212 15.8631792,32.6414966 15.1177686,34.185124 L9.91115702,52.207438 C9.33265177,54.1252454 7.58137983,55.4495978 5.5785124,55.4838843 L4.83471074,55.4838843 Z" id="Shape" fill-rule="nonzero"></path>
                    <path d="M12.2727273,89.7433884 L9.29752066,89.7433884 C8.10779047,89.7637302 6.9608,89.3000777 6.11941076,88.4586884 C5.27802152,87.6172992 4.81436899,86.4703087 4.83471074,85.2805785 L4.83471074,76.3549587 C4.81057914,75.953509 4.95954258,75.5609475 5.24392274,75.2765674 C5.5283029,74.9921872 5.92086441,74.8432238 6.32231405,74.8673554 L15.2479339,74.8673554 C15.6490581,74.8444392 16.0408974,74.9937948 16.3249976,75.277895 C16.6090977,75.5619952 16.7584534,75.9538344 16.7355372,76.3549587 L16.7355372,85.2805785 C16.7548317,86.4699993 16.2908425,87.6163775 15.4496844,88.4575356 C14.6085262,89.2986938 13.4621481,89.7626829 12.2727273,89.7433884 Z M7.80991736,77.842562 L7.80991736,85.2805785 C7.78700117,85.6817027 7.93635683,86.073542 8.22045698,86.3576422 C8.50455714,86.6417423 8.89639643,86.791098 9.29752066,86.7681818 L12.2727273,86.7681818 C12.6738515,86.791098 13.0656908,86.6417423 13.3497909,86.3576422 C13.6338911,86.073542 13.7832468,85.6817027 13.7603306,85.2805785 L13.7603306,77.842562 L7.80991736,77.842562 Z" id="Shape" fill-rule="nonzero"></path>
                    <path d="M56.9714876,89.7433884 L53.996281,89.7433884 C52.8065508,89.7637302 51.6595603,89.3000777 50.8181711,88.4586884 C49.9767818,87.6172992 49.5131293,86.4703087 49.5334711,85.2805785 L49.5334711,76.3549587 C49.5093395,75.953509 49.6583029,75.5609475 49.9426831,75.2765674 C50.2270632,74.9921872 50.6196247,74.8432238 51.0210744,74.8673554 L59.9466942,74.8673554 C60.3481439,74.8432238 60.7407054,74.9921872 61.0250855,75.2765674 C61.3094657,75.5609475 61.4584291,75.953509 61.4342975,76.3549587 L61.4342975,85.2805785 C61.453592,86.4699993 60.9896029,87.6163775 60.1484447,88.4575356 C59.3072865,89.2986938 58.1609084,89.7626829 56.9714876,89.7433884 Z M52.5086777,77.842562 L52.5086777,85.2805785 C52.4857615,85.6817027 52.6351172,86.073542 52.9192173,86.3576422 C53.2033175,86.6417423 53.5951568,86.791098 53.996281,86.7681818 L56.9714876,86.7681818 C57.3726118,86.791098 57.7644511,86.6417423 58.0485513,86.3576422 C58.3326514,86.073542 58.4820071,85.6817027 58.4590909,85.2805785 L58.4590909,77.842562 L52.5086777,77.842562 Z" id="Shape" fill-rule="nonzero"></path>
                    <path d="M13.7789256,70.3785124 C10.4926031,70.3785124 7.8285124,67.7144217 7.8285124,64.4280992 C7.8285124,61.1417767 10.4926031,58.477686 13.7789256,58.477686 C17.0652481,58.477686 19.7293388,61.1417767 19.7293388,64.4280992 C19.7171029,67.70934 17.0601664,70.3662764 13.7789256,70.3785124 L13.7789256,70.3785124 Z M13.7789256,61.4528926 C12.1357644,61.4528926 10.803719,62.7849379 10.803719,64.4280992 C10.803719,66.0712604 12.1357644,67.4033058 13.7789256,67.4033058 C15.4220869,67.4033058 16.7541322,66.0712604 16.7541322,64.4280992 C16.7570985,63.637094 16.4449501,62.8774691 15.8866688,62.3170943 C15.3283875,61.7567194 14.5699364,61.44173 13.7789256,61.4417355 L13.7789256,61.4528926 Z" id="Shape" fill-rule="nonzero"></path>
                    <path d="M52.5049587,70.3785124 C49.2186362,70.3785124 46.5545455,67.7144217 46.5545455,64.4280992 C46.5545455,61.1417767 49.2186362,58.477686 52.5049587,58.477686 C55.7912812,58.477686 58.4553719,61.1417767 58.4553719,64.4280992 C58.4411135,67.7084975 55.785357,70.364254 52.5049587,70.3785124 L52.5049587,70.3785124 Z M52.5049587,61.4528926 C50.8617974,61.4528926 49.5297521,62.7849379 49.5297521,64.4280992 C49.5297521,66.0712604 50.8617974,67.4033058 52.5049587,67.4033058 C54.1481199,67.4033058 55.4801653,66.0712604 55.4801653,64.4280992 C55.4831316,63.637094 55.1709832,62.8774691 54.6127019,62.3170943 C54.0544206,61.7567194 53.2959694,61.44173 52.5049587,61.4417355 L52.5049587,61.4528926 Z" id="Shape" fill-rule="nonzero"></path>
                    <path d="M36.1190083,68.8871901 L30.168595,68.8871901 C29.3470144,68.8871901 28.6809917,68.2211674 28.6809917,67.3995868 C28.6809917,66.5780062 29.3470144,65.9119835 30.168595,65.9119835 L36.1190083,65.9119835 C36.9405889,65.9119835 37.6066116,66.5780062 37.6066116,67.3995868 C37.6066116,68.2211674 36.9405889,68.8871901 36.1190083,68.8871901 Z" id="Path"></path>
                    <path d="M39.0979339,62.9293388 L27.1971074,62.9293388 C26.3755268,62.9293388 25.7095041,62.2633162 25.7095041,61.4417355 C25.7095041,60.6201549 26.3755268,59.9541322 27.1971074,59.9541322 L39.0979339,59.9541322 C39.9195145,59.9541322 40.5855372,60.6201549 40.5855372,61.4417355 C40.5855372,62.2633162 39.9195145,62.9293388 39.0979339,62.9293388 Z" id="Path"></path>
                    <path d="M47.6033058,52.5049587 L18.8404959,52.5049587 C17.9078331,52.4856837 17.0335111,52.0471566 16.4603306,51.311157 C15.8717137,50.5501277 15.7028134,49.5451007 16.0103306,48.6334711 L19.5880165,36.7140496 C19.9434044,35.4538033 21.1092667,34.5958758 22.4181818,34.631405 L44.0144628,34.631405 C45.3184173,34.6115447 46.4757558,35.4631998 46.8446281,36.7140496 L50.418595,48.6334711 C50.7251092,49.5446524 50.5577782,50.5486388 49.972314,51.311157 C49.4008994,52.0433322 48.5317647,52.4813106 47.6033058,52.5049587 Z M22.4181818,37.6103306 L18.8404959,49.511157 L47.6033058,49.511157 L44.0293388,37.6103306 L22.4181818,37.6103306 Z" id="Shape" fill-rule="nonzero"></path>
                    <path d="M83.7855372,89.7433884 L65.9082645,89.7433884 C65.5071402,89.7663046 65.1153009,89.616949 64.8312008,89.3328488 C64.5471006,89.0487486 64.397745,88.6569094 64.4206612,88.2557851 L64.4206612,82.3053719 C64.3965296,81.9039223 64.545493,81.5113607 64.8298732,81.2269806 C65.1142533,80.9426004 65.5068148,80.793637 65.9082645,80.8177686 L83.7855372,80.8177686 C84.1869868,80.793637 84.5795483,80.9426004 84.8639285,81.2269806 C85.1483087,81.5113607 85.2972721,81.9039223 85.2731405,82.3053719 L85.2731405,88.2557851 C85.2960567,88.6569094 85.146701,89.0487486 84.8626009,89.3328488 C84.5785007,89.616949 84.1866614,89.7663046 83.7855372,89.7433884 Z M67.3995868,86.7681818 L82.2942149,86.7681818 L82.2942149,83.7929752 L67.3995868,83.7929752 L67.3995868,86.7681818 Z" id="Shape" fill-rule="nonzero"></path>
                    <path d="M79.3152893,83.7855372 L70.3896694,83.7855372 C69.9885452,83.8084534 69.5967059,83.6590977 69.3126057,83.3749976 C69.0285056,83.0908974 68.8791499,82.6990581 68.9020661,82.2979339 L68.9020661,76.3475207 C68.8791499,75.9463964 69.0285056,75.5545571 69.3126057,75.270457 C69.5967059,74.9863568 69.9885452,74.8370012 70.3896694,74.8599174 L79.3152893,74.8599174 C79.7164135,74.8370012 80.1082528,74.9863568 80.3923529,75.270457 C80.6764531,75.5545571 80.8258088,75.9463964 80.8028926,76.3475207 L80.8028926,82.2979339 C80.8258088,82.6990581 80.6764531,83.0908974 80.3923529,83.3749976 C80.1082528,83.6590977 79.7164135,83.8084534 79.3152893,83.7855372 L79.3152893,83.7855372 Z M71.8772727,80.8103306 L77.827686,80.8103306 L77.827686,77.835124 L71.8772727,77.835124 L71.8772727,80.8103306 Z" id="Shape" fill-rule="nonzero"></path>
                    <path d="M74.8487603,77.827686 C74.4476361,77.8506021 74.0557968,77.7012465 73.7716967,77.4171463 C73.4875965,77.1330462 73.3382408,76.7412069 73.361157,76.3400826 L73.361157,27.1822314 C73.361157,26.3606508 74.0271797,25.6946281 74.8487603,25.6946281 C75.670341,25.6946281 76.3363636,26.3606508 76.3363636,27.1822314 L76.3363636,76.3363636 C76.3603846,76.738114 76.2115179,77.1309709 75.9272857,77.4159137 C75.6430534,77.7008566 75.2505695,77.8507038 74.8487603,77.827686 Z" id="Path"></path>
                    <path d="M88.2520661,28.6735537 L62.9293388,28.6735537 C62.5282146,28.6964699 62.1363753,28.5471142 61.8522752,28.2630141 C61.568175,27.9789139 61.4188193,27.5870746 61.4417355,27.1859504 L61.4417355,1.85950413 C61.4176039,1.45805449 61.5665674,1.06549298 61.8509475,0.781112821 C62.1353277,0.496732662 62.5278892,0.347769223 62.9293388,0.371900826 L88.2520661,0.371900826 C88.6531903,0.348984638 89.0450296,0.498340296 89.3291298,0.782440456 C89.61323,1.06654062 89.7625856,1.4583799 89.7396694,1.85950413 L89.7396694,27.1822314 C89.7636904,27.5839818 89.6148237,27.9768387 89.3305914,28.2617815 C89.0463592,28.5467243 88.6538752,28.6965715 88.2520661,28.6735537 L88.2520661,28.6735537 Z M64.4206612,25.6983471 L86.7644628,25.6983471 L86.7644628,3.34710744 L64.4206612,3.34710744 L64.4206612,25.6983471 Z" id="Shape" fill-rule="nonzero"></path>
                    <path d="M73.357438,22.7157025 C72.9563138,22.7386187 72.5644745,22.589263 72.2803743,22.3051628 C71.9962742,22.0210627 71.8469185,21.6292234 71.8698347,21.2280992 L71.8698347,7.80991736 C71.8698347,6.98833674 72.5358574,6.32231405 73.357438,6.32231405 C74.1790186,6.32231405 74.8450413,6.98833674 74.8450413,7.80991736 L74.8450413,21.1983471 C74.8769078,21.6044517 74.7315214,22.0044839 74.4463453,22.2953636 C74.1611691,22.5862433 73.764094,22.7395218 73.357438,22.7157025 Z" id="Path"></path>
                    <path d="M76.3363636,18.2454545 L73.361157,18.2454545 C72.9597074,18.2695861 72.5671459,18.1206227 72.2827657,17.8362426 C71.9983856,17.5518624 71.8494221,17.1593009 71.8735537,16.7578512 L71.8735537,7.80991736 C71.8494221,7.40846771 71.9983856,7.0159062 72.2827657,6.73152604 C72.5671459,6.44714588 72.9597074,6.29818245 73.361157,6.32231405 L76.3363636,6.32231405 C79.6226861,6.32231405 82.2867769,8.98640479 82.2867769,12.2727273 C82.2867769,15.5590498 79.6226861,18.2231405 76.3363636,18.2231405 L76.3363636,18.2454545 Z M74.8487603,15.2702479 L76.3363636,15.2702479 C77.9795249,15.2702479 79.3115702,13.9382026 79.3115702,12.2950413 C79.3115702,10.6518801 77.9795249,9.31983471 76.3363636,9.31983471 L74.8487603,9.31983471 L74.8487603,15.2702479 Z" id="Shape" fill-rule="nonzero"></path>
                </g>
            </g>
        </g>
    </g>
</svg>