<?xml version="1.0" encoding="UTF-8"?>
<svg width="72px" height="72px" viewBox="0 0 72 72" version="1.1" xmlns="http://www.w3.org/2000/svg" xmlns:xlink="http://www.w3.org/1999/xlink">
    <!-- Generator: Sketch 53.1 (72631) - https://sketchapp.com -->
    <title>pcb-module-supply</title>
    <desc>Created with Sketch.</desc>
    <g id="Welcome" stroke="none" stroke-width="1" fill="none" fill-rule="evenodd">
        <g id="Populife_Website_Japan" transform="translate(-263.000000, -1497.000000)" fill="#B1B3B6">
            <g id="Providing" transform="translate(170.000000, 895.000000)">
                <g id="pcb-module-supply" transform="translate(93.000000, 602.000000)">
                    <path d="M67.7334375,0 L4.0190625,0 C1.79939557,-3.19744231e-14 0,1.79939557 0,4.0190625 L0,59.09625 C-2.6129652e-07,60.1619132 0.423525202,61.1838886 1.17732658,61.9371624 C1.93112797,62.6904363 2.95339956,63.1132463 4.0190625,63.1125 L6.9890625,63.1125 L6.9890625,67.75875 C6.98750277,69.9595956 8.76791258,71.7462966 10.96875,71.7525 L29.053125,71.7525 C31.2588122,71.7525 33.046875,69.9644372 33.046875,67.75875 L33.046875,63.1125 L40.06125,63.1125 L40.06125,66.4875 C40.06125,67.0699878 40.5334497,67.5421875 41.1159375,67.5421875 L43.21125,67.5421875 C43.7937378,67.5421875 44.2659375,67.0699878 44.2659375,66.4875 L44.2659375,63.1125 L48.4846875,63.1125 L48.4846875,66.4875 C48.4846875,67.0699878 48.9568872,67.5421875 49.539375,67.5421875 L51.6346875,67.5421875 C52.2171753,67.5421875 52.689375,67.0699878 52.689375,66.4875 L52.689375,63.1125 L67.730625,63.1125 C68.7962879,63.1132463 69.8185595,62.6904363 70.5723609,61.9371624 C71.3261623,61.1838886 71.7496878,60.1619132 71.7496875,59.09625 L71.7496875,4.0190625 C71.749688,1.80049346 69.952006,0.00155253257 67.7334375,0 Z M5.8134375,46.2825 L14.625,46.2825 C15.5134881,46.2825 16.23375,47.0027619 16.23375,47.89125 L16.23375,57.2990625 C16.23375,58.1875506 15.5134881,58.9078125 14.625,58.9078125 L5.8190625,58.9078125 C5.39239547,58.9078125 4.98320361,58.7383197 4.68150447,58.4366205 C4.37980532,58.1349214 4.2103125,57.7257295 4.2103125,57.2990625 L4.2103125,47.89125 C4.21030708,47.004954 4.9271469,46.2855989 5.8134375,46.2825 L5.8134375,46.2825 Z M27.6609375,67.5478125 L12.375,67.5478125 C12.0589874,67.5478134 11.7559587,67.4220857 11.532768,67.1983673 C11.3095773,66.974649 11.1845654,66.6713243 11.1853125,66.3553125 L11.1853125,64.305 C11.1845654,63.9889882 11.3095773,63.6856635 11.532768,63.4619452 C11.7559587,63.2382268 12.0589874,63.1124991 12.375,63.1125 L27.6525,63.1125 C28.3110996,63.1125 28.845,63.6464004 28.845,64.305 L28.845,66.3553125 C28.8450164,67.010631 28.3162396,67.5431758 27.6609375,67.5478125 L27.6609375,67.5478125 Z M65.424375,58.9078125 L20.424375,58.9078125 L20.424375,54.6890625 L23.1440625,54.6890625 C23.967312,54.6890625 24.6346875,54.021687 24.6346875,53.1984375 L24.6346875,51.975 C24.6346875,51.1517505 23.967312,50.484375 23.1440625,50.484375 L20.424375,50.484375 L20.424375,46.265625 L23.1440625,46.265625 C23.967312,46.265625 24.6346875,45.5982495 24.6346875,44.775 L24.6346875,43.5515625 C24.6346875,42.728313 23.967312,42.0609375 23.1440625,42.0609375 L4.21875,42.0609375 L4.21875,6.328125 C4.22641879,5.1663407 5.1663407,4.22641879 6.328125,4.21875 L65.424375,4.21875 C66.5971171,4.21875 67.5478125,5.16944535 67.5478125,6.3421875 L67.5478125,56.7984375 C67.5400822,57.9656842 66.5916473,58.9078381 65.424375,58.9078125 L65.424375,58.9078125 Z" id="Shape" fill-rule="nonzero"></path>
                    <path d="M43.00875,8.415 L30.121875,8.415 C29.4213363,8.415 28.8534375,8.98289881 28.8534375,9.6834375 L28.8534375,19.76625 C28.8534375,20.4667887 29.4213363,21.0346875 30.121875,21.0346875 L43.00875,21.0346875 C43.7092887,21.0346875 44.2771875,20.4667887 44.2771875,19.76625 L44.2771875,9.6834375 C44.2771875,8.98289881 43.7092887,8.415 43.00875,8.415 Z M38.8490625,16.83 L34.2815625,16.83 C33.9568577,16.830749 33.6452361,16.7020921 33.4156345,16.4724905 C33.1860329,16.2428889 33.057376,15.9312673 33.058125,15.6065625 L33.058125,13.843125 C33.058125,13.1674391 33.6058766,12.6196875 34.2815625,12.6196875 L38.8490625,12.6196875 C39.5247484,12.6196875 40.0725,13.1674391 40.0725,13.843125 L40.0725,15.6065625 C40.0725,16.2822484 39.5247484,16.83 38.8490625,16.83 L38.8490625,16.83 Z" id="Shape" fill-rule="nonzero"></path>
                    <path d="M21.706875,25.2478125 C21.3699774,25.2470655 21.0466224,25.3803742 20.8081356,25.6183334 C20.5696487,25.8562926 20.4356242,26.1793516 20.435625,26.51625 L20.435625,36.5990625 C20.4356242,36.9359609 20.5696487,37.2590199 20.8081356,37.4969791 C21.0466224,37.7349383 21.3699774,37.868247 21.706875,37.8675 L31.78125,37.8675 C32.1181476,37.868247 32.4415026,37.7349383 32.6799894,37.4969791 C32.9184763,37.2590199 33.0525008,36.9359609 33.0525,36.5990625 L33.0525,26.69625 C33.0525007,26.3116127 32.8995119,25.9427701 32.6272686,25.6710544 C32.3550253,25.3993387 31.9858866,25.2470656 31.60125,25.2478125 L21.706875,25.2478125 Z M27.613125,33.6628125 L25.875,33.6628125 C25.1962075,33.6628125 24.6459375,33.1125425 24.6459375,32.43375 L24.6459375,30.67875 C24.6459375,29.9999575 25.1962075,29.4496875 25.875,29.4496875 L27.63,29.4496875 C28.3087925,29.4496875 28.8590625,29.9999575 28.8590625,30.67875 L28.8590625,32.43375 C28.8590659,32.7606946 28.7288039,33.0741669 28.497092,33.3048232 C28.26538,33.5354795 27.9513162,33.6643088 27.624375,33.6628125 L27.613125,33.6628125 Z" id="Shape" fill-rule="nonzero"></path>
                    <path d="M41.34375,54.6975 L62.0690625,54.6975 C62.7663193,54.6975154 63.3328619,54.1347414 63.3375,53.4375 L63.3375,43.3546875 C63.3375008,43.0177891 63.2034763,42.6947301 62.9649894,42.4567709 C62.7265026,42.2188117 62.4031476,42.085503 62.06625,42.08625 L41.34375,42.08625 C40.6432113,42.08625 40.0753125,42.6541488 40.0753125,43.3546875 L40.0753125,53.4375 C40.0799506,54.1347414 40.6464932,54.6975154 41.34375,54.6975 Z M45.534375,46.2825 L57.8784375,46.2825 C58.5683842,46.284028 59.1281837,46.8413172 59.1328125,47.53125 L59.1328125,49.2328125 C59.1312617,49.9260394 58.5688536,50.4871892 57.875625,50.4871875 L45.5315625,50.4871875 C44.8387903,50.4871875 44.2771875,49.9255847 44.2771875,49.2328125 L44.2771875,47.53125 C44.2802843,46.8406755 44.8409811,46.2824931 45.5315625,46.2825 L45.534375,46.2825 Z" id="Shape" fill-rule="nonzero"></path>
                    <rect id="Rectangle" x="48.4875" y="8.415" width="14.85" height="4.2046875" rx="2.10234375"></rect>
                    <rect id="Rectangle" x="48.4875" y="16.8328125" width="14.85" height="4.2046875" rx="2.10234375"></rect>
                    <rect id="Rectangle" x="48.4875" y="25.2478125" width="14.85" height="4.2046875" rx="2.10234375"></rect>
                    <rect id="Rectangle" x="48.4875" y="33.6628125" width="14.85" height="4.2046875" rx="2.10234375"></rect>
                    <rect id="Rectangle" x="28.850625" y="42.0778125" width="4.2075" height="4.2046875" rx="2.10234375"></rect>
                    <rect id="Rectangle" x="28.850625" y="50.4928125" width="4.2075" height="4.2046875" rx="2.10234375"></rect>
                    <rect id="Rectangle" x="40.0696875" y="25.2478125" width="4.2075" height="4.2046875" rx="2.10234375"></rect>
                    <rect id="Rectangle" x="40.0696875" y="33.6628125" width="4.2075" height="4.2046875" rx="2.10234375"></rect>
                    <rect id="Rectangle" x="8.415" y="33.6628125" width="4.2075" height="4.2046875" rx="2.10234375"></rect>
                    <rect id="Rectangle" x="8.415" y="8.415" width="4.2046875" height="21.0375" rx="2.10234375"></rect>
                </g>
            </g>
        </g>
    </g>
</svg>