<?xml version="1.0" encoding="UTF-8"?>
<svg width="99px" height="75px" viewBox="0 0 99 75" version="1.1" xmlns="http://www.w3.org/2000/svg" xmlns:xlink="http://www.w3.org/1999/xlink">
    <!-- Generator: Sketch 53.1 (72631) - https://sketchapp.com -->
    <title>property-management</title>
    <desc>Created with Sketch.</desc>
    <g id="Welcome" stroke="none" stroke-width="1" fill="none" fill-rule="evenodd">
        <g id="Populife_Website_Japan" transform="translate(-671.000000, -2297.000000)" fill="#B1B3B6" fill-rule="nonzero">
            <g id="Application-Market" transform="translate(170.000000, 1846.000000)">
                <g id="property-management" transform="translate(501.000000, 451.000000)">
                    <path d="M97.3215859,71.7951542 L97.3215859,35.0980176 C97.3215868,34.6750844 97.1533514,34.2695215 96.8539827,33.9707725 C96.554614,33.6720236 96.1487033,33.5046292 95.7257709,33.5055066 L55.8370044,33.5055066 L55.8370044,27.1222467 C55.836948,26.6998414 55.6694217,26.2946892 55.3711454,25.9955947 L29.8447137,0.465859031 C29.2219138,-0.155002989 28.2142095,-0.155002989 27.5914097,0.465859031 L2.06167401,25.9955947 C1.76339769,26.2946892 1.5958714,26.6998414 1.59581498,27.1222467 L1.59581498,71.7951542 C0.714470702,71.7951542 1.07933545e-16,72.5096249 0,73.3909692 C-1.07933545e-16,74.2723134 0.714470702,74.9867841 1.59581498,74.9867841 L97.3215859,74.9867841 C98.2029302,74.9867841 98.9174009,74.2723134 98.9174009,73.3909692 C98.9174009,72.5096249 98.2029302,71.7951542 97.3215859,71.7951542 Z M94.1299559,36.6938326 L94.1299559,71.7951542 L90.938326,71.7951542 L90.938326,41.4812775 C90.9392034,41.0583452 90.771809,40.6524345 90.4730601,40.3530658 C90.1743111,40.053697 89.7687482,39.8854616 89.345815,39.8854626 L60.6277533,39.8854626 C59.746409,39.8854626 59.0319383,40.5999333 59.0319383,41.4812775 L59.0319383,71.7951542 L55.8370044,71.7951542 L55.8370044,36.6938326 L94.1299559,36.6938326 Z M87.75,55.8370044 L62.2235683,55.8370044 L62.2235683,51.0528634 L87.75,51.0528634 L87.75,55.8370044 Z M62.2235683,59.0286344 L87.75,59.0286344 L87.75,63.8127753 L62.2235683,63.8127753 L62.2235683,59.0286344 Z M87.75,47.8612335 L62.2235683,47.8612335 L62.2235683,43.0770925 L87.75,43.0770925 L87.75,47.8612335 Z M62.2235683,67.0044053 L87.75,67.0044053 L87.75,71.7951542 L62.2235683,71.7951542 L62.2235683,67.0044053 Z M4.78744493,27.7830396 L28.7180617,3.84911894 L52.6486784,27.7830396 L52.6486784,71.7951542 L36.6938326,71.7951542 L36.6938326,49.4570485 C36.6938335,49.0341152 36.5255981,48.6285523 36.2262294,48.3298034 C35.9268607,48.0310545 35.52095,47.86366 35.0980176,47.8645374 L22.3348018,47.8645374 C21.4552822,47.8645374 20.7422907,48.5775289 20.7422907,49.4570485 L20.7422907,71.7951542 L4.78744493,71.7951542 L4.78744493,27.7830396 Z M33.5055066,71.7951542 L23.9240088,71.7951542 L23.9240088,51.0528634 L33.5055066,51.0528634 L33.5055066,71.7951542 Z" id="Shape"></path>
                    <path d="M14.3590308,36.6938326 L43.0770925,36.6938326 C43.9584368,36.6938326 44.6729075,35.9793619 44.6729075,35.0980176 L44.6729075,25.5165198 C44.6729075,24.6351755 43.9584368,23.9207048 43.0770925,23.9207048 L14.3590308,23.9207048 C13.4776866,23.9207048 12.7632159,24.6351755 12.7632159,25.5165198 L12.7632159,35.0980176 C12.7632159,35.9793619 13.4776866,36.6938326 14.3590308,36.6938326 L14.3590308,36.6938326 Z M25.5264317,33.5055066 L25.5264317,27.1222467 L31.9096916,27.1222467 L31.9096916,33.5055066 L25.5264317,33.5055066 Z M41.4812775,33.5055066 L35.0980176,33.5055066 L35.0980176,27.1222467 L41.4812775,27.1222467 L41.4812775,33.5055066 Z M15.9548458,27.1222467 L22.3348018,27.1222467 L22.3348018,33.5055066 L15.9548458,33.5055066 L15.9548458,27.1222467 Z" id="Shape"></path>
                    <path d="M15.9548458,52.6486784 L9.5814978,52.6486784 C8.70015352,52.6486784 7.98568282,53.3631491 7.98568282,54.2444934 L7.98568282,63.8259912 C7.98750488,64.7060449 8.70144219,65.4185041 9.5814978,65.4185022 L15.9548458,65.4185022 C16.3780823,65.4185022 16.783984,65.2503722 17.0832574,64.9510988 C17.3825308,64.6518255 17.5506608,64.2459237 17.5506608,63.8226872 L17.5506608,54.2411894 C17.5506608,53.3598452 16.8361901,52.6453744 15.9548458,52.6453744 L15.9548458,52.6486784 Z M14.3590308,62.2301762 L11.1674009,62.2301762 L11.1674009,55.8370044 L14.3590308,55.8370044 L14.3590308,62.2301762 Z" id="Shape"></path>
                    <path d="M39.8854626,54.2444934 L39.8854626,63.8259912 C39.8854626,64.7073355 40.5999333,65.4218062 41.4812775,65.4218062 L47.8645374,65.4218062 C48.2874707,65.4218071 48.6930336,65.2535717 48.9917825,64.954203 C49.2905314,64.6548343 49.4579259,64.2489235 49.4570485,63.8259912 L49.4570485,54.2444934 C49.4579259,53.821561 49.2905314,53.4156503 48.9917825,53.1162816 C48.6930336,52.8169129 48.2874707,52.6486775 47.8645374,52.6486784 L41.4812775,52.6486784 C40.5999333,52.6486784 39.8854626,53.3631491 39.8854626,54.2444934 L39.8854626,54.2444934 Z M43.0770925,55.8403084 L46.2555066,55.8403084 L46.2555066,62.2235683 L43.0638767,62.2235683 L43.0770925,55.8403084 Z" id="Shape"></path>
                </g>
            </g>
        </g>
    </g>
</svg>