<?xml version="1.0" encoding="UTF-8"?>
<svg width="50px" height="90px" viewBox="0 0 50 90" version="1.1" xmlns="http://www.w3.org/2000/svg" xmlns:xlink="http://www.w3.org/1999/xlink">
    <!-- Generator: Sketch 53.1 (72631) - https://sketchapp.com -->
    <title>smart-keybox</title>
    <desc>Created with Sketch.</desc>
    <g id="Welcome" stroke="none" stroke-width="1" fill="none" fill-rule="evenodd">
        <g id="Populife_Website_Japan" transform="translate(-695.000000, -2052.000000)" fill="#B1B3B6">
            <g id="Application-Market" transform="translate(170.000000, 1846.000000)">
                <g id="smart-keybox" transform="translate(525.000000, 206.000000)">
                    <rect id="Rectangle" x="21.3834025" y="56.6439834" width="6.81161826" height="6.38589212"></rect>
                    <rect id="Rectangle" x="34.1551867" y="56.6439834" width="6.81161826" height="6.38589212"></rect>
                    <rect id="Rectangle" x="8.60788382" y="56.6439834" width="6.81161826" height="6.38589212"></rect>
                    <rect id="Rectangle" x="21.3834025" y="43.8684647" width="6.81161826" height="6.38589212"></rect>
                    <rect id="Rectangle" x="34.1551867" y="43.8684647" width="6.81161826" height="6.38589212"></rect>
                    <rect id="Rectangle" x="8.60788382" y="43.8684647" width="6.81161826" height="6.38589212"></rect>
                    <rect id="Rectangle" x="21.3834025" y="31.0966805" width="6.81161826" height="6.38589212"></rect>
                    <rect id="Rectangle" x="34.1551867" y="31.0966805" width="6.81161826" height="6.38589212"></rect>
                    <rect id="Rectangle" x="8.60788382" y="31.0966805" width="6.81161826" height="6.38589212"></rect>
                    <path d="M15.580083,72.8215768 C15.723635,72.8202712 15.8659482,72.8482255 15.9983402,72.9037344 C16.1281529,72.9591073 16.2460725,73.0389883 16.3456432,73.1390041 C16.5472782,73.3442232 16.6599751,73.620599 16.6593361,73.9082988 L16.6593361,75.3273859 C16.6637379,75.6158062 16.550472,75.8935775 16.3456432,76.0966805 C16.2460725,76.1966963 16.1281529,76.2765773 15.9983402,76.3319502 C15.8661858,76.3886398 15.7238833,76.4178627 15.580083,76.4178423 L14.1684647,76.4178423 C14.0234176,76.4182658 13.8798146,76.3890369 13.746473,76.3319502 C13.6178098,76.2764893 13.5011306,76.1965894 13.4029046,76.0966805 C13.19886,75.8927599 13.084605,75.6158595 13.0854772,75.3273859 L13.0854772,73.9082988 C13.0885869,73.6206224 13.2022455,73.3451674 13.4029046,73.1390041 C13.5011306,73.0390953 13.6178098,72.9591954 13.746473,72.9037344 C13.8800838,72.8479283 14.0236767,72.8199722 14.1684647,72.8215768 L15.580083,72.8215768 Z M13.6419087,75.3273859 C13.6418094,75.3979009 13.6557747,75.4677275 13.6829876,75.5327801 C13.7096243,75.5961538 13.7490328,75.6533596 13.7987552,75.7008299 C13.8475739,75.7489457 13.9044519,75.7881283 13.966805,75.8165975 C14.0306686,75.8434213 14.0991972,75.8573808 14.1684647,75.8576763 L15.580083,75.8576763 C15.6505592,75.8573868 15.7203109,75.8434365 15.7854772,75.8165975 C15.8461482,75.7871466 15.9016406,75.7480497 15.9497925,75.7008299 C15.9995149,75.6533596 16.0389234,75.5961538 16.0655602,75.5327801 C16.092773,75.4677275 16.1067383,75.3979009 16.106639,75.3273859 L16.106639,73.9082988 C16.1059822,73.8378602 16.0920456,73.7681774 16.0655602,73.7029046 C16.037091,73.6405515 15.9979084,73.5836735 15.9497925,73.5348548 C15.9025189,73.4875512 15.8467808,73.4495479 15.7854772,73.4228216 C15.7203109,73.3959826 15.6505592,73.3820323 15.580083,73.3817427 L14.1684647,73.3817427 C14.0991972,73.3820383 14.0306686,73.3959978 13.966805,73.4228216 C13.9039005,73.4486283 13.8467709,73.4867147 13.7987552,73.5348548 C13.7506393,73.5836735 13.7114568,73.6405515 13.6829876,73.7029046 C13.6565021,73.7681774 13.6425656,73.8378602 13.6419087,73.9082988 L13.6419087,75.3273859 Z" id="Shape" fill-rule="nonzero"></path>
                    <path d="M25.8423237,72.8215768 C25.9961684,72.8235881 26.1203953,72.947815 26.1224066,73.1016598 L26.1224066,75.3161826 C26.1223084,75.4635927 26.09312,75.6095344 26.0365145,75.7456432 C25.9783873,75.8739337 25.8988255,75.9913821 25.8012448,76.0929461 C25.7042208,76.1969056 25.5857021,76.2784668 25.4539419,76.3319502 C25.3216643,76.3882463 25.179443,76.4174525 25.0356846,76.4178423 L23.620332,76.4178423 C23.4752848,76.4182658 23.3316818,76.3890369 23.1983402,76.3319502 C23.0699102,76.2763595 22.9542484,76.1950149 22.8585062,76.0929461 C22.7584904,75.9933754 22.6786094,75.8754558 22.6232365,75.7456432 C22.569167,75.6089068 22.5412967,75.463221 22.5410788,75.3161826 L22.5410788,73.1016598 C22.5410652,72.9484209 22.6642022,72.8236199 22.8174274,72.8215768 L22.8174274,72.8215768 C22.9712721,72.8235881 23.0954991,72.947815 23.0975104,73.1016598 L23.0975104,75.3161826 C23.0969196,75.4560595 23.1520088,75.5904234 23.2506224,75.6896266 C23.3473201,75.7928086 23.482658,75.8510039 23.6240664,75.8502075 L25.0207469,75.8502075 C25.1620635,75.8505532 25.2972293,75.7924319 25.3941909,75.6896266 C25.4928045,75.5904234 25.5478937,75.4560595 25.5473029,75.3161826 L25.5473029,73.1016598 C25.5472893,72.9484209 25.6704262,72.8236199 25.8236515,72.8215768 L25.8423237,72.8215768 Z" id="Path"></path>
                    <path d="M27.8029046,72.8215768 C27.8784996,72.8215499 27.9508955,72.8520816 28.0036413,72.906234 C28.0563871,72.9603864 28.0850034,73.0335605 28.0829876,73.1091286 L28.0829876,75.4356846 C28.0791839,75.542498 28.1213292,75.6458219 28.1987552,75.7195021 C28.2691388,75.7953945 28.3678637,75.8386712 28.4713693,75.8390041 L30.039834,75.8390041 C30.1151092,75.8399881 30.1869096,75.870838 30.2394368,75.9247659 C30.2919639,75.9786938 30.320914,76.051281 30.319917,76.126556 L30.319917,76.126556 C30.3199696,76.2824949 30.1957203,76.4100575 30.039834,76.4141079 L28.4713693,76.4141079 C28.3431188,76.4147141 28.2160773,76.3893058 28.0979253,76.3394191 C27.9848879,76.2895424 27.8832261,76.2171083 27.7991701,76.126556 C27.7114128,76.0359783 27.6417066,75.9295178 27.5937759,75.8128631 C27.5415708,75.6953119 27.5148438,75.5680402 27.5153527,75.4394191 L27.5153527,73.1091286 C27.5143537,73.0332106 27.5438142,72.9600574 27.5971489,72.9060209 C27.6504837,72.8519844 27.7232455,72.8215702 27.7991701,72.8215768 L27.8029046,72.8215768 Z" id="Path"></path>
                    <path d="M11.6103734,73.4004149 C11.562258,73.287173 11.492487,73.1844194 11.4049793,73.0979253 C11.2278702,72.9204351 10.9872534,72.8209622 10.7365145,72.8215768 L8.60788382,72.8215739 L8.60788382,76.1377593 C8.60788382,76.2924449 8.73328124,76.4178423 8.8879668,76.4178423 C9.04265237,76.4178423 9.16804979,76.2924449 9.16804979,76.1377593 L9.16804979,74.886722 L10.7365145,74.886722 C10.8649408,74.88922 10.9923719,74.8637338 11.1099585,74.8120332 C11.223361,74.7662314 11.3253409,74.6961203 11.4087137,74.606639 C11.4962214,74.5201449 11.5659924,74.4173913 11.6141079,74.3041494 C11.6679195,74.187123 11.6947219,74.0594923 11.6925311,73.9307054 L11.6925311,73.7626556 C11.6909634,73.63747 11.6629662,73.5140279 11.6103734,73.4004149 L11.6103734,73.4004149 Z M11.1248963,73.9419087 C11.1248963,74.1481561 10.9576997,74.3153527 10.7514523,74.3153527 L9.18298755,74.3153527 L9.18298755,73.3630634 L10.7514523,73.3630705 C10.8543959,73.3624351 10.9530359,73.4043233 11.0240664,73.4788382 C11.100507,73.5516408 11.1425651,73.6533942 11.139834,73.7589212 L11.1248963,73.9419087 Z" id="Shape" fill-rule="nonzero"></path>
                    <path d="M21.0659751,73.4004149 C21.0165169,73.2879105 20.9469079,73.1853955 20.8605809,73.0979253 C20.7746255,73.0124406 20.673253,72.9440142 20.5618257,72.8962656 C20.4442031,72.844679 20.3167974,72.8191979 20.1883817,72.8215768 L18.059751,72.8215768 L18.059751,76.1377593 C18.059751,76.2924449 18.1851485,76.4178423 18.339834,76.4178423 C18.4945196,76.4178423 18.619917,76.2924449 18.619917,76.1377593 L18.619917,74.886722 L20.1883817,74.886722 C20.3167974,74.8891009 20.4442031,74.8636197 20.5618257,74.8120332 C20.6741633,74.764271 20.775759,74.694424 20.8605809,74.606639 C20.9469079,74.5191689 21.0165169,74.4166538 21.0659751,74.3041494 C21.11679,74.1862849 21.1422375,74.0590476 21.1406639,73.9307054 L21.1406639,73.7626556 C21.1397779,73.6381776 21.1143992,73.5150913 21.0659751,73.4004149 L21.0659751,73.4004149 Z M20.5767635,73.9419087 C20.5767635,74.1481561 20.4095669,74.3153527 20.2033195,74.3153527 L18.6348548,74.3153527 L18.6348548,73.3630705 L20.2033195,73.3630705 C20.3075565,73.3613955 20.4077487,73.4033679 20.479668,73.4788382 C20.5547359,73.5522915 20.5954033,73.6539599 20.5917012,73.7589212 L20.5767635,73.9419087 Z" id="Shape" fill-rule="nonzero"></path>
                    <path d="M31.5821577,72.4742739 C31.578462,72.3425714 31.65558,72.2219716 31.7766813,72.170071 C31.8977826,72.1181705 32.0382983,72.1454987 32.1311203,72.2390041 C32.1945053,72.3007089 32.2296327,72.3858255 32.2282158,72.4742739 C32.2293654,72.5604908 32.1941134,72.6431973 32.1311203,72.7020747 C32.0718545,72.7590491 31.9929966,72.7911269 31.9107884,72.7917012 C31.8260735,72.7926692 31.7443313,72.7605084 31.6829876,72.7020747 C31.6173941,72.6447513 31.5804875,72.5613697 31.5821577,72.4742739 Z" id="Path"></path>
                    <path d="M38.7821577,74.9240664 L38.7821577,74.9240664 L40.933195,74.046473 L40.9705394,74.046473 L40.9705394,74.0128631 C40.8486814,73.6830306 40.642699,73.3907931 40.373029,73.1651452 C40.097333,72.9401458 39.7503693,72.8209598 39.3946058,72.8290456 C39.1533247,72.8276933 38.9143455,72.8759976 38.6925311,72.9709544 C38.4825271,73.0584446 38.2911399,73.185191 38.1286307,73.3443983 C37.9692742,73.5096345 37.8425708,73.7034907 37.7551867,73.9157676 C37.6576026,74.1381959 37.607977,74.3786888 37.6095436,74.6215768 C37.6091488,74.8611862 37.6561063,75.098512 37.7477178,75.319917 C37.8354496,75.5297921 37.9621675,75.7211361 38.1211618,75.8838174 C38.2875244,76.0417555 38.4811013,76.1682763 38.6925311,76.2572614 C38.9158744,76.351513 39.1559249,76.3997771 39.3983402,76.3991701 C39.6348299,76.3997455 39.8692763,76.3553908 40.0892116,76.2684647 C40.2785794,76.1936927 40.454048,76.0876542 40.6082988,75.9547718 C40.5195932,75.8678532 40.4001224,75.819528 40.2759336,75.820332 C40.1983186,75.8211509 40.1218296,75.8389983 40.0518672,75.8726141 L39.9360996,75.9286307 C39.7622419,75.9959722 39.577314,76.0301712 39.3908714,76.0294606 C38.8254774,76.0352924 38.3111536,75.7031862 38.0838174,75.1854772 C38.0485659,75.0958845 38.0210789,75.0034282 38.0016598,74.9091286 C38.0016598,74.8643154 38.0016598,74.8232365 38.0016598,74.7784232 C37.9957925,74.7188162 37.9957925,74.6587771 38.0016598,74.5991701 C38.0013336,74.4104729 38.0394531,74.2236872 38.1136929,74.0502075 C38.1852761,73.8830449 38.2879205,73.7309791 38.4161826,73.6020747 C38.5464041,73.4717765 38.6996036,73.3666893 38.8680498,73.2921162 C39.0436773,73.2163532 39.2332185,73.1781905 39.4244813,73.180083 C39.666451,73.1753193 39.9039334,73.2457811 40.1041494,73.3817427 C40.2900327,73.5112976 40.4382253,73.6878401 40.53361,73.893361 L38.9651452,74.5356846 C38.8816571,74.5514812 38.8107972,74.6063334 38.7745819,74.6831985 C38.7383666,74.7600636 38.7411836,74.849629 38.7821577,74.9240664 Z" id="Path"></path>
                    <path d="M31.9107884,73.1950207 C31.8465093,73.1936551 31.7826019,73.1848835 31.720332,73.1688797 L31.720332,76.4253112 C31.9265794,76.4253112 32.0937759,76.2581146 32.0937759,76.0518672 L32.0937759,73.1651452 C32.0348463,73.1851319 31.9730148,73.1952269 31.9107884,73.1950207 Z" id="Path"></path>
                    <path d="M36.1717842,69.4120332 C35.9055298,69.5244209 35.6680898,69.6954798 35.4771784,69.9124481 C35.2739713,70.1503143 35.119204,70.4255971 35.0215768,70.7228216 C34.907218,71.0849882 34.8529724,71.4634455 34.8609959,71.8431535 L34.8609959,73.1688797 L33.4904564,73.1688797 L33.4904564,73.5423237 L34.8684647,73.5423237 L34.8684647,81.1792531 C35.0747121,81.1792531 35.2419087,81.0120565 35.2419087,80.8058091 L35.2419087,73.5311203 L36.619917,73.5311203 L36.619917,73.1576763 L35.2456432,73.1576763 L35.2456432,71.7983402 C35.2403769,71.4877909 35.287079,71.178547 35.3838174,70.8834025 C35.4637845,70.6305588 35.5904547,70.3949523 35.7572614,70.1887967 C35.9120146,70.0012604 36.1057021,69.8496235 36.3248963,69.7443983 C36.4436092,69.687553 36.5691104,69.6461376 36.6983402,69.6211618 C36.8920816,69.5838422 37.032669,69.4151373 37.0344398,69.2178423 C36.7376078,69.2306066 36.4454535,69.296373 36.1717842,69.4120332 Z" id="Path"></path>
                    <path d="M5.29543568,21.659751 L3.70456432,21.659751 C1.65944321,21.6618095 0.00205850293,23.3191942 0,25.3643154 L0,86.0340249 C0.00206100491,88.0785407 1.66004744,89.7348558 3.70456432,89.7348548 L10.5311203,89.7348548 L10.6170124,89.7348548 L10.6991701,89.7348548 L19.8112033,89.7348548 L19.893361,89.7348548 L19.9792531,89.7348548 L45.8738589,89.7348548 C47.9177708,89.7348548 49.5746888,88.0779368 49.5746888,86.0340249 L49.5746888,25.3643154 C49.5726349,23.3206497 47.9175215,21.6638662 45.8738589,21.659751 L5.29543568,21.659751 Z M3.70456432,86.5008299 C3.44675504,86.5008299 3.23775934,86.2918342 3.23775934,86.0340249 L3.23775934,25.3643154 C3.23775934,25.1065061 3.44675504,24.8975104 3.70456432,24.8975104 L45.8738589,24.8975104 C46.1316682,24.8975104 46.3406639,25.1065061 46.3406639,25.3643154 L46.3406639,86.0340249 L46.3406639,86.0340249 C46.3406639,86.2918342 46.1316682,86.5008299 45.8738589,86.5008299 L3.70456432,86.5008299 Z" id="Shape" fill-rule="nonzero"></path>
                    <path d="M43.2560166,21.659751 L43.2560166,13.2161826 C43.2477888,5.92195487 37.3377936,0.010289224 30.0435685,0 L19.5348548,0 C12.2400229,0.0102845661 6.32895677,5.92135074 6.3186722,13.2161826 L6.3186722,21.659751 L9.55643154,21.659751 L9.55643154,13.2161826 C9.56054757,7.70635271 14.0250268,3.24020261 19.5348548,3.2340249 L30.0435685,3.2340249 C35.552544,3.24225609 40.0158219,7.70720432 40.0219917,13.2161826 L40.0219917,21.659751 L43.2560166,21.659751 Z" id="Path"></path>
                </g>
            </g>
        </g>
    </g>
</svg>