<?xml version="1.0" encoding="UTF-8"?>
<svg width="73px" height="90px" viewBox="0 0 73 90" version="1.1" xmlns="http://www.w3.org/2000/svg" xmlns:xlink="http://www.w3.org/1999/xlink">
    <!-- Generator: Sketch 53.1 (72631) - https://sketchapp.com -->
    <title>smart-lock</title>
    <desc>Created with Sketch.</desc>
    <g id="Welcome" stroke="none" stroke-width="1" fill="none" fill-rule="evenodd">
        <g id="Populife_Website_Japan" transform="translate(-306.000000, -2052.000000)" fill="#B1B3B6">
            <g id="Application-Market" transform="translate(170.000000, 1846.000000)">
                <g id="smart-lock" transform="translate(136.000000, 206.000000)">
                    <path d="M72.4481328,65.5543568 L72.4481328,54.2726141 C72.4460793,53.3762898 71.7199758,52.6501862 70.8236515,52.6481328 L49.8921162,52.6481328 L49.8921162,7.26721992 C49.8879993,3.25535168 46.6367645,0.00411685111 42.6248963,0 L7.26348548,0 C3.2530757,0.00617409426 0.00411271615,3.2568075 0,7.26721992 L0,82.4751037 C0.00411271615,86.4855162 3.2530757,89.7361496 7.26348548,89.7423237 L42.6248963,89.7423237 C46.6367645,89.7382068 49.8879993,86.486972 49.8921162,82.4751037 L49.8921162,67.1639004 L70.8311203,67.1639004 C71.7187494,67.1578509 72.4379739,66.4419484 72.4481328,65.5543568 Z M3.24896266,7.26721992 C3.25101725,5.05030672 5.04657515,3.25307854 7.26348548,3.24896266 L42.6248963,3.24896266 C44.8424137,3.25307299 46.6390432,5.0497025 46.6431535,7.26721992 L46.6431535,52.6556017 L35.8506224,52.6556017 L35.7759336,52.5697095 C33.7086555,50.2208555 30.7264967,48.8809266 27.5975104,48.8950207 C21.587144,49.0056384 16.7726361,53.9095702 16.7726361,59.9209544 C16.7726361,65.9323386 21.587144,70.8362703 27.5975104,70.946888 C30.725769,70.9575541 33.7065757,69.6182328 35.7759336,67.2721992 L35.8506224,67.1863071 L46.6431535,67.1863071 L46.6431535,82.4975104 C46.6390432,84.7150278 44.8424137,86.5116573 42.6248963,86.5157676 L7.26348548,86.5157676 C6.19483883,86.5137947 5.17091133,86.0866129 4.41771899,85.3285161 C3.66452664,84.5704192 3.24399961,83.5437407 3.24896266,82.4751037 L3.24896266,7.26721992 Z M35.0626556,55.8970954 L69.206639,55.8970954 L69.206639,63.9298755 L35.0626556,63.9298755 C34.5542322,63.930437 34.0751165,64.1679237 33.766805,64.5721992 C32.315132,66.5318468 30.0213365,67.6884406 27.5825726,67.6904564 C23.9134615,67.7176467 20.7242622,65.1772263 19.9303581,61.5949321 C19.136454,58.0126379 20.9537494,54.3626837 24.2908048,52.8371751 C27.6278602,51.3116665 31.5771554,52.3254694 33.766805,55.2697095 C34.0785425,55.6679174 34.5569444,55.8995356 35.0626556,55.8970954 Z" id="Shape" fill-rule="nonzero"></path>
                    <path d="M18.526556,77.4672199 C18.7201491,77.4670214 18.9062561,77.5419998 19.0456432,77.6763485 C19.1134454,77.7468556 19.1678579,77.829107 19.2062241,77.9190871 C19.2450042,78.0126466 19.2652949,78.112832 19.2659751,78.2141079 L19.2659751,79.2037344 C19.2656795,79.3050498 19.2453738,79.405309 19.2062241,79.4987552 C19.1687059,79.5880846 19.1141656,79.6692609 19.0456432,79.7377593 C18.9050141,79.8812298 18.7125169,79.9619979 18.5116183,79.9618257 L17.5518672,79.9618257 C17.4515858,79.9632875 17.3521884,79.9428983 17.2605809,79.9020747 C17.1692162,79.8646029 17.0865767,79.8086623 17.0178423,79.7377593 C16.9493199,79.6692609 16.8947796,79.5880846 16.8572614,79.4987552 C16.8181117,79.405309 16.797806,79.3050498 16.7975104,79.2037344 L16.7975104,78.2141079 C16.7981906,78.112832 16.8184813,78.0126466 16.8572614,77.9190871 C16.8956276,77.829107 16.9500401,77.7468556 17.0178423,77.6763485 C17.0875352,77.606597 17.1699291,77.5508227 17.2605809,77.5120332 C17.3526902,77.4727943 17.4517484,77.4524747 17.5518672,77.4522822 L18.526556,77.4672199 Z M17.1784232,79.2186722 C17.1788358,79.3166414 17.2177304,79.4105251 17.286722,79.480083 C17.3203519,79.5128866 17.3595525,79.5394418 17.4024896,79.5585062 C17.4476432,79.5763627 17.4958458,79.5852421 17.5443983,79.5846473 L18.5302905,79.5846473 C18.5798569,79.5805409 18.6281037,79.5665747 18.6721992,79.5435685 C18.7153819,79.5249495 18.7546595,79.4983421 18.7879668,79.4651452 C18.8569584,79.3955873 18.895853,79.3017037 18.8962656,79.2037344 L18.8962656,78.2141079 C18.8961693,78.1640485 18.8860095,78.1145194 18.86639,78.0684647 C18.8286743,77.9814191 18.7592448,77.9119896 18.6721992,77.8742739 C18.6273029,77.8551382 18.5790911,77.8449884 18.5302905,77.8443983 L17.5518672,77.8443983 C17.5030666,77.8449884 17.4548548,77.8551382 17.4099585,77.8742739 C17.3670214,77.8933382 17.3278208,77.9198935 17.2941909,77.9526971 C17.260994,77.9860044 17.2343866,78.025282 17.2157676,78.0684647 C17.1961482,78.1145194 17.1859884,78.1640485 17.1858921,78.2141079 L17.1784232,79.2186722 Z" id="Shape" fill-rule="nonzero"></path>
                    <path d="M25.6817427,77.4672199 C25.733899,77.4672103 25.7838667,77.4881814 25.8203938,77.525411 C25.8569209,77.5626406 25.8769366,77.6129986 25.8759336,77.6651452 L25.8759336,79.2074689 C25.8759336,79.3100219 25.855626,79.4115598 25.8161826,79.5062241 C25.7760319,79.5972415 25.7204407,79.6806283 25.6518672,79.7526971 C25.5802598,79.8271755 25.4919247,79.8835051 25.3941909,79.9170124 C25.3023712,79.9571716 25.2031194,79.977531 25.1029046,79.9767635 L24.1319502,79.9767635 C24.0304575,79.978292 23.9298292,79.9579116 23.8369295,79.9170124 C23.7472899,79.8783842 23.6660911,79.82256 23.5979253,79.7526971 C23.4572039,79.6059831 23.378312,79.4107593 23.3775934,79.2074689 L23.3775934,77.6763485 C23.3775742,77.5684794 23.4639342,77.4804585 23.5717842,77.4784232 L23.5717842,77.4784232 C23.6239405,77.4784136 23.6739082,77.4993848 23.7104353,77.5366143 C23.7469624,77.5738439 23.7669781,77.624202 23.7659751,77.6763485 L23.7659751,79.2186722 C23.7654012,79.3179347 23.8043702,79.4133415 23.8742739,79.4838174 C23.9423062,79.5532824 24.0347486,79.5934748 24.1319502,79.5958506 L25.1178423,79.5958506 C25.2157768,79.596941 25.3095213,79.5561825 25.3755187,79.4838174 C25.4454223,79.4133415 25.4843913,79.3179347 25.4838174,79.2186722 L25.4838174,77.6763485 C25.4828144,77.624202 25.5028301,77.5738439 25.5393572,77.5366143 C25.5758844,77.4993848 25.6258521,77.4784136 25.6780083,77.4784232 L25.6817427,77.4672199 Z" id="Path"></path>
                    <path d="M27.0485477,77.4672199 C27.1055828,77.4628008 27.1617404,77.4832752 27.2025476,77.5233665 C27.2433548,77.5634577 27.2648198,77.6192441 27.2614108,77.6763485 L27.2614108,79.3008299 C27.259596,79.3765437 27.2893597,79.4496002 27.3435685,79.5024896 C27.3933914,79.5539705 27.4623978,79.5823849 27.5340249,79.5809129 L28.6058091,79.5809129 C28.7157216,79.5829486 28.8037533,79.6726412 28.8037344,79.7825726 L28.8037344,79.7825726 C28.8037533,79.892504 28.7157216,79.9821966 28.6058091,79.9842324 L27.5153527,79.9842324 C27.4270118,79.9793478 27.340599,79.9564738 27.2614108,79.9170124 C27.1813139,79.8817198 27.1089755,79.830956 27.0485477,79.7676349 C26.9820897,79.7031175 26.9277065,79.627234 26.8879668,79.5435685 C26.8530637,79.459548 26.8352888,79.369404 26.8356846,79.2784232 L26.8356846,77.6763485 C26.8356658,77.5664172 26.9236974,77.4767246 27.03361,77.4746888 L27.0485477,77.4672199 Z" id="Path"></path>
                    <path d="M15.7593361,77.8742739 C15.725321,77.7953075 15.6772367,77.723181 15.6174274,77.6614108 C15.5562852,77.6025716 15.4855634,77.5545818 15.4082988,77.5195021 C15.3254675,77.484989 15.2366218,77.4672199 15.146888,77.4672199 L13.653112,77.4672199 L13.653112,79.7825726 C13.653112,79.8898213 13.7400542,79.9767635 13.8473029,79.9767635 C13.8994495,79.9777665 13.9498075,79.9577508 13.9870371,79.9212237 C14.0242667,79.8846965 14.0452379,79.8347288 14.0452282,79.7825726 L14.0452282,78.9087137 L15.1356846,78.9087137 C15.2255927,78.9105706 15.3148176,78.8927256 15.3970954,78.8564315 C15.4751942,78.8228566 15.5461721,78.7746931 15.6062241,78.7145228 C15.6650633,78.6533807 15.7130531,78.5826589 15.7481328,78.5053942 C15.7826395,78.4238697 15.8004186,78.3362444 15.8004149,78.2477178 L15.8004149,78.1319502 C15.8042856,78.0441641 15.790311,77.9565049 15.7593361,77.8742739 L15.7593361,77.8742739 Z M15.4195021,78.2477178 C15.4209741,78.3193449 15.3925597,78.3883514 15.3410788,78.4381743 C15.290754,78.4916093 15.2202821,78.5214243 15.146888,78.520332 L14.0564315,78.520332 L14.0564315,77.8556017 L15.146888,77.8556017 C15.219478,77.8548447 15.289372,77.8830711 15.3410788,77.9340249 C15.3933381,77.9864001 15.421706,78.0579952 15.4195021,78.1319502 L15.4195021,78.2477178 Z" id="Shape" fill-rule="nonzero"></path>
                    <path d="M22.3506224,77.8742739 C22.3166073,77.7953075 22.268523,77.723181 22.2087137,77.6614108 C22.1475715,77.6025716 22.0768497,77.5545818 21.9995851,77.5195021 C21.9167538,77.484989 21.8279081,77.4672199 21.7381743,77.4672199 L20.2443983,77.4672199 L20.2443983,79.7825726 C20.2443983,79.8898213 20.3313406,79.9767635 20.4385892,79.9767635 C20.4907358,79.9777665 20.5410938,79.9577508 20.5783234,79.9212237 C20.615553,79.8846965 20.6365242,79.8347288 20.6365145,79.7825726 L20.6365145,78.9087137 L21.726971,78.9087137 C21.816879,78.9105706 21.9061039,78.8927256 21.9883817,78.8564315 C22.0664805,78.8228566 22.1374584,78.7746931 22.1975104,78.7145228 C22.2563496,78.6533807 22.3043394,78.5826589 22.3394191,78.5053942 C22.3739258,78.4238697 22.3917049,78.3362444 22.3917012,78.2477178 L22.3917012,78.1319502 C22.3955719,78.0441641 22.3815973,77.9565049 22.3506224,77.8742739 L22.3506224,77.8742739 Z M22.0107884,78.2477178 C22.0122604,78.3193449 21.983846,78.3883514 21.9323651,78.4381743 C21.8820403,78.4916093 21.8115684,78.5214243 21.7381743,78.520332 L20.6477178,78.520332 L20.6477178,77.8556017 L21.7381743,77.8556017 C21.8107643,77.8548447 21.8806583,77.8830711 21.9323651,77.9340249 C21.9846245,77.9864001 22.0129923,78.0579952 22.0107884,78.1319502 L22.0107884,78.2477178 Z" id="Shape" fill-rule="nonzero"></path>
                    <path d="M29.6813278,77.2282158 C29.6815708,77.1660574 29.7072033,77.1066978 29.7522822,77.0639004 C29.7940533,77.020023 29.852291,76.9956444 29.9128631,76.9966805 C29.9707505,76.9980972 30.0257535,77.0222448 30.0659751,77.0639004 C30.11005,77.1070806 30.1343682,77.166525 30.133195,77.2282158 C30.1351028,77.2878692 30.1104881,77.3453034 30.0659751,77.3850622 C30.0245207,77.4243933 29.9699859,77.4470052 29.9128631,77.4485477 C29.853079,77.4492789 29.7954039,77.4264771 29.7522822,77.3850622 C29.7068048,77.3456921 29.6808713,77.2883654 29.6813278,77.2282158 Z" id="Path"></path>
                    <path d="M34.7004149,78.9348548 L34.7004149,78.9348548 L36.1941909,78.3224066 L36.220332,78.3224066 L36.220332,78.3 C36.136034,78.0684867 35.9916814,77.8635575 35.8020747,77.7062241 C35.6103067,77.5501853 35.3696035,77.466865 35.1224066,77.4709544 C34.9540541,77.4697285 34.7873424,77.5040889 34.633195,77.5717842 C34.4937919,77.6386202 34.3673514,77.7296573 34.259751,77.8406639 C34.1466846,77.9579088 34.0556103,78.0945202 33.9908714,78.2439834 C33.9261938,78.3989435 33.8931805,78.56528 33.8937759,78.733195 C33.8913351,78.9000763 33.9244332,79.0655667 33.9908714,79.2186722 C34.0530791,79.3663891 34.143093,79.500776 34.2560166,79.6145228 C34.3704407,79.7283692 34.5062378,79.8184775 34.6556017,79.879668 C34.8098509,79.9470432 34.9764938,79.9813895 35.1448133,79.9804979 C35.3096247,79.9814401 35.4731111,79.951024 35.626556,79.8908714 C35.7636145,79.8412017 35.8902465,79.7664888 36,79.6705394 C35.9376705,79.6108468 35.8547672,79.577418 35.7684647,79.5771784 C35.7151179,79.5767165 35.6624962,79.589551 35.6153527,79.6145228 L35.533195,79.6518672 C35.4143895,79.6991582 35.2876221,79.723244 35.159751,79.7228216 C34.9601275,79.7261964 34.7643856,79.6674738 34.5995851,79.5547718 C34.4460663,79.4505854 34.32453,79.3057762 34.2485477,79.1365145 C34.2243391,79.0735111 34.2055978,79.0085411 34.1925311,78.9423237 C34.190737,78.9124751 34.190737,78.8825457 34.1925311,78.8526971 C34.1886961,78.8104603 34.1886961,78.7679629 34.1925311,78.7257261 C34.1916105,78.5974454 34.2170314,78.4703411 34.2672199,78.3522822 C34.3168739,78.2347474 34.3892067,78.1281517 34.480083,78.0385892 C34.5704921,77.9477787 34.6768231,77.8743597 34.7937759,77.8219917 C34.911784,77.771215 35.0387551,77.7445511 35.1672199,77.7435685 C35.3361752,77.7407393 35.501859,77.790314 35.6414938,77.8854772 C35.76967,77.9763587 35.8725059,78.0984764 35.940249,78.240249 L34.8460581,78.6883817 C34.7915435,78.6973771 34.7438118,78.7300538 34.7157036,78.7776216 C34.6875954,78.8251893 34.6819972,78.8827631 34.7004149,78.9348548 Z" id="Path"></path>
                    <path d="M29.9128631,77.7248963 C29.8682145,77.7303298 29.8230718,77.7303298 29.7784232,77.7248963 L29.7784232,79.9954357 C29.920734,79.9954357 30.0360996,79.8800701 30.0360996,79.7377593 L30.0360996,77.7248963 C29.9951984,77.7302989 29.9537643,77.7302989 29.9128631,77.7248963 Z" id="Path"></path>
                    <path d="M32.8817427,75.0921162 C32.6973451,75.1704852 32.5336989,75.2906629 32.4037344,75.4431535 C32.2597892,75.6069489 32.1516683,75.7990225 32.0863071,76.0070539 C32.0077326,76.2570512 31.9699045,76.5180649 31.9742739,76.780083 L31.9742739,77.7062241 L31.0145228,77.7062241 L31.0145228,77.9639004 L31.9742739,77.9639004 L31.9742739,83.2780083 C32.0444395,83.2776036 32.1115838,83.249403 32.1609959,83.1995851 C32.2087785,83.1491374 32.2354944,83.0823477 32.2356846,83.0128631 L32.2356846,77.9639004 L33.1954357,77.9639004 L33.1954357,77.7062241 L32.2356846,77.7062241 L32.2356846,76.7576763 C32.2333966,76.5409697 32.2661854,76.3253204 32.3327801,76.1190871 C32.3896853,75.9446074 32.4769131,75.7815294 32.5904564,75.6373444 C32.6972202,75.5053696 32.8325784,75.3993815 32.9863071,75.3273859 C33.0691794,75.2871163 33.1571112,75.2582244 33.2477178,75.2414938 C33.3830674,75.2164738 33.4817055,75.0990475 33.4829876,74.9614108 C33.2764694,74.9694696 33.0729678,75.0137091 32.8817427,75.0921162 L32.8817427,75.0921162 Z" id="Path"></path>
                    <rect id="Rectangle" x="21.540249" y="34.9580913" width="6.81161826" height="6.38589212"></rect>
                    <rect id="Rectangle" x="34.3120332" y="34.9580913" width="6.81161826" height="6.38589212"></rect>
                    <rect id="Rectangle" x="8.76473029" y="34.9580913" width="6.81161826" height="6.38589212"></rect>
                    <rect id="Rectangle" x="21.540249" y="22.1825726" width="6.81161826" height="6.38589212"></rect>
                    <rect id="Rectangle" x="34.3120332" y="22.1825726" width="6.81161826" height="6.38589212"></rect>
                    <rect id="Rectangle" x="8.76473029" y="22.1825726" width="6.81161826" height="6.38589212"></rect>
                    <rect id="Rectangle" x="21.540249" y="9.40705394" width="6.81161826" height="6.38589212"></rect>
                    <rect id="Rectangle" x="34.3120332" y="9.40705394" width="6.81161826" height="6.38589212"></rect>
                    <rect id="Rectangle" x="8.76473029" y="9.40705394" width="6.81161826" height="6.38589212"></rect>
                </g>
            </g>
        </g>
    </g>
</svg>