<?xml version="1.0" encoding="UTF-8"?>
<svg width="136px" height="40px" viewBox="0 0 136 40" version="1.1" xmlns="http://www.w3.org/2000/svg" xmlns:xlink="http://www.w3.org/1999/xlink">
    <!-- Generator: Sketch 55.2 (78181) - https://sketchapp.com -->
    <title>google-play</title>
    <desc>Created with Sketch.</desc>
    <defs>
        <linearGradient x1="107.895871%" y1="49.6168067%" x2="-131.062837%" y2="49.6168067%" id="linearGradient-1">
            <stop stop-color="#FFE000" offset="0%"></stop>
            <stop stop-color="#FFBD00" offset="41%"></stop>
            <stop stop-color="#FFA500" offset="78%"></stop>
            <stop stop-color="#FF9C00" offset="100%"></stop>
        </linearGradient>
        <linearGradient x1="61.0655228%" y1="5.12550725%" x2="26.6981588%" y2="72.0182609%" id="linearGradient-2">
            <stop stop-color="#00A0FF" offset="0%"></stop>
            <stop stop-color="#00A1FF" offset="1%"></stop>
            <stop stop-color="#00BEFF" offset="26%"></stop>
            <stop stop-color="#00D2FF" offset="51%"></stop>
            <stop stop-color="#00DFFF" offset="76%"></stop>
            <stop stop-color="#00E3FF" offset="100%"></stop>
        </linearGradient>
        <linearGradient x1="86.2482609%" y1="31.0139331%" x2="-49.8169565%" y2="135.574508%" id="linearGradient-3">
            <stop stop-color="#FF3A44" offset="0%"></stop>
            <stop stop-color="#C31162" offset="100%"></stop>
        </linearGradient>
        <linearGradient x1="-18.5713043%" y1="-11.5345482%" x2="42.1917391%" y2="35.1495371%" id="linearGradient-4">
            <stop stop-color="#32A071" offset="0%"></stop>
            <stop stop-color="#2DA771" offset="7%"></stop>
            <stop stop-color="#15CF74" offset="48%"></stop>
            <stop stop-color="#06E775" offset="80%"></stop>
            <stop stop-color="#00F076" offset="100%"></stop>
        </linearGradient>
    </defs>
    <g id="Page-1" stroke="none" stroke-width="1" fill="none" fill-rule="evenodd">
        <g id="Populife---Smart-Keybox---Mobile" transform="translate(-189.000000, -4040.000000)" fill-rule="nonzero">
            <g id="Group-7" transform="translate(50.000000, 4040.000000)">
                <g id="google-play" transform="translate(139.000000, 0.000000)">
                    <path d="M5.01818182,0 L130.036364,0 C132.8,0 135.054545,2.25454545 135.054545,5.01818182 L135.054545,34.9818182 C135.054545,37.7454545 132.8,40 130.036364,40 L5.01818182,40 C2.25454545,40 0,37.7454545 0,34.9818182 L0,5.01818182 C0,2.25454545 2.25454545,0 5.01818182,0 Z" id="Shape" fill="#000000"></path>
                    <path d="M130.036364,0.8 C132.363636,0.8 134.254545,2.69090909 134.254545,5.01818182 L134.254545,34.9818182 C134.254545,37.3090909 132.363636,39.2 130.036364,39.2 L5.01818182,39.2 C2.69090909,39.2 0.8,37.3090909 0.8,34.9818182 L0.8,5.01818182 C0.8,2.69090909 2.69090909,0.8 5.01818182,0.8 L130.036364,0.8 L130.036364,0.8 Z M130.036364,0 L5.01818182,0 C2.25454545,0 0,2.25454545 0,5.01818182 L0,34.9818182 C0,37.7454545 2.25454545,40 5.01818182,40 L130.036364,40 C132.8,40 135.054545,37.7454545 135.054545,34.9818182 L135.054545,5.01818182 C134.981818,2.25454545 132.727273,0 130.036364,0 Z" id="Shape" fill="#A6A6A6"></path>
                    <g id="Group" transform="translate(40.727273, 6.545455)" fill="#FFFFFF">
                        <path d="M3.70909091,6.61818182 C4.50909091,6.61818182 5.30909091,6.32727273 5.89090909,5.74545455 C6.4,5.23636364 6.69090909,4.50909091 6.61818182,3.78181818 C6.61818182,3.63636364 6.61818182,3.49090909 6.54545455,3.34545455 L3.63636364,3.34545455 L3.63636364,4.07272727 L5.81818182,4.07272727 C5.81818182,4.50909091 5.6,4.94545455 5.30909091,5.30909091 C4.87272727,5.74545455 4.29090909,5.96363636 3.63636364,5.96363636 C2.32727273,5.96363636 1.30909091,4.87272727 1.30909091,3.56363636 C1.30909091,3.56363636 1.30909091,3.49090909 1.30909091,3.49090909 C1.30909091,2.18181818 2.32727273,1.16363636 3.63636364,1.16363636 C4.29090909,1.16363636 4.87272727,1.38181818 5.30909091,1.89090909 L5.81818182,1.38181818 C5.52727273,1.09090909 5.23636364,0.872727273 4.87272727,0.727272727 C4.50909091,0.581818182 4.07272727,0.509090909 3.63636364,0.509090909 C3.63636364,0.509090909 3.56363636,0.509090909 3.56363636,0.509090909 C1.89090909,0.509090909 0.509090909,1.96363636 0.509090909,3.63636364 C0.509090909,3.63636364 0.509090909,3.70909091 0.509090909,3.70909091 C0.654545455,5.23636364 2.03636364,6.61818182 3.70909091,6.61818182 Z" id="Shape"></path>
                        <polygon id="Shape" points="11.2727273 5.74545455 8.58181818 5.74545455 8.58181818 3.78181818 11.0545455 3.78181818 11.0545455 3.12727273 8.58181818 3.12727273 8.58181818 1.16363636 11.2727273 1.16363636 11.2727273 0.436363636 7.78181818 0.436363636 7.78181818 6.47272727 11.2727273 6.47272727"></polygon>
                        <polygon id="Shape" points="14.5454545 6.47272727 14.5454545 1.16363636 16.2181818 1.16363636 16.2181818 0.436363636 12.0727273 0.436363636 12.0727273 1.16363636 13.7454545 1.16363636 13.7454545 6.47272727"></polygon>
                        <polygon id="Rectangle-path" points="19.2 0.436363636 20 0.436363636 20 6.4 19.2 6.4"></polygon>
                        <polygon id="Shape" points="23.4181818 6.47272727 23.4181818 1.16363636 25.0909091 1.16363636 25.0909091 0.436363636 20.9454545 0.436363636 20.9454545 1.16363636 22.6181818 1.16363636 22.6181818 6.47272727"></polygon>
                        <path d="M32.8727273,5.67272727 C33.4545455,5.09090909 33.7454545,4.29090909 33.7454545,3.41818182 C33.7454545,2.61818182 33.4545455,1.81818182 32.8727273,1.16363636 C32.8727273,1.16363636 32.8727273,1.16363636 32.8727273,1.16363636 C31.6363636,-0.0727272727 29.6727273,1.66533454e-15 28.5090909,1.16363636 C27.9272727,1.74545455 27.6363636,2.54545455 27.6363636,3.41818182 C27.6363636,4.21818182 27.9272727,5.01818182 28.5090909,5.67272727 C29.6727273,6.90909091 31.6363636,6.90909091 32.8727273,5.67272727 Z M29.0181818,1.74545455 C29.8909091,0.872727273 31.3454545,0.872727273 32.2909091,1.74545455 C32.7272727,2.18181818 32.9454545,2.83636364 32.9454545,3.49090909 C32.9454545,4.14545455 32.7272727,4.72727273 32.2909091,5.23636364 C31.4181818,6.10909091 29.9636364,6.10909091 29.0181818,5.23636364 L29.0181818,5.23636364 C28.5818182,4.8 28.3636364,4.14545455 28.3636364,3.49090909 C28.3636364,2.83636364 28.5818182,2.18181818 29.0181818,1.74545455 Z" id="Shape"></path>
                        <polygon id="Shape" points="35.6363636 2.69090909 35.5636364 1.6 35.6363636 1.6 38.6909091 6.47272727 39.4909091 6.47272727 39.4909091 0.436363636 38.6909091 0.436363636 38.6909091 4 38.7636364 5.09090909 38.6909091 5.09090909 35.7818182 0.436363636 34.8363636 0.436363636 34.8363636 6.47272727 35.6363636 6.47272727"></polygon>
                        <path d="M6.98181818,16.5090909 L6.98181818,18.3272727 L11.2727273,18.3272727 C11.2,19.2 10.8363636,20 10.3272727,20.5818182 C9.45454545,21.4545455 8.21818182,21.9636364 6.98181818,21.8909091 C4.36363636,21.8909091 2.18181818,19.7090909 2.18181818,17.0909091 C2.18181818,14.4727273 4.36363636,12.2909091 6.98181818,12.2909091 C8.21818182,12.2909091 9.38181818,12.7272727 10.2545455,13.6 L11.5636364,12.3636364 C10.3272727,11.2 8.72727273,10.5454545 7.05454545,10.5454545 C3.41818182,10.4 0.363636364,13.2363636 0.218181818,16.9454545 C0.0727272727,20.5818182 2.90909091,23.6363636 6.61818182,23.7818182 C6.76363636,23.7818182 6.90909091,23.7818182 7.05454545,23.7818182 C8.8,23.8545455 10.4727273,23.2 11.6363636,21.9636364 C12.8727273,20.7272727 13.1636364,19.1272727 13.1636364,17.7454545 C13.1636364,17.3818182 13.1636364,17.0181818 13.0909091,16.5818182 L6.98181818,16.5090909 Z" id="Shape"></path>
                        <path d="M72.6545455,15.2 C71.2727273,15.2 69.8909091,15.7818182 69.3090909,17.0909091 L70.9818182,17.8181818 C71.3454545,17.2363636 72,16.8727273 72.6545455,16.8727273 C73.6,16.8727273 74.6181818,17.4545455 74.6181818,18.4727273 L74.6181818,18.6181818 C74.0363636,18.3272727 73.3818182,18.1090909 72.6545455,18.1090909 C70.8363636,18.1090909 69.0909091,19.0545455 69.0909091,20.8727273 C69.0909091,22.5454545 70.5454545,23.6363636 72.2181818,23.6363636 C73.1636364,23.7090909 74.1090909,23.2727273 74.6181818,22.4 L74.6909091,22.4 L74.6909091,23.4181818 L76.5090909,23.4181818 L76.5090909,18.6181818 C76.4363636,16.4363636 74.7636364,15.2 72.6545455,15.2 Z M72.4363636,22.0363636 C71.8545455,22.0363636 70.9818182,21.7454545 70.9818182,20.9454545 C70.9818182,20 72.0727273,19.6363636 72.9454545,19.6363636 C73.5272727,19.6363636 74.1090909,19.7818182 74.6181818,20 C74.5454545,21.1636364 73.6,22.0363636 72.4363636,22.0363636 Z" id="Shape"></path>
                        <polygon id="Shape" points="82.9818182 15.4909091 80.8727273 20.8727273 80.8 20.8727273 78.6181818 15.4909091 76.5818182 15.4909091 79.9272727 23.0545455 78.0363636 27.2727273 80 27.2727273 85.0909091 15.4909091"></polygon>
                        <path d="M27.5636364,15.2 C27.4909091,15.2 27.4909091,15.2 27.4181818,15.2 C25.0909091,15.2 23.2,17.0909091 23.2,19.4909091 C23.2,21.8181818 25.0909091,23.7090909 27.4909091,23.7090909 C29.8181818,23.7090909 31.7090909,21.8181818 31.7090909,19.4181818 C31.7090909,17.1636364 29.8181818,15.2727273 27.5636364,15.2 Z M27.4909091,22.0363636 C27.4181818,22.0363636 27.4181818,22.0363636 27.4909091,22.0363636 C26.0363636,22.1090909 24.8,21.0909091 24.6545455,19.6363636 C24.5818182,18.1818182 25.6,16.9454545 27.0545455,16.8727273 C28.5090909,16.8 29.7454545,17.8181818 29.8181818,19.2727273 C29.8181818,19.3454545 29.8181818,19.4181818 29.8181818,19.4181818 C29.8909091,20.8 28.8,21.9636364 27.4909091,22.0363636 Z" id="Shape"></path>
                        <path d="M52.2909091,17.8909091 C51.9272727,16.9454545 50.8363636,15.2 48.6545455,15.2 C46.4727273,15.2 44.6545455,16.9454545 44.6545455,19.4181818 C44.5818182,21.7454545 46.4,23.6363636 48.7272727,23.6363636 C48.8,23.6363636 48.8,23.6363636 48.8727273,23.6363636 C50.3272727,23.6363636 51.6363636,22.9090909 52.4363636,21.7454545 L50.9818182,20.8 C50.5454545,21.5272727 49.7454545,21.9636364 48.8727273,21.9636364 C48,21.9636364 47.2,21.4545455 46.8363636,20.6545455 L52.5090909,18.3272727 L52.2909091,17.8909091 Z M46.5454545,19.3454545 C46.4727273,18.0363636 47.4181818,16.9454545 48.7272727,16.8727273 C48.7272727,16.8727273 48.7272727,16.8727273 48.8,16.8727273 C49.4545455,16.8 50.1090909,17.1636364 50.4,17.7454545 L46.5454545,19.3454545 Z" id="Shape"></path>
                        <polygon id="Shape" points="66.1818182 23.4909091 68.0727273 23.4909091 68.0727273 10.9818182 66.1818182 10.9818182"></polygon>
                        <path d="M38.8363636,16.1454545 L38.8363636,16.1454545 C38.1818182,15.4909091 37.3818182,15.2 36.5090909,15.2 C34.1818182,15.2727273 32.3636364,17.3090909 32.4363636,19.6363636 C32.5090909,21.8181818 34.3272727,23.6363636 36.5090909,23.7090909 C37.3818182,23.7090909 38.1818182,23.3454545 38.7636364,22.7636364 L38.8363636,22.7636364 L38.8363636,23.3454545 C38.8363636,24.9454545 37.9636364,25.8181818 36.5818182,25.8181818 C35.6363636,25.8181818 34.7636364,25.1636364 34.4727273,24.2909091 L32.8727273,24.9454545 C33.5272727,26.4727273 34.9818182,27.4909091 36.6545455,27.4909091 C38.8363636,27.4909091 40.7272727,26.1818182 40.7272727,23.0545455 L40.7272727,15.4909091 L38.9818182,15.4909091 L38.9818182,16.1454545 L38.8363636,16.1454545 Z M36.7272727,22.0363636 C35.3454545,21.9636364 34.3272727,20.8727273 34.3272727,19.4909091 C34.3272727,19.4909091 34.3272727,19.4909091 34.3272727,19.4181818 C34.3272727,17.8909091 35.4181818,16.8 36.7272727,16.8 C38.0363636,16.8 38.9818182,17.8909091 38.9818182,19.4181818 C38.9818182,20.9454545 37.9636364,22.0363636 36.7272727,22.0363636 Z" id="Shape"></path>
                        <polygon id="Rectangle-path" points="41.8909091 10.9818182 43.7818182 10.9818182 43.7818182 23.4909091 41.8909091 23.4909091"></polygon>
                        <path d="M61.0909091,10.9818182 L56.6545455,10.9818182 L56.6545455,23.4909091 L58.5454545,23.4909091 L58.5454545,18.7636364 L61.1636364,18.7636364 C63.2,18.7636364 65.2363636,17.2363636 65.2363636,14.9090909 C65.1636364,12.4363636 63.1272727,10.9818182 61.0909091,10.9818182 Z M61.3090909,16.9454545 C61.2363636,16.9454545 61.1636364,16.9454545 61.0909091,16.9454545 L58.4727273,16.9454545 L58.4727273,12.6545455 L61.0909091,12.6545455 C62.2545455,12.5818182 63.2727273,13.5272727 63.3454545,14.6909091 C63.4181818,15.9272727 62.4727273,16.9454545 61.3090909,16.9454545 Z" id="Shape"></path>
                        <path d="M18.2545455,15.2 C18.1818182,15.2 18.1818182,15.2 18.1090909,15.2 C15.7818182,15.2 13.8909091,17.0909091 13.8909091,19.4909091 C13.8909091,21.8181818 15.7818182,23.7090909 18.1818182,23.7090909 C20.5090909,23.7090909 22.4,21.8181818 22.4,19.4181818 C22.4,17.1636364 20.5090909,15.2727273 18.2545455,15.2 Z M18.1818182,22.0363636 C18.1090909,22.0363636 18.1090909,22.0363636 18.1818182,22.0363636 C16.7272727,22.1090909 15.4909091,21.0909091 15.3454545,19.6363636 C15.2727273,18.1818182 16.2909091,16.9454545 17.7454545,16.8727273 C19.2,16.8 20.4363636,17.8181818 20.5090909,19.2727273 C20.5090909,19.3454545 20.5090909,19.4181818 20.5090909,19.4181818 C20.5818182,20.8 19.4909091,21.9636364 18.1818182,22.0363636 Z" id="Shape"></path>
                    </g>
                    <path d="M27.0545455,24.1454545 L12.5090909,32.4363636 C11.7090909,32.8727273 10.9818182,32.8727273 10.4727273,32.4363636 L10.4727273,32.4363636 L10.4,32.5090909 L10.4,32.5090909 L10.4727273,32.5818182 L10.4727273,32.5818182 C10.9090909,32.9454545 11.6363636,33.0181818 12.5090909,32.5818182 L27.1272727,24.2909091 L27.0545455,24.1454545 Z" id="Shape" fill="#000000" opacity="0.2"></path>
                    <path d="M10.4,32.2909091 C10.0363636,31.9272727 9.89090909,31.4181818 9.96363636,30.9090909 L9.96363636,31.0545455 C9.96363636,31.5636364 10.1090909,32.0727273 10.4,32.4363636 L10.4,32.2909091 L10.4,32.2909091 Z" id="Shape" fill="#000000" opacity="0.12"></path>
                    <path d="M32,21.3090909 L27.0545455,24.1454545 L27.1272727,24.2181818 L32,21.3818182 C32.7272727,20.9454545 33.0181818,20.4363636 33.0181818,19.9272727 L33.0181818,19.9272727 C32.9454545,20.5818182 32.5090909,21.0909091 32,21.3090909 Z" id="Shape" fill="#000000" opacity="0.12"></path>
                    <g id="Group" transform="translate(9.454545, 6.545455)">
                        <g id="Shape">
                            <path d="M17.6,17.7454545 L13.4545455,13.6 L13.4545455,13.3090909 L17.6,9.16363636 L17.6727273,9.23636364 L22.5454545,12.0727273 C23.9272727,12.8727273 23.9272727,14.1818182 22.5454545,14.9818182 L17.6727273,17.8181818 L17.6,17.7454545 Z" fill="url(#linearGradient-1)"></path>
                            <g>
                                <path d="M0.945454545,1.01818182 C0.581818182,1.38181818 0.436363636,1.89090909 0.509090909,2.4 L0.509090909,24.5090909 C0.509090909,25.0181818 0.654545455,25.5272727 0.945454545,25.8909091 L1.01818182,25.9636364 L13.3818182,13.5272727 L13.3818182,13.2363636 L1.01818182,0.872727273 L0.945454545,1.01818182 Z" fill="url(#linearGradient-2)"></path>
                                <path d="M17.6727273,17.6727273 L13.4545455,13.4545455 L0.945454545,25.8909091 C1.38181818,26.4 2.18181818,26.4727273 3.05454545,25.9636364 L17.6727273,17.6727273" fill="url(#linearGradient-3)"></path>
                                <path d="M17.6727273,9.23636364 L3.05454545,0.945454545 C2.18181818,0.436363636 1.45454545,0.509090909 0.945454545,1.01818182 L13.3818182,13.4545455 L17.6727273,9.23636364 Z" fill="url(#linearGradient-4)"></path>
                            </g>
                        </g>
                        <path d="M3.05454545,1.09090909 L22.5454545,12.1454545 C23.0545455,12.3636364 23.4909091,12.8727273 23.6363636,13.4545455 L23.6363636,13.4545455 C23.6363636,12.9454545 23.2727273,12.4363636 22.6181818,12 L3.05454545,0.945454545 C1.67272727,0.145454545 0.509090909,0.8 0.509090909,2.4 L0.509090909,2.54545455 C0.509090909,0.945454545 1.67272727,0.290909091 3.05454545,1.09090909 Z" id="Shape" fill="#FFFFFF" opacity="0.25"></path>
                    </g>
                </g>
            </g>
        </g>
    </g>
</svg>