<?xml version="1.0" encoding="UTF-8"?>
<svg width="59px" height="59px" viewBox="0 0 59 59" version="1.1" xmlns="http://www.w3.org/2000/svg" xmlns:xlink="http://www.w3.org/1999/xlink">
    <!-- Generator: Sketch 55.2 (78181) - https://sketchapp.com -->
    <title>padlock-icon-3</title>
    <desc>Created with Sketch.</desc>
    <defs>
        <polygon id="path-1" points="0 0.240162162 58.1398416 0.240162162 58.1398416 58.3776059 0 58.3776059"></polygon>
        <polygon id="path-3" points="0 58.7601622 58.14 58.7601622 58.14 0.621783784 0 0.621783784"></polygon>
    </defs>
    <g id="Page-1" stroke="none" stroke-width="1" fill="none" fill-rule="evenodd">
        <g id="Populife---Smart-Keybox" transform="translate(-795.000000, -951.000000)">
            <g id="padlock-icon-3" transform="translate(795.000000, 951.000000)">
                <g id="Group-3" transform="translate(21.000000, 19.000000)" fill="#1F1D1E">
                    <path d="M8.3027027,2.50337838 C5.35621622,6.30932432 2.29945946,11.2504054 2.29945946,13.4995946 C2.29945946,16.8109459 4.99135135,19.5028378 8.3027027,19.5028378 C11.6124324,19.5028378 14.3043243,16.8109459 14.3043243,13.4995946 C14.3043243,11.2504054 11.2475676,6.30932432 8.3027027,2.50337838 M8.3027027,21.8022973 C3.72486486,21.8022973 -3.89022148e-13,18.0774324 -3.89022148e-13,13.4995946 C-3.89022148e-13,9.61743243 5.20540541,2.71581081 6.80108108,0.692027027 C7.52918919,-0.230675676 9.07621622,-0.230675676 9.8027027,0.692027027 C11.3983784,2.71581081 16.6037838,9.61743243 16.6037838,13.4995946 C16.6037838,18.0774324 12.8789189,21.8022973 8.3027027,21.8022973" id="Fill-1"></path>
                    <path d="M9.35902703,17.0378108 C9.06875676,17.0378108 8.83362162,16.7297027 8.83362162,16.3486216 C8.83362162,15.9691622 9.06875676,15.6610541 9.35902703,15.6610541 C10.3401081,15.6610541 11.1411892,14.6134865 11.1411892,13.3259189 C11.1411892,12.9464595 11.3763243,12.6367297 11.6665946,12.6367297 C11.9568649,12.6367297 12.1903784,12.9464595 12.1903784,13.3259189 C12.1903784,15.3724054 10.9206486,17.0378108 9.35902703,17.0378108" id="Fill-3"></path>
                </g>
                <g id="Group-7">
                    <mask id="mask-2" fill="white">
                        <use xlink:href="#path-1"></use>
                    </mask>
                    <g id="Clip-6"></g>
                    <path d="M29.0609189,55.9071892 L28.7171351,55.9039459 C14.2230811,55.7255676 2.44686486,43.7644865 2.47276802,29.2412432 C2.49389189,14.610973 14.4338919,2.70989189 29.0868649,2.70989189 C36.1976757,2.70989189 42.8787568,5.47962162 47.8928108,10.5066486 C52.9101081,15.5352973 55.6701081,22.2293514 55.6668677,29.3596216 C55.662,43.998 43.7268649,55.9071892 29.0609189,55.9071892 M29.0852432,0.240162162 C13.0376757,0.240162162 0.0274054054,13.2261081 -0.00020132611,29.238 C-0.0261081081,45.2498919 12.8430811,58.1790811 28.6879459,58.3752973 C45.0111892,58.578 58.1333514,45.4055676 58.1398416,29.3612432 C58.1479459,13.2552973 45.1587568,0.240162162 29.0852432,0.240162162" id="Fill-5" fill="#1F1D1E" mask="url(#mask-2)"></path>
                </g>
                <mask id="mask-4" fill="white">
                    <use xlink:href="#path-3"></use>
                </mask>
                <g id="Clip-9"></g>
            </g>
        </g>
    </g>
</svg>