<?xml version="1.0" encoding="UTF-8"?>
<svg width="59px" height="59px" viewBox="0 0 59 59" version="1.1" xmlns="http://www.w3.org/2000/svg" xmlns:xlink="http://www.w3.org/1999/xlink">
    <!-- Generator: Sketch 55.2 (78181) - https://sketchapp.com -->
    <title>deadbolt-icon-7</title>
    <desc>Created with Sketch.</desc>
    <defs>
        <polygon id="path-1" points="0 0.240324324 58.1398416 0.240324324 58.1398416 58.377768 0 58.377768"></polygon>
    </defs>
    <g id="Page-1" stroke="none" stroke-width="1" fill="none" fill-rule="evenodd">
        <g id="Populife---Smart-Keybox" transform="translate(-622.000000, -1091.000000)">
            <g id="deadbolt-icon-7" transform="translate(622.000000, 1090.000000)">
                <path d="M38.3265405,40.4244324 C38.2632973,40.5768649 38.1141081,40.6774054 37.9503243,40.6774054 L20.2114054,40.6774054 C20.046,40.6774054 19.8968108,40.5784865 19.8335676,40.4244324 C19.7703243,40.2703784 19.8043784,40.0952432 19.9211351,39.9784865 C22.1622162,37.739027 23.3962703,34.7601081 23.3962703,31.5930811 L23.3962703,29.2303784 C23.3962703,26.0957838 25.9454595,23.544973 29.0800541,23.544973 C32.213027,23.544973 34.7654595,26.0957838 34.7654595,29.2303784 L34.7654595,31.5930811 C34.7654595,34.7601081 35.9978919,37.739027 38.2373514,39.9784865 C38.3557297,40.0952432 38.3897838,40.2703784 38.3265405,40.4244324 M29.0800541,44.7071351 C28.146,44.7071351 27.3870811,43.9465946 27.3870811,43.0125405 L30.7746486,43.0125405 C30.7746486,43.9465946 30.0141081,44.7071351 29.0800541,44.7071351 M37.1005946,31.5930811 L37.1005946,29.2303784 C37.1005946,25.4714595 34.5157297,22.3174054 31.026,21.4482162 L31.026,19.0465946 C31.026,17.9714595 30.1551892,17.1006486 29.0800541,17.1006486 C28.0049189,17.1006486 27.1341081,17.9714595 27.1341081,19.0465946 L27.1341081,21.4482162 C23.6443784,22.3174054 21.0595135,25.4714595 21.0595135,29.2303784 L21.0595135,31.5930811 C21.0595135,34.1179459 20.0557297,36.5406486 18.2703243,38.3276757 C17.4838378,39.1109189 17.2503243,40.2914595 17.6751892,41.3179459 C18.1000541,42.3444324 19.1022162,43.0125405 20.2114054,43.0125405 L25.0503243,43.0125405 C25.0503243,45.239027 26.8551892,47.0422703 29.0800541,47.0422703 C31.3049189,47.0422703 33.1097838,45.239027 33.1097838,43.0125405 L37.9503243,43.0125405 C39.0595135,43.0125405 40.0600541,42.3444324 40.4849189,41.3179459 C40.9097838,40.2914595 40.6746486,39.1109189 39.8897838,38.3276757 C38.1027568,36.5406486 37.1005946,34.1179459 37.1005946,31.5930811" id="Fill-1" fill="#1F1D1E"></path>
                <path d="M17.9675676,31.3036216 C18.5772973,31.0960541 18.9048649,30.4311892 18.6956757,29.8214595 C17.4064865,26.034973 19.4367568,21.9063243 23.2232432,20.6171351 C23.832973,20.4095676 24.1605405,19.7463243 23.9513514,19.134973 C23.7454054,18.5236216 23.0805405,18.1976757 22.4691892,18.4052432 C17.4648649,20.1111892 14.7794595,25.5695676 16.4854054,30.5738919 C16.6508108,31.0603784 17.1048649,31.3668649 17.5913514,31.3668649 C17.7162162,31.3668649 17.8427027,31.3457838 17.9675676,31.3036216" id="Fill-3" fill="#1F1D1E"></path>
                <path d="M21.3882162,16.6131892 C21.9995676,16.4056216 22.3255135,15.7423784 22.1163243,15.131027 C21.9087568,14.5196757 21.2455135,14.1937297 20.6341622,14.4029189 C13.4130811,16.8612973 9.53902703,24.7375135 11.999027,31.9602162 C12.1660541,32.4450811 12.6184865,32.7515676 13.104973,32.7515676 C13.2298378,32.7515676 13.3563243,32.7304865 13.4811892,32.6899459 C14.0925405,32.4807568 14.4184865,31.8175135 14.2092973,31.2077838 C12.1660541,25.2045405 15.3865946,18.6580541 21.3882162,16.6131892" id="Fill-5" fill="#1F1D1E"></path>
                <path d="M35.6628649,18.4058919 C35.0515135,18.1983243 34.3882703,18.5242703 34.1807027,19.1356216 C33.9731351,19.7453514 34.2990811,20.4085946 34.9088108,20.6177838 C38.6952973,21.906973 40.7255676,26.0356216 39.4363784,29.8221081 C39.2288108,30.4318378 39.5547568,31.0950811 40.1661081,31.3042703 C40.290973,31.3448108 40.4190811,31.3658919 40.5423243,31.3658919 C41.0288108,31.3658919 41.4828649,31.061027 41.6482703,30.5745405 C43.3525946,25.5685946 40.6688108,20.1102162 35.6628649,18.4058919" id="Fill-7" fill="#1F1D1E"></path>
                <path d="M45.4529189,21.3925946 C43.8215676,18.0763784 40.9967027,15.5936757 37.4988649,14.4017838 C36.8875135,14.1942162 36.2242703,14.5201622 36.0167027,15.1315135 C35.8091351,15.7412432 36.1350811,16.4061081 36.7448108,16.6136757 C39.6523784,17.6044865 42.0004865,19.6671892 43.3561622,22.4239459 C44.7118378,25.1790811 44.9129189,28.2990811 43.9237297,31.2066486 C43.7145405,31.818 44.0421081,32.4812432 44.6518378,32.6888108 C44.7767027,32.730973 44.9031892,32.7520541 45.0280541,32.7520541 C45.5145405,32.7520541 45.9685946,32.4455676 46.134,31.9607027 C47.3258919,28.4612432 47.0842703,24.7088108 45.4529189,21.3925946" id="Fill-9" fill="#1F1D1E"></path>
                <g id="Group-13" transform="translate(0.000000, 1.381784)">
                    <mask id="mask-2" fill="white">
                        <use xlink:href="#path-1"></use>
                    </mask>
                    <g id="Clip-12"></g>
                    <path d="M29.0609189,55.9073514 L28.7171351,55.9041081 C14.2230811,55.7257297 2.44686486,43.7646486 2.47276802,29.2397838 C2.49389189,14.6111351 14.4338919,2.71005405 29.0868649,2.71005405 C36.1976757,2.71005405 42.8787568,5.47978378 47.8928108,10.5068108 C52.9101081,15.5338378 55.6701081,22.2295135 55.6668677,29.3597838 C55.662,43.9981622 43.7268649,55.9073514 29.0609189,55.9073514 M29.0852432,0.240324324 C13.0376757,0.238702703 0.0274054054,13.2246486 -0.00020132611,29.2365405 C-0.0261081081,45.2484324 12.8430811,58.1792432 28.6879459,58.3754595 C45.0111892,58.5781622 58.1333514,45.4057297 58.1398416,29.3614054 C58.1479459,13.2554595 45.1587568,0.240324324 29.0852432,0.240324324" id="Fill-11" fill="#1F1D1E" mask="url(#mask-2)"></path>
                </g>
            </g>
        </g>
    </g>
</svg>