<?xml version="1.0" encoding="UTF-8"?>
<svg width="57px" height="58px" viewBox="0 0 57 58" version="1.1" xmlns="http://www.w3.org/2000/svg" xmlns:xlink="http://www.w3.org/1999/xlink">
    <!-- Generator: Sketch 55.2 (78181) - https://sketchapp.com -->
    <title>deadbolt-icon-8</title>
    <desc>Created with Sketch.</desc>
    <defs>
        <polygon id="path-1" points="0 0.233684211 56.6098458 0.233684211 56.6098458 56.8421053 0 56.8421053"></polygon>
    </defs>
    <g id="Page-1" stroke="none" stroke-width="1" fill="none" fill-rule="evenodd">
        <g id="Populife---Smart-Keybox" transform="translate(-775.000000, -1091.000000)">
            <g id="deadbolt-icon-8" transform="translate(775.000000, 1090.000000)">
                <path d="M16.4786842,23.0182105 C16.4786842,22.7924211 16.6602632,22.6092632 16.8876316,22.6092632 L41.6976316,22.6092632 C41.9234211,22.6092632 42.105,22.7924211 42.105,23.0182105 L42.105,36.7487368 C42.105,36.9729474 41.9234211,37.1576842 41.6976316,37.1576842 L16.8876316,37.1576842 C16.6602632,37.1576842 16.4786842,36.9729474 16.4786842,36.7487368 L16.4786842,23.0182105 Z M41.6976316,20.4903158 L16.8876316,20.4903158 C15.4934211,20.4903158 14.3597368,21.624 14.3597368,23.0182105 L14.3597368,24.2245263 L14.1702632,24.2245263 C13.2844737,24.2245263 13.035,24.9445263 13.035,25.8318947 L13.035,27.0650526 C13.035,27.9524211 13.2844737,28.674 14.1702632,28.674 L14.3597368,28.674 L14.3597368,31.0929474 L13.6397368,31.0929474 C12.6860526,31.0929474 12.3828947,31.8682105 12.3828947,32.8234737 L12.3828947,34.6124211 C12.3828947,35.5692632 12.6860526,36.3445263 13.6397368,36.3445263 L14.3597368,36.3445263 L14.3597368,36.7487368 C14.3597368,38.1429474 15.4934211,39.2750526 16.8876316,39.2750526 L41.6976316,39.2750526 C43.0902632,39.2750526 44.2255263,38.1429474 44.2255263,36.7487368 L44.2255263,23.0182105 C44.2255263,21.624 43.0902632,20.4903158 41.6976316,20.4903158 L41.6976316,20.4903158 Z" id="Fill-1" fill="#1F1D1E"></path>
                <g id="Group-5" transform="translate(0.000000, 1.345421)">
                    <mask id="mask-2" fill="white">
                        <use xlink:href="#path-1"></use>
                    </mask>
                    <g id="Clip-4"></g>
                    <path d="M28.2961579,54.4351579 L27.9614211,54.4335789 C13.8487895,54.2598947 2.38247368,42.6135789 2.40769518,28.4709474 C2.42826316,14.2272632 14.0540526,2.63936842 28.3214211,2.63936842 C35.2451053,2.63936842 41.7503684,5.33463158 46.6324737,10.2293684 C51.5177368,15.1256842 54.2051053,21.6451579 54.2019501,28.5862105 C54.1972105,42.8393684 42.5761579,54.4351579 28.2961579,54.4351579 M28.3198421,0.233052632 C12.6945789,0.233052632 0.0266842105,12.8772632 -0.000196028055,28.4677895 C-0.0254210526,44.0583158 12.5051053,56.6472632 27.933,56.8398947 C43.8266842,57.0356842 56.6035263,44.2098947 56.6098458,28.5877895 C56.6177368,12.9072632 43.9703684,0.233052632 28.3198421,0.233052632" id="Fill-3" fill="#1F1D1E" mask="url(#mask-2)"></path>
                </g>
                <path d="M25.2121579,30.1211053 C25.4963684,30.1211053 25.7411053,30.0484737 25.9463684,29.9016316 C26.1516316,29.7547895 26.3063684,29.5779474 26.4121579,29.3711053 L26.4121579,28.6447895 C26.4121579,28.0479474 26.2984737,27.5853158 26.0711053,27.2553158 C25.8437368,26.9253158 25.539,26.7611053 25.1568947,26.7611053 C24.8016316,26.7611053 24.5126842,26.9221579 24.2853158,27.2458421 C24.0579474,27.5679474 23.9426842,27.9753158 23.9426842,28.4616316 C23.9426842,28.9463684 24.0547895,29.3442632 24.2758421,29.6537368 C24.4984737,29.9647895 24.8095263,30.1211053 25.2121579,30.1211053 M26.3884737,30.7921579 C25.929,31.2421579 25.3921579,31.4695263 24.7795263,31.4695263 C23.9947895,31.4695263 23.3647895,31.1995263 22.8942632,30.6611053 C22.4221579,30.1211053 22.1868947,29.3963684 22.1868947,28.4805789 C22.1868947,27.8995263 22.3147895,27.3658421 22.569,26.8795263 C22.8216316,26.3947895 23.1768947,26.0158421 23.6316316,25.7458421 C24.0879474,25.4758421 24.5995263,25.3400526 25.1695263,25.3400526 C25.7537368,25.3400526 26.2747895,25.4868947 26.7295263,25.779 C27.1858421,26.0726842 27.5395263,26.4926842 27.7921579,27.0421579 C28.0432105,27.5900526 28.1711053,28.2184737 28.1758421,28.9258421 L28.1758421,29.5779474 C28.1758421,31.0574211 27.8079474,32.2211053 27.0705789,33.0658421 C26.3363684,33.9105789 25.2926842,34.3637368 23.9426842,34.4205789 L23.5100526,34.4268947 L23.5100526,32.9568947 L23.9000526,32.9505789 C25.4332105,32.8811053 26.2621579,32.1611053 26.3884737,30.7921579" id="Fill-6" fill="#1F1D1E"></path>
                <polygon id="Fill-8" fill="#1F1D1E" points="32.9017895 32.1394737 34.9133684 25.4621053 36.9502105 25.4621053 33.8586316 34.3405263 31.9496842 34.3405263 28.8691579 25.4621053 30.9012632 25.4621053"></polygon>
            </g>
        </g>
    </g>
</svg>