<?xml version="1.0" encoding="UTF-8"?>
<svg width="60px" height="60px" viewBox="0 0 60 60" version="1.1" xmlns="http://www.w3.org/2000/svg" xmlns:xlink="http://www.w3.org/1999/xlink">
    <!-- Generator: Sketch 55.2 (78181) - https://sketchapp.com -->
    <title>deadbolt-icon-3</title>
    <desc>Created with Sketch.</desc>
    <defs>
        <polygon id="path-1" points="0 59.7535 59.755 59.7535 59.755 0.000166666667 0 0.000166666667"></polygon>
    </defs>
    <g id="Page-1" stroke="none" stroke-width="1" fill="none" fill-rule="evenodd">
        <g id="Populife---Smart-Keybox" transform="translate(-675.000000, -950.000000)">
            <g id="deadbolt-icon-3" transform="translate(675.000000, 950.000000)">
                <path d="M32.148,11.6651667 L27.6046667,11.6651667 C27.1663333,11.6651667 26.8113333,12.0201667 26.8113333,12.4585 C26.8113333,12.8951667 27.1663333,13.2518333 27.6046667,13.2518333 L32.148,13.2518333 C32.5863333,13.2518333 32.9413333,12.8951667 32.9413333,12.4585 C32.9413333,12.0201667 32.5863333,11.6651667 32.148,11.6651667" id="Fill-1" fill="#1F1D1E"></path>
                <path d="M30.1208333,35.1246667 L30.1208333,33.6446667 L30.9908333,34.3913333 L30.1208333,35.1246667 Z M30.1208333,30.1813333 L30.9858333,30.903 L30.1208333,31.618 L30.1208333,30.1813333 Z M31.9758333,33.9613333 L30.3825,32.608 L31.9625,31.308 C32.0891667,31.2046667 32.1608333,31.053 32.1608333,30.8896667 C32.1641667,30.7296667 32.0941667,30.5763333 31.9691667,30.473 L30.0608333,28.893 C29.9625,28.813 29.8425,28.7696667 29.7158333,28.768 C29.6358333,28.768 29.5591667,28.7863333 29.4891667,28.8213333 C29.2958333,28.908 29.1725,29.0996667 29.1725,29.3096667 L29.1725,31.588 L28.3558333,30.8896667 C28.2608333,30.808 28.1358333,30.768 28.0108333,30.778 C27.8858333,30.788 27.7691667,30.848 27.6875,30.9446667 L27.6875,30.9496667 C27.6058333,31.048 27.5658333,31.173 27.5775,31.2996667 C27.5891667,31.4263333 27.6508333,31.543 27.7475,31.623 L28.9408333,32.6196667 L27.7475,33.5796667 C27.5458333,33.748 27.5175,34.0463333 27.6825,34.248 C27.7741667,34.3563333 27.9091667,34.4196667 28.0508333,34.4213333 C28.1608333,34.4196667 28.2675,34.3796667 28.3508333,34.308 L29.1725,33.633 L29.1725,36.018 C29.1708333,36.2296667 29.2908333,36.423 29.4825,36.5146667 C29.5558333,36.5463333 29.6341667,36.561378 29.7158333,36.561378 C29.8425,36.563 29.9641667,36.518 30.0608333,36.4363333 L31.9691667,34.7913333 C32.0941667,34.6896667 32.1675,34.538 32.1658611,34.3796667 C32.1658611,34.2196667 32.0958333,34.0663333 31.9758333,33.9613333 L31.9758333,33.9613333 Z" id="Fill-3" fill="#1F1D1E"></path>
                <mask id="mask-2" fill="white">
                    <use xlink:href="#path-1"></use>
                </mask>
                <g id="Clip-6"></g>
                <path d="M24.015,37.5035 L35.655,37.5035 L35.655,27.7951667 L24.015,27.7951667 L24.015,37.5035 Z M31.6883333,26.2101667 L28.1116667,26.2101667 C28.3616667,25.2185 29.0416667,24.5101667 29.87,24.5101667 C30.7,24.5101667 31.4083333,25.2185 31.6883333,26.2101667 L31.6883333,26.2101667 Z M29.87,22.3035 C31.8733333,22.3035 33.5433333,23.9901667 33.8716667,26.2101667 L33.275,26.2101667 C32.96,24.3251667 31.5516667,22.8935 29.87,22.8935 C28.2066667,22.8935 26.7983333,24.3251667 26.465,26.2101667 L25.8683333,26.2101667 C26.1966667,23.9901667 27.8666667,22.3035 29.87,22.3035 L29.87,22.3035 Z M37.2233333,27.0018333 C37.225,26.7918333 37.1416667,26.5885 36.9933333,26.4401667 C36.8433333,26.2901667 36.6416667,26.2085 36.43,26.2101667 L35.4933333,26.2101667 C35.1416667,23.0968333 32.7616667,20.7118333 29.8883333,20.7118333 C27.0133333,20.7118333 24.635,23.1151667 24.2833333,26.2101667 L23.215,26.2101667 C22.7766667,26.2101667 22.4216667,26.5635 22.4216667,27.0018333 L22.4216667,38.3035 C22.425,38.7401667 22.7783333,39.0935 23.215,39.0951667 L36.43,39.0951667 C36.6433333,39.1001667 36.85,39.0201667 37.0016667,38.8701667 C37.155,38.7201667 37.24,38.5168333 37.24,38.3035 L37.2233333,27.0018333 Z" id="Fill-5" fill="#1F1D1E" mask="url(#mask-2)"></path>
                <path d="M41.081,13.716 L18.7426667,13.716 L18.7426667,12.851 C18.7426667,11.9326667 19.4876667,11.1876549 20.406,11.1876549 L39.411,11.1876549 C39.8543333,11.186 40.2793333,11.361 40.5926667,11.6726667 C40.906,11.9843333 41.081,12.4093333 41.081,12.851 L41.081,13.716 Z M41.076,46.9026667 C41.076,47.8193333 40.331,48.566 39.411,48.566 L20.406,48.566 C19.4876667,48.566 18.7426667,47.8193333 18.7426667,46.9026667 L18.7426667,45.756 L41.076,45.756 L41.076,46.9026667 Z M39.4893333,9.601 L20.3293333,9.601 C18.576,9.60433333 17.1576667,11.0276667 17.1576667,12.7793333 L17.1576667,18.881 C17.1576667,19.3176667 17.511,19.6743333 17.9493333,19.6743333 C18.3876667,19.6743333 18.7426667,19.3176667 18.7426667,18.881 L18.7426667,15.3026667 L41.081,15.3026667 L41.081,44.1893333 L18.736,44.1893333 L18.736,25.2076667 C18.736,24.7693333 18.381,24.4143333 17.9443333,24.4143333 C17.506,24.4143333 17.151,24.7693333 17.151,25.2076667 L17.151,46.9743333 C17.151,48.7276667 18.5743333,50.1526667 20.3293333,50.1526667 L39.4893333,50.1526667 C41.2443333,50.1526667 42.6676667,48.7276667 42.6676667,46.9743333 L42.6676667,12.7793333 C42.6676667,11.0243333 41.2443333,9.601 39.4893333,9.601 L39.4893333,9.601 Z" id="Fill-7" fill="#1F1D1E" mask="url(#mask-2)"></path>
                <path d="M29.8701667,47.9518333 C30.1418333,47.9568333 30.3951667,47.8235 30.5451667,47.5968333 C30.6968333,47.3701667 30.7201667,47.0835 30.6101667,46.8368333 C30.5318333,46.6401667 30.3785,46.4818333 30.1835,46.3985 C29.9885,46.3168333 29.7685,46.3151667 29.5718333,46.3951667 C29.3701667,46.4718333 29.2101667,46.6301667 29.1268333,46.8285 C29.0435,47.0268333 29.0451667,47.2518333 29.1318333,47.4501667 C29.2518333,47.7518333 29.5451667,47.9501667 29.8701667,47.9518333" id="Fill-8" fill="#1F1D1E" mask="url(#mask-2)"></path>
                <path d="M17.1268333,22.339 C16.9951667,21.939 17.1968333,21.5056667 17.5868333,21.349 C17.9768333,21.1923333 18.4218333,21.364 18.6051667,21.7423333 C18.6868333,21.939 18.6851667,22.159 18.6018333,22.354 C18.5185,22.549 18.3618333,22.7023333 18.1651667,22.7806667 C18.0718333,22.8173333 17.9718333,22.8373333 17.8718333,22.8406667 C17.5468333,22.839 17.2551667,22.6406667 17.1318333,22.339 L17.1268333,22.339 Z" id="Fill-9" fill="#1F1D1E" mask="url(#mask-2)"></path>
                <path d="M21.17,41.8035 L38.5833333,41.8035 L38.5833333,17.6051667 L21.17,17.6051667 L21.17,41.8035 Z M39.375,16.0118333 L20.37,16.0118333 C19.9316667,16.0151667 19.5783333,16.3718333 19.5783333,16.8101667 L19.5783333,42.5901667 C19.5783333,43.0301667 19.9316667,43.3868333 20.37,43.3901667 L39.375,43.3901667 C39.8166667,43.3901667 40.175,43.0318333 40.175,42.5901667 L40.175,16.8101667 C40.175,16.3701667 39.8166667,16.0118333 39.375,16.0118333 L39.375,16.0118333 Z" id="Fill-10" fill="#1F1D1E" mask="url(#mask-2)"></path>
                <path d="M29.8685,57.2128333 L29.5151667,57.2111667 C14.6168333,57.0278333 2.51516667,44.7345 2.540128,29.8061667 C2.5635,14.7711667 14.8351667,2.5395 29.8935,2.5395 C37.2035,2.5395 44.0701667,5.3845 49.2235,10.5511667 C54.3801667,15.7195 57.2168333,22.6011667 57.2135029,29.9278333 C57.2085,44.9728333 44.9418333,57.2128333 29.8685,57.2128333 M29.8935,-0.0005 C13.4001667,-0.0005 0.0285,13.3461667 0.000121236811,29.8028333 C-0.0281666667,46.2595 13.2001667,59.5478333 29.4851667,59.7511667 C46.2618333,59.9578333 59.7468333,46.4195 59.7551692,29.9295 C59.7618333,13.3778333 46.4135,-0.0005 29.8935,-0.0005" id="Fill-11" fill="#1F1D1E" mask="url(#mask-2)"></path>
            </g>
        </g>
    </g>
</svg>