<?xml version="1.0" encoding="UTF-8"?>
<svg width="59px" height="59px" viewBox="0 0 59 59" version="1.1" xmlns="http://www.w3.org/2000/svg" xmlns:xlink="http://www.w3.org/1999/xlink">
    <!-- Generator: Sketch 55.2 (78181) - https://sketchapp.com -->
    <title>deadbolt-icon-9</title>
    <desc>Created with Sketch.</desc>
    <defs>
        <polygon id="path-1" points="0 0.240162162 58.1398416 0.240162162 58.1398416 58.3776059 0 58.3776059"></polygon>
        <polygon id="path-3" points="0 59.7601622 58.14 59.7601622 58.14 1.62178378 0 1.62178378"></polygon>
    </defs>
    <g id="Page-1" stroke="none" stroke-width="1" fill="none" fill-rule="evenodd">
        <g id="Populife---Smart-Keybox" transform="translate(-926.000000, -1091.000000)">
            <g id="deadbolt-icon-9" transform="translate(926.000000, 1090.000000)">
                <path d="M29.0703243,15.7522703 C26.1238378,19.5582162 23.0670811,24.4992973 23.0670811,26.7484865 C23.0670811,30.0598378 25.758973,32.7517297 29.0703243,32.7517297 C32.3800541,32.7517297 35.0719459,30.0598378 35.0719459,26.7484865 C35.0719459,24.4992973 32.0151892,19.5582162 29.0703243,15.7522703 M29.0703243,35.0511892 C24.4924865,35.0511892 20.7676216,31.3263243 20.7676216,26.7484865 C20.7676216,22.8663243 25.973027,15.9647027 27.5687027,13.9409189 C28.2968108,13.0182162 29.8438378,13.0182162 30.5703243,13.9409189 C32.166,15.9647027 37.3714054,22.8663243 37.3714054,26.7484865 C37.3714054,31.3263243 33.6465405,35.0511892 29.0703243,35.0511892" id="Fill-1" fill="#1F1D1E"></path>
                <path d="M30.1266486,30.2867027 C29.8363784,30.2867027 29.6012432,29.9785946 29.6012432,29.5975135 C29.6012432,29.2180541 29.8363784,28.9099459 30.1266486,28.9099459 C31.1077297,28.9099459 31.9088108,27.8623784 31.9088108,26.5748108 C31.9088108,26.1953514 32.1439459,25.8856216 32.4342162,25.8856216 C32.7244865,25.8856216 32.958,26.1953514 32.958,26.5748108 C32.958,28.6212973 31.6882703,30.2867027 30.1266486,30.2867027" id="Fill-3" fill="#1F1D1E"></path>
                <g id="Group-7" transform="translate(0.000000, 1.381784)">
                    <mask id="mask-2" fill="white">
                        <use xlink:href="#path-1"></use>
                    </mask>
                    <g id="Clip-6"></g>
                    <path d="M29.0609189,55.9071892 L28.7171351,55.9039459 C14.2230811,55.7255676 2.44686486,43.7644865 2.47276802,29.2412432 C2.49389189,14.610973 14.4338919,2.70989189 29.0868649,2.70989189 C36.1976757,2.70989189 42.8787568,5.47962162 47.8928108,10.5066486 C52.9101081,15.5352973 55.6701081,22.2293514 55.6668677,29.3596216 C55.662,43.998 43.7268649,55.9071892 29.0609189,55.9071892 M29.0852432,0.240162162 C13.0376757,0.240162162 0.0274054054,13.2261081 -0.00020132611,29.238 C-0.0261081081,45.2498919 12.8430811,58.1790811 28.6879459,58.3752973 C45.0111892,58.578 58.1333514,45.4055676 58.1398416,29.3612432 C58.1479459,13.2552973 45.1587568,0.240162162 29.0852432,0.240162162" id="Fill-5" fill="#1F1D1E" mask="url(#mask-2)"></path>
                </g>
                <mask id="mask-4" fill="white">
                    <use xlink:href="#path-3"></use>
                </mask>
                <g id="Clip-9"></g>
                <polygon id="Fill-8" fill="#1F1D1E" mask="url(#mask-4)" points="16.4448649 48.0066486 18.3227027 48.0066486 18.3227027 38.8931351 16.4448649 38.8931351"></polygon>
                <path d="M21.9408649,43.2755676 L23.6176216,43.2755676 C24.1138378,43.2755676 24.4916757,43.1588108 24.7543784,42.9252973 C25.0154595,42.6934054 25.1451892,42.3577297 25.1451892,41.9231351 C25.1451892,41.4788108 25.0138378,41.1155676 24.7495135,40.8398919 C24.4868108,40.5642162 24.1235676,40.4231351 23.6614054,40.415027 L21.9408649,40.415027 L21.9408649,43.2755676 Z M21.9408649,44.795027 L21.9408649,48.0074595 L20.063027,48.0074595 L20.063027,38.8939459 L23.6176216,38.8939459 C24.3019459,38.8939459 24.9051892,39.0188108 25.4224865,39.2685405 C25.9446486,39.5198919 26.3419459,39.875027 26.6224865,40.3371892 C26.903027,40.7993514 27.0408649,41.3231351 27.0408649,41.9101622 C27.0408649,42.8052973 26.7343784,43.5090811 26.1246486,44.0247568 C25.5132973,44.5388108 24.6668108,44.795027 23.5851892,44.795027 L21.9408649,44.795027 Z" id="Fill-10" fill="#1F1D1E" mask="url(#mask-4)"></path>
                <path d="M31.2794595,43.368973 C30.9875676,43.368973 30.7232432,43.4451892 30.4864865,43.5976216 C30.2464865,43.7484324 30.072973,43.9495135 29.9610811,44.2008649 L29.9610811,44.7505946 C29.9610811,45.3538378 30.0778378,45.8257297 30.3145946,46.1646486 C30.552973,46.5051892 30.8886486,46.6738378 31.3167568,46.6738378 C31.7059459,46.6738378 32.0205405,46.5214054 32.2605405,46.2149189 C32.4989189,45.9084324 32.6189189,45.5127568 32.6189189,45.0246486 C32.6189189,44.5300541 32.4989189,44.1295135 32.2556757,43.8246486 C32.0156757,43.523027 31.6897297,43.368973 31.2794595,43.368973 L31.2794595,43.368973 Z M33.0437838,38.8008649 L33.0437838,40.2911351 L32.8686486,40.2911351 C32.052973,40.3008649 31.3945946,40.5149189 30.8967568,40.9284324 C30.3972973,41.3419459 30.0972973,41.916 29.9967568,42.6505946 C30.48,42.1576216 31.0913514,41.9111351 31.8308108,41.9111351 C32.6237838,41.9111351 33.2545946,42.1949189 33.72,42.7624865 C34.1886486,43.3316757 34.4205405,44.0776216 34.4205405,45.0035676 C34.4205405,45.5954595 34.2924324,46.1322162 34.0378378,46.6122162 C33.78,47.0905946 33.4167568,47.4651892 32.9481081,47.7311351 C32.4778378,47.9970811 31.9475676,48.1332973 31.3540541,48.1332973 C30.3956757,48.1332973 29.6221622,47.7976216 29.0302703,47.1311351 C28.44,46.463027 28.1432432,45.5711351 28.1432432,44.4587027 L28.1432432,43.8084324 C28.1432432,42.8176216 28.332973,41.9451892 28.7059459,41.1878919 C29.0789189,40.4305946 29.6140541,39.8435676 30.312973,39.4300541 C31.0118919,39.0132973 31.8227027,38.8057297 32.7437838,38.8008649 L33.0437838,38.8008649 Z" id="Fill-11" fill="#1F1D1E" mask="url(#mask-4)"></path>
                <path d="M35.7611351,43.5257838 L36.2865405,38.8944324 L41.3946486,38.8944324 L41.3946486,40.4025405 L37.7687027,40.4025405 L37.5432973,42.3614595 C37.973027,42.1328108 38.4319459,42.0160541 38.9151892,42.0160541 C39.7827568,42.0160541 40.4622162,42.2852432 40.9551892,42.8236216 C41.4497838,43.362 41.6946486,44.1160541 41.6946486,45.0841622 C41.6946486,45.6728108 41.5697838,46.1982162 41.3216757,46.6668649 C41.0735676,47.1306486 40.7184324,47.4906486 40.2546486,47.7484865 C39.7908649,48.0047027 39.2443784,48.1328108 38.6151892,48.1328108 C38.0638378,48.1328108 37.553027,48.0209189 37.0795135,47.7987568 C36.6092432,47.5733514 36.2362703,47.2603784 35.9638378,46.8565946 C35.6897838,46.4511892 35.5454595,45.9906486 35.5276216,45.4717297 L37.3178919,45.4717297 C37.3551892,45.8528108 37.4881622,46.1463243 37.7151892,46.3587568 C37.9438378,46.5695676 38.2422162,46.6733514 38.6070811,46.6733514 C39.018973,46.6733514 39.3335676,46.529027 39.5541081,46.2338919 C39.7746486,45.9387568 39.8849189,45.522 39.8849189,44.9836216 C39.8849189,44.4663243 39.7600541,44.0706486 39.5038378,43.794973 C39.2476216,43.5192973 38.8876216,43.3814595 38.4205946,43.3814595 C37.9908649,43.3814595 37.6438378,43.4933514 37.3746486,43.7203784 L37.2011351,43.8825405 L35.7611351,43.5257838 Z" id="Fill-12" fill="#1F1D1E" mask="url(#mask-4)"></path>
            </g>
        </g>
    </g>
</svg>