<?xml version="1.0" encoding="UTF-8"?>
<svg width="59px" height="59px" viewBox="0 0 59 59" version="1.1" xmlns="http://www.w3.org/2000/svg" xmlns:xlink="http://www.w3.org/1999/xlink">
    <!-- Generator: Sketch 55.2 (78181) - https://sketchapp.com -->
    <title>deadbolt-icon-2</title>
    <desc>Created with Sketch.</desc>
    <defs>
        <polygon id="path-1" points="0.00011796014 0.240324324 58.14 0.240324324 58.14 58.377768 0.00011796014 58.377768"></polygon>
    </defs>
    <g id="Page-1" stroke="none" stroke-width="1" fill="none" fill-rule="evenodd">
        <g id="Populife---Smart-Keybox" transform="translate(-525.000000, -951.000000)">
            <g id="deadbolt-icon-2" transform="translate(525.000000, 950.000000)">
                <path d="M21.9856216,18.4081622 C21.9856216,18.2670811 22.0975135,18.1535676 22.2353514,18.1535676 L35.9007568,18.1535676 C36.0402162,18.1535676 36.1537297,18.2670811 36.1537297,18.4081622 L36.1537297,45.1551892 C36.1537297,45.293027 36.0402162,45.4065405 35.9007568,45.4065405 L22.2353514,45.4065405 C22.0975135,45.4065405 21.9856216,45.293027 21.9856216,45.1551892 L21.9856216,18.4081622 Z M35.9007568,15.9741081 L32.8861622,15.9741081 L32.8861622,13.7946486 L25.2531892,13.7946486 L25.2531892,15.9741081 L22.2353514,15.9741081 C20.8942703,15.9741081 19.8029189,17.0654595 19.8029189,18.4081622 L19.8029189,45.1551892 C19.8029189,46.4962703 20.8942703,47.5876216 22.2353514,47.5876216 L35.9007568,47.5876216 C37.2434595,47.5876216 38.3364324,46.4962703 38.3364324,45.1551892 L38.3364324,18.4081622 C38.3364324,17.0654595 37.2434595,15.9741081 35.9007568,15.9741081 L35.9007568,15.9741081 Z" id="Fill-1" fill="#1F1D1E"></path>
                <path d="M27.4349189,39.8931892 C27.4235676,40.1185946 27.5451892,40.3358919 27.7511351,40.4396757 L28.1841081,40.631027 L28.4597838,40.284 L33.7868108,30.1456216 L31.2505946,30.1456216 L31.2505946,23.664 C31.2603243,23.4337297 31.1338378,23.2148108 30.9197838,23.1142703 L30.4949189,22.9407568 L30.2257297,23.2731892 L24.2743784,32.8699459 L27.4349189,32.8699459 L27.4349189,39.8931892 Z" id="Fill-3" fill="#1F1D1E"></path>
                <g id="Group-7" transform="translate(0.000000, 1.381784)">
                    <mask id="mask-2" fill="white">
                        <use xlink:href="#path-1"></use>
                    </mask>
                    <g id="Clip-6"></g>
                    <path d="M29.0612432,55.9073514 L28.7174595,55.9041081 C14.2217838,55.7257297 2.44718919,43.7646486 2.47147589,29.2397838 C2.49421622,14.6111351 14.4342162,2.71005405 29.0855676,2.71005405 C36.198,2.71005405 42.8790811,5.47978378 47.8931351,10.5068108 C52.9104324,15.5338378 55.6704324,22.2295135 55.667192,29.3597838 C55.6623243,43.9981622 43.7271892,55.9073514 29.0612432,55.9073514 M29.0855676,0.240324324 C13.038,0.238702703 0.0277297297,13.2246486 0.00011796014,29.2365405 C-0.0274054054,45.2484324 12.8434054,58.1792432 28.6882703,58.3754595 C45.0115135,58.5781622 58.1320541,45.4057297 58.1401646,29.3614054 C58.1466486,13.2554595 45.1590811,0.240324324 29.0855676,0.240324324" id="Fill-5" fill="#1F1D1E" mask="url(#mask-2)"></path>
                </g>
            </g>
        </g>
    </g>
</svg>