<?xml version="1.0" encoding="UTF-8"?>
<svg width="57px" height="58px" viewBox="0 0 57 58" version="1.1" xmlns="http://www.w3.org/2000/svg" xmlns:xlink="http://www.w3.org/1999/xlink">
    <!-- Generator: Sketch 55.2 (78181) - https://sketchapp.com -->
    <title>deadbolt-icon-1</title>
    <desc>Created with Sketch.</desc>
    <defs>
        <polygon id="path-1" points="0.000114855926 0.233684211 56.61 0.233684211 56.61 56.8421053 0.000114855926 56.8421053"></polygon>
    </defs>
    <g id="Page-1" stroke="none" stroke-width="1" fill="none" fill-rule="evenodd">
        <g id="Populife---Smart-Keybox" transform="translate(-374.000000, -951.000000)">
            <g id="deadbolt-icon-1" transform="translate(374.000000, 950.000000)">
                <g id="Group-3" transform="translate(0.000000, 1.345421)">
                    <mask id="mask-2" fill="white">
                        <use xlink:href="#path-1"></use>
                    </mask>
                    <g id="Clip-2"></g>
                    <path d="M28.2964737,54.4354737 L27.9617368,54.4338947 C13.8475263,54.2586316 2.38278947,42.6123158 2.40643705,28.4712632 C2.42857895,14.2275789 14.0543684,2.63968421 28.3201579,2.63968421 C35.2454211,2.63968421 41.7506842,5.33494737 46.6327895,10.2296842 C51.5180526,15.126 54.2054211,21.6454737 54.2022659,28.5865263 C54.1975263,42.8412632 42.5764737,54.4354737 28.2964737,54.4354737 M28.3201579,0.233368421 C12.6948947,0.233368421 0.027,12.8775789 0.000114855926,28.4681053 C-0.0266842105,44.0586316 12.5054211,56.6491579 27.9333158,56.8402105 C43.827,57.036 56.6022632,44.2117895 56.6101603,28.5881053 C56.6164737,12.9075789 43.9706842,0.233368421 28.3201579,0.233368421" id="Fill-1" fill="#1F1D1E" mask="url(#mask-2)"></path>
                </g>
                <path d="M41.6843684,32.22 L39.5859474,30.0615789 L37.3691053,32.2784211 L37.0580526,32.2784211 L34.9075263,30.0252632 L32.7206842,32.2942105 L32.4033158,32.2942105 L30.1864737,30.0773684 L28.0580526,32.2942105 L25.4054211,32.2942105 L25.1543684,32.8847368 C24.6522632,34.0942105 23.8201579,35.1363158 22.7527895,35.8926316 C21.7248947,36.6568421 20.4775263,37.0657895 19.1985789,37.0594737 C17.5091053,37.0957895 15.8748947,36.4547368 14.6606842,35.2784211 C13.4322632,34.1668421 12.7533158,32.5752632 12.7991053,30.9189474 C12.7517368,29.2405263 13.4338421,27.6236842 14.6685789,26.4852632 C15.8685789,25.29 17.5043684,24.6331579 19.1985789,24.6678947 C21.2085789,24.6678947 22.9375263,25.6215789 24.4154211,27.5794737 L24.7043684,27.9631579 L41.6322632,27.9852632 L43.9012105,30.0694737 L41.6843684,32.22 Z M42.3648947,26.0131579 L25.6422632,26.0131579 C24.2164737,24.1247368 22.047,22.9436842 19.6896316,22.7731579 C17.3306842,22.6026316 15.0127895,23.4568421 13.3312105,25.1178947 C11.727,26.6242105 10.8333158,28.7352632 10.8696316,30.9347368 C10.8301579,33.1215789 11.7285789,35.2215789 13.3375263,36.7057895 L13.3975263,36.75 C14.9701579,38.2136842 17.0496316,39.0094737 19.1985789,38.9652632 C20.8801579,38.9731579 22.5206842,38.4394737 23.8754211,37.4447368 C25.0517368,36.6031579 26.0085789,35.49 26.6622632,34.2 L28.8791053,34.2 L30.2227895,32.8042105 L31.6201579,34.2 L33.5922632,34.2 L34.9075263,32.8184211 L36.2006842,34.2 L38.1601579,34.2 L39.5638421,32.8042105 L40.9012105,34.2 L42.3791053,34.2 L46.6801579,29.9873684 L42.3648947,26.0131579 Z" id="Fill-4" fill="#1F1D1E"></path>
                <path d="M17.6685789,31.584 C17.4601579,31.8113684 17.1648947,31.9408421 16.8554211,31.9392774 C16.5491053,31.9392774 16.2554211,31.8145263 16.0422632,31.5918947 C15.8180526,31.3613684 15.6933158,31.0503158 15.6948947,30.7266316 C15.6791053,30.4092632 15.7912105,30.0982105 16.0059474,29.8629474 C16.2127895,29.6324211 16.5112105,29.5076842 16.8191053,29.5218947 C17.1412105,29.4997895 17.4554211,29.6276842 17.6685789,29.8708421 C18.1296316,30.3476842 18.1296316,31.1055789 17.6685789,31.584 M19.0359474,28.5555789 C18.4533158,27.9571579 17.6543684,27.6192632 16.8191053,27.6192632 C15.9838421,27.6192632 15.1848947,27.9571579 14.6022632,28.5555789 C13.4496316,29.7745263 13.4496316,31.6803158 14.6022632,32.8992632 C15.177,33.5103158 15.9791053,33.8576842 16.8191053,33.8576842 C17.6575263,33.8576842 18.4596316,33.5103158 19.0359474,32.8992632 C20.1885789,31.6803158 20.1885789,29.7745263 19.0359474,28.5555789" id="Fill-6" fill="#1F1D1E"></path>
                <path d="M9.18110526,9.05778947 C8.589,9.60094737 8.02373684,10.1677895 7.479,10.7583158 L47.4295263,50.7088421 C48.0216316,50.1656842 48.5868947,49.5972632 49.1300526,49.0067368 L9.18110526,9.05778947 Z" id="Fill-8" fill="#1F1D1E"></path>
            </g>
        </g>
    </g>
</svg>