<?xml version="1.0" encoding="UTF-8"?>
<svg width="59px" height="59px" viewBox="0 0 59 59" version="1.1" xmlns="http://www.w3.org/2000/svg" xmlns:xlink="http://www.w3.org/1999/xlink">
    <!-- Generator: Sketch 55.2 (78181) - https://sketchapp.com -->
    <title>deadbolt-icon-4</title>
    <desc>Created with Sketch.</desc>
    <defs>
        <polygon id="path-1" points="0.00011796014 0.240162162 58.14 0.240162162 58.14 58.3776059 0.00011796014 58.3776059"></polygon>
    </defs>
    <g id="Page-1" stroke="none" stroke-width="1" fill="none" fill-rule="evenodd">
        <g id="Populife---Smart-Keybox" transform="translate(-829.000000, -951.000000)">
            <g id="deadbolt-icon-4" transform="translate(829.000000, 950.000000)">
                <path d="M42.9463784,37.7202162 C42.9463784,39.6904865 42.0463784,41.5067027 40.4798919,42.7034595 C40.2074595,42.911027 40.0469189,43.2321081 40.0469189,43.5742703 L40.0469189,45.2915676 L33.3139459,45.2915676 L33.3139459,43.5742703 C33.3139459,43.2321081 33.1534054,42.911027 32.8825946,42.7034595 C31.3144865,41.5067027 30.4144865,39.6904865 30.4144865,37.7202162 L30.4144865,23.2618378 C30.4144865,22.8499459 30.7485405,22.5175135 31.1588108,22.5175135 C31.5690811,22.5175135 31.9031351,22.8499459 31.9031351,23.2618378 L31.9031351,33.7942703 C31.9031351,34.4007568 32.3944865,34.8904865 32.9993514,34.8904865 C33.6042162,34.8904865 34.0955676,34.4007568 34.0955676,33.7942703 L34.0955676,29.3672432 C34.0955676,28.956973 34.4296216,28.6229189 34.8398919,28.6229189 C35.2501622,28.6229189 35.5842162,28.956973 35.5842162,29.3672432 L35.5842162,33.8850811 C35.5842162,34.4915676 36.0755676,34.9812973 36.6804324,34.9812973 C37.2852973,34.9812973 37.7766486,34.4915676 37.7766486,33.8850811 L37.7766486,30.2656216 C37.7766486,29.8553514 38.1107027,29.5212973 38.520973,29.5212973 C38.9312432,29.5212973 39.2652973,29.8553514 39.2652973,30.2656216 L39.2652973,32.5991351 L39.2652973,33.7942703 C39.2652973,34.4007568 39.7566486,34.8904865 40.3615135,34.8904865 C40.9663784,34.8904865 41.4577297,34.4007568 41.4577297,33.7942703 L41.4577297,32.5991351 C41.4577297,32.1888649 41.7917838,31.8548108 42.2020541,31.8548108 C42.6123243,31.8548108 42.9463784,32.1888649 42.9463784,32.5991351 L42.9463784,37.7202162 Z M28.1539459,37.8272432 L26.9944865,35.2002162 C26.7301622,34.6018378 26.9636757,33.911027 27.5344865,33.5931892 L28.2220541,33.2104865 L28.2220541,37.7202162 C28.2220541,37.7785946 28.2252973,37.836973 28.2269189,37.8937297 L28.1539459,37.8272432 Z M42.2020541,29.6623784 C41.9296216,29.6623784 41.6652973,29.7012973 41.4155676,29.771027 C41.1788108,28.3861622 39.9723243,27.3304865 38.520973,27.3304865 C38.0507027,27.3304865 37.6063784,27.4407568 37.2123243,27.6385946 C36.6771892,26.9072432 35.8144865,26.4304865 34.8398919,26.4304865 C34.5836757,26.4304865 34.3323243,26.4645405 34.0955676,26.5261622 L34.0955676,23.2618378 C34.0955676,21.6418378 32.7771892,20.3234595 31.1588108,20.3234595 C29.5388108,20.3234595 28.2220541,21.6418378 28.2220541,23.2618378 L28.2220541,30.7067027 C28.1928649,30.7196757 28.1652973,30.7326486 28.1377297,30.7488649 L26.4674595,31.6764324 C24.9025946,32.5504865 24.2652973,34.4445405 24.9885405,36.0856216 L26.2404324,38.9250811 C26.3036757,39.0645405 26.3928649,39.191027 26.5063784,39.2948108 L29.2728649,41.8083243 C29.7447568,42.6629189 30.3642162,43.4364324 31.1215135,44.0964324 L31.1215135,46.3877838 C31.1215135,46.9926486 31.6128649,47.484 32.2177297,47.484 L41.1431351,47.484 C41.7496216,47.484 42.2393514,46.9926486 42.2393514,46.3877838 L42.2393514,44.0964324 C44.0896216,42.4861622 45.1388108,40.1931892 45.1388108,37.7202162 L45.1388108,32.5991351 C45.1388108,30.9807568 43.8220541,29.6623784 42.2020541,29.6623784 L42.2020541,29.6623784 Z" id="Fill-1" fill="#1F1D1E"></path>
                <path d="M31.2418378,14.7799459 C32.2342703,14.7799459 33.0385946,15.5842703 33.0385946,16.5767027 C33.0385946,17.5707568 32.2342703,18.3734595 31.2418378,18.3734595 C30.2494054,18.3734595 29.4450811,17.5707568 29.4450811,16.5767027 C29.4450811,15.5842703 30.2494054,14.7799459 31.2418378,14.7799459" id="Fill-3" fill="#1F1D1E"></path>
                <path d="M23.4608108,14.7799459 C24.4532432,14.7799459 25.2575676,15.5842703 25.2575676,16.5767027 C25.2575676,17.5707568 24.4532432,18.3734595 23.4608108,18.3734595 C22.4683784,18.3734595 21.6640541,17.5707568 21.6640541,16.5767027 C21.6640541,15.5842703 22.4683784,14.7799459 23.4608108,14.7799459" id="Fill-5" fill="#1F1D1E"></path>
                <path d="M23.4608108,20.766 C24.4532432,20.766 25.2575676,21.5703243 25.2575676,22.5611351 C25.2575676,23.5551892 24.4532432,24.3595135 23.4608108,24.3595135 C22.4683784,24.3595135 21.6640541,23.5551892 21.6640541,22.5611351 C21.6640541,21.5703243 22.4683784,20.766 23.4608108,20.766" id="Fill-7" fill="#1F1D1E"></path>
                <path d="M15.6796216,30.3436216 C14.6871892,30.3436216 13.8828649,29.5392973 13.8828649,28.5468649 C13.8828649,27.5544324 14.6871892,26.7501081 15.6796216,26.7501081 C16.6720541,26.7501081 17.4763784,27.5544324 17.4763784,28.5468649 C17.4763784,29.5392973 16.6720541,30.3436216 15.6796216,30.3436216" id="Fill-9" fill="#1F1D1E"></path>
                <path d="M15.6796216,24.3591892 C14.6871892,24.3591892 13.8828649,23.5548649 13.8828649,22.5624324 C13.8828649,21.57 14.6871892,20.7656757 15.6796216,20.7656757 C16.6720541,20.7656757 17.4763784,21.57 17.4763784,22.5624324 C17.4763784,23.5548649 16.6720541,24.3591892 15.6796216,24.3591892" id="Fill-11" fill="#1F1D1E"></path>
                <path d="M15.6796216,18.3731351 C14.6871892,18.3731351 13.8828649,17.5704324 13.8828649,16.578 C13.8828649,15.5839459 14.6871892,14.7796216 15.6796216,14.7796216 C16.6720541,14.7796216 17.4763784,15.5839459 17.4763784,16.578 C17.4763784,17.5704324 16.6720541,18.3731351 15.6796216,18.3731351" id="Fill-13" fill="#1F1D1E"></path>
                <path d="M21.6642162,28.5462162 C21.6642162,27.5554054 22.4685405,26.7510811 23.460973,26.7510811 C24.4534054,26.7510811 25.2577297,27.5554054 25.2577297,28.5462162 C25.2577297,29.5386486 24.4534054,30.342973 23.460973,30.342973 C22.4685405,30.342973 21.6642162,29.5386486 21.6642162,28.5462162" id="Fill-15" fill="#1F1D1E"></path>
                <g id="Group-19" transform="translate(0.000000, 1.381784)">
                    <mask id="mask-2" fill="white">
                        <use xlink:href="#path-1"></use>
                    </mask>
                    <g id="Clip-18"></g>
                    <path d="M29.0612432,55.9071892 L28.7174595,55.9039459 C14.2217838,55.7255676 2.44718919,43.7644865 2.47147589,29.2412432 C2.49421622,14.610973 14.4342162,2.70989189 29.0855676,2.70989189 C36.198,2.70989189 42.8790811,5.47962162 47.8931351,10.5066486 C52.9104324,15.5352973 55.6704324,22.2293514 55.667192,29.3596216 C55.6623243,43.998 43.7271892,55.9071892 29.0612432,55.9071892 M29.0855676,0.240162162 C13.038,0.240162162 0.0277297297,13.2261081 0.00011796014,29.238 C-0.0274054054,45.2498919 12.8434054,58.1790811 28.6882703,58.3752973 C45.0115135,58.578 58.1320541,45.4055676 58.1401646,29.3612432 C58.1466486,13.2552973 45.1590811,0.240162162 29.0855676,0.240162162" id="Fill-17" fill="#1F1D1E" mask="url(#mask-2)"></path>
                </g>
            </g>
        </g>
    </g>
</svg>