<?xml version="1.0" encoding="UTF-8"?>
<svg width="57px" height="58px" viewBox="0 0 57 58" version="1.1" xmlns="http://www.w3.org/2000/svg" xmlns:xlink="http://www.w3.org/1999/xlink">
    <!-- Generator: Sketch 55.2 (78181) - https://sketchapp.com -->
    <title>deadbolt-icon-6</title>
    <desc>Created with Sketch.</desc>
    <defs>
        <polygon id="path-1" points="0 0.233684211 56.6098458 0.233684211 56.6098458 56.8421053 0 56.8421053"></polygon>
    </defs>
    <g id="Page-1" stroke="none" stroke-width="1" fill="none" fill-rule="evenodd">
        <g id="Populife---Smart-Keybox" transform="translate(-470.000000, -1091.000000)">
            <g id="deadbolt-icon-6" transform="translate(470.000000, 1090.000000)">
                <path d="M28.3053158,16.0588421 L27.9816316,16.0667368 C24.6974211,16.2356842 22.1268947,18.9988421 22.1268947,22.3556842 L22.1268947,43.7235789 L34.5042632,43.7046316 L34.4821579,32.2556842 C34.4821579,28.8909474 31.749,26.1325263 28.3842632,26.1072632 C27.2458421,26.0962105 26.2953158,25.6825263 25.5895263,24.9388421 C24.8774211,24.1856842 24.5158421,23.1988421 24.5726842,22.1583158 C24.6721579,20.2525263 26.2495263,18.702 28.1632105,18.6309474 C29.7453158,18.5741053 31.239,19.5498947 31.8042632,21.0641053 L34.3905789,21.0498947 C33.7795263,18.1367368 31.2326842,16.0588421 28.3053158,16.0588421 M34.5042632,45.8046316 L22.1063684,45.8046316 C20.9616316,45.8046316 20.0268947,44.8714737 20.0268947,43.7235789 L20.0268947,22.3556842 C20.0268947,17.8809474 23.4721579,14.1972632 27.8711053,13.9714737 C31.8753158,13.7772632 35.6126842,16.6067368 36.4163684,20.5872632 C36.4479474,20.6914737 36.4747895,20.8809474 36.4747895,21.0704211 C36.4747895,22.2167368 35.5416316,23.1498947 34.3937368,23.1498947 L31.7868947,23.1498947 C30.9232105,23.1498947 30.1400526,22.6051579 29.8368947,21.7967368 C29.5905789,21.1304211 28.9321579,20.7088421 28.2405789,20.7277895 C27.4037368,20.7593684 26.7121579,21.4367368 26.6679474,22.272 C26.6411053,22.7314737 26.799,23.1656842 27.1132105,23.4941053 C27.4211053,23.8225263 27.8395263,24.0041053 28.2879474,24.0072632 C32.9111053,24.0435789 36.5821579,27.7430526 36.5821579,32.2556842 L36.5821579,43.7235789 C36.5821579,44.8714737 35.6474211,45.8046316 34.5042632,45.8046316" id="Fill-1" fill="#1F1D1E"></path>
                <g id="Group-5" transform="translate(0.000000, 1.345421)">
                    <mask id="mask-2" fill="white">
                        <use xlink:href="#path-1"></use>
                    </mask>
                    <g id="Clip-4"></g>
                    <path d="M28.2961579,54.4354737 L27.9614211,54.4338947 C13.8487895,54.2586316 2.38247368,42.6123158 2.40769518,28.4712632 C2.42826316,14.2275789 14.0540526,2.63968421 28.3214211,2.63968421 C35.2451053,2.63968421 41.7503684,5.33494737 46.6324737,10.2296842 C51.5177368,15.126 54.2051053,21.6454737 54.2019501,28.5865263 C54.1972105,42.8412632 42.5761579,54.4354737 28.2961579,54.4354737 M28.3198421,0.233368421 C12.6945789,0.233368421 0.0266842105,12.8775789 -0.000196028055,28.4681053 C-0.0254210526,44.0586316 12.5051053,56.6491579 27.933,56.8402105 C43.8266842,57.036 56.6035263,44.2117895 56.6098458,28.5881053 C56.6177368,12.9075789 43.9703684,0.233368421 28.3198421,0.233368421" id="Fill-3" fill="#1F1D1E" mask="url(#mask-2)"></path>
                </g>
            </g>
        </g>
    </g>
</svg>