<?xml version="1.0" standalone="no"?><!DOCTYPE svg PUBLIC "-//W3C//DTD SVG 1.1//EN" "http://www.w3.org/Graphics/SVG/1.1/DTD/svg11.dtd"><svg class="icon" width="32px" height="32.00px" viewBox="0 0 1024 1024" version="1.1" xmlns="http://www.w3.org/2000/svg"><path d="M116.224 414.208a409.6 409.6 0 1 1 297.984 493.568 407.04 407.04 0 0 1-297.984-493.568" fill="#F7F8F8" /><path d="M889.344 358.4H573.44v60.928h335.872a422.912 422.912 0 0 0-19.968-60.928m-80.896-126.464H573.44V294.4h283.648a409.6 409.6 0 0 0-48.64-62.464M217.6 795.136h589.312a455.68 455.68 0 0 0 51.2-62.464H168.448a388.608 388.608 0 0 0 51.2 62.464m390.144-678.912c-11.776-3.072-24.064-5.632-36.352-7.68v60.928h160.256a389.632 389.632 0 0 0-123.904-51.2m307.2 365.568H573.44v62.464h345.088a364.032 364.032 0 0 0 0-62.464M135.68 669.184h752.64a366.592 366.592 0 0 0 19.456-59.392v-3.072H115.2a371.712 371.712 0 0 0 20.48 62.464m278.528 238.592A391.68 391.68 0 0 0 486.4 921.6h51.2a400.384 400.384 0 0 0 192-62.464H293.376a403.968 403.968 0 0 0 120.832 51.2" fill="#E72D14" /><path d="M542.208 521.216l-8.704-6.144-8.704 6.144 3.072-10.24-8.704-6.144h10.752l3.584-10.752 3.584 10.752h10.752l-8.704 6.144zM499.2 192.512l3.072 12.288-8.704-6.656-8.704 6.656 3.072-10.752-8.704-6.144h10.752l3.584-10.752 3.584 10.752h10.752z m0 94.208l3.072 10.24-8.704-6.656-8.704 6.656 3.072-10.24-8.704-6.656h10.752l3.584-10.24 3.584 10.24h10.752z m0 91.648l3.584 10.752-9.216-6.656-8.704 6.656 3.584-10.752-9.216-6.144h11.264l3.072-10.24 3.584 10.24h9.728z m0 102.4l-8.704-6.144-8.704 6.144 3.072-10.24-7.168-9.728h10.752l3.584-10.24 3.072 10.24h11.264l-9.216 6.656zM457.216 238.08l3.584 10.24-8.704-6.144-9.216 6.144 3.584-10.24-8.704-6.144h10.752l3.584-10.752 3.072 10.752h11.264z m0 91.136l3.584 10.24-8.704-6.144-9.216 6.144 3.584-10.24-8.704-6.656h10.752l3.584-10.24 3.072 10.24h11.264z m0 93.184l3.584 10.24-8.704-6.656-9.216 6.656 3.584-10.24-8.704-6.656h10.752l3.584-10.24 3.072 10.24h11.264z m3.584 98.816l-8.704-6.144-9.216 6.144 3.584-10.24-8.704-6.144h10.752l3.584-10.752 3.072 10.752h11.264L457.216 512z m-43.52-328.704l3.584 12.288-8.704-6.656-9.216 6.656 3.584-10.752-8.704-6.144H409.6l3.584-10.752 3.072 10.752h11.264z m0 94.208l3.584 10.24-8.704-6.656-9.216 6.656 3.584-10.24-8.704-6.656H409.6l3.584-10.24 3.072 10.24h11.264z m0 91.648l3.072 10.752-10.752-6.656-8.704 6.656 3.072-10.752-8.704-6.144H409.6v-10.24l3.584 10.24h10.752z m0 102.4l-7.68-7.168-9.216 6.144 3.584-10.24-7.68-8.704H409.6v-8.192l3.072 10.24h10.752l-8.704 6.656z m-43.52-332.8l3.584 10.752-7.168-5.12-8.704 6.656 3.584-10.752-6.656-8.704h10.752l3.072-10.24 3.584 10.24h10.752z m0 91.136l3.584 10.24-9.216-6.144-8.704 6.144 3.584-10.24-4.608-7.168h10.752l3.072-10.752 3.584 10.752h10.752z m0 91.136l3.584 10.24-9.216-6.144-8.704 6.144 3.584-10.24-4.608-7.68h10.752l3.072-10.24 3.584 10.24h10.752z m0 93.184l3.584 10.24-9.216-6.656-8.704 6.656 3.584-10.24-4.608-7.68h10.752l3.072-10.24 3.584 10.24h10.752z m3.584 98.816l-9.216-6.144-8.704 6.144 3.584-10.24-4.608-7.168h10.752l3.072-10.752 3.584 10.752h10.752L375.808 512z m-41.472-332.8l3.584 10.24-9.216-6.144-8.704 6.144 3.584-10.24-9.216-6.656h11.264l3.072-10.24 3.584 10.24h10.752z m0 93.696l3.584 10.24-9.216-6.144-8.704 6.144 3.584-10.24-9.216-6.144h11.264l3.072-10.24 3.584 10.24h10.752z m0 92.16l3.584 10.24-8.704-6.144-9.216 6.144 3.584-10.24-9.728-6.656h10.752l3.584-10.24 3.072 10.24h11.264z m0 102.4l-8.704-6.656-8.704 6.656 3.584-10.24-7.68-6.656h11.264l3.072-10.24 3.584 10.24h10.752l-8.704 6.656zM294.4 238.08l3.072 10.24-8.704-6.144-8.704 6.144 3.584-10.24-9.216-6.144h11.264l3.072-10.752 3.584 10.752h10.752z m0 91.136l3.072 10.24-8.704-6.144-8.704 6.144 3.584-10.24-9.216-6.656h11.264l3.072-10.24 3.584 10.24h10.752z m0 93.184l3.072 10.24-8.704-6.656-8.704 6.656 3.584-10.24-9.216-6.656h11.264l3.072-10.24 3.584 10.24h10.752z m3.072 98.816l-8.704-6.144-8.704 6.144 3.584-10.24-9.216-6.144h11.264l3.072-10.752 3.584 10.752h10.752L294.4 512zM256 282.624l3.072 10.24-8.704-6.656-8.704 6.656 3.072-10.24-8.704-6.656h9.728l3.072-10.24 3.584 10.24h10.752z m0 91.648l3.584 10.24-8.704-6.144-9.216 6.144 3.584-10.24-8.704-6.144h10.752l1.024-9.728 3.072 10.752h10.752z m0 102.4l-8.704-6.144-8.704 6.144 3.072-10.24-8.704-5.632h10.752l3.584-10.24 3.584 10.24h10.752l-8.704 6.656zM448.512 140.8l3.584-10.24 3.072 10.24h11.264l-9.216 6.144 3.584 10.752-8.704-4.096-9.216 6.656 3.584-10.752-8.704-6.144z m81.408 274.944l3.584-10.24 3.584 10.24h10.752l-8.704 6.656 3.072 10.24-8.704-6.656-8.704 6.656 3.072-10.24-8.704-6.656z m0-93.184l3.584-10.24 3.584 10.24h10.752l-8.704 6.656 3.072 10.24-8.704-6.144-8.704 6.144 3.072-10.24-8.704-6.656z m0-90.624l3.584-10.752 3.584 10.752h10.752l-8.704 6.144 3.072 10.24-8.704-6.144-8.704 6.144 3.072-10.24-8.704-6.144z m0-91.136l3.584-10.24 3.584 10.24h10.752l-8.704 6.144 3.072 10.752-8.704-4.096-8.704 6.656 3.072-10.752-8.704-6.144zM212.992 329.216l3.072 10.24-8.704-6.144-8.704 6.144 3.072-10.24-8.704-6.656H204.8l3.584-10.24 3.072 10.24h11.264z m0 93.184l3.072 10.24-8.704-6.656-8.704 6.656 3.072-10.24-8.704-6.656H204.8l3.584-10.24 3.072 10.24h11.264z m3.072 98.816l-8.704-6.144-8.704 6.144 3.072-10.24-8.704-6.144H204.8l3.584-10.752 3.072 10.752h11.264L212.992 512z m-44.032-148.48l3.072 10.24-8.704-6.144-8.704 6.144 3.072-10.24-7.168-6.144h11.264l1.536-8.192 3.584 10.752h10.752z m2.56 102.4l-8.704-6.656-9.216 6.656 3.584-10.24-6.656-7.68h10.752l3.584-10.24 3.072 10.24h10.752l-8.704 6.656z m-39.936 47.104l-8.704-6.144-9.216 6.144L120.32 512l-8.704-6.144h10.752l3.584-10.752 3.072 10.752h10.752L131.072 512zM573.44 108.544l-37.888-6.144-74.752 4.608a409.6 409.6 0 0 0-204.8 87.04v4.608-2.56a318.464 318.464 0 0 0-38.4 35.84h6.144l-8.704 6.144 3.072 10.24-8.704-6.144-4.608 2.56c-8.192 9.216-15.872 19.456-23.552 29.696l-5.632 7.68v7.168l-5.12-3.072a401.408 401.408 0 0 0-54.272 128h6.656l3.584-10.24 3.072 10.24h10.752l-8.704 6.656 3.584 10.24-8.704-6.656-9.216 6.656 3.584-10.24-5.12-4.096a393.728 393.728 0 0 0-9.728 126.464H573.44z" fill="#073470" /></svg>