<?xml version="1.0" encoding="UTF-8"?>
<svg width="95px" height="32px" viewBox="0 0 95 32" version="1.1" xmlns="http://www.w3.org/2000/svg" xmlns:xlink="http://www.w3.org/1999/xlink">
    <!-- Generator: Sketch 55.2 (78181) - https://sketchapp.com -->
    <title>Populife_Logo_White</title>
    <desc>Created with Sketch.</desc>
    <g id="Page-1" stroke="none" stroke-width="1" fill="none" fill-rule="evenodd">
        <g id="Populife---Homepage" transform="translate(-165.000000, -9.000000)" fill="#FFFFFF" fill-rule="nonzero">
            <g id="Nav-Bar">
                <g id="Populife_Logo_White" transform="translate(165.000000, 9.000000)">
                    <path d="M88.578,16.73425 L88.578,16.73425 C88.92,16.5965 94.278,14.39725 94.8955,14.15975 L94.99525,14.12175 L94.9525,14.02675 C94.5984603,13.0567751 93.9936802,12.1979547 93.19975,11.53775 C92.3900436,10.8767236 91.3710043,10.5263762 90.326,10.54975 C89.6198821,10.5447986 88.9206609,10.6888511 88.274,10.9725 C87.6517747,11.2401025 87.087226,11.6256086 86.6115,12.10775 C86.1413915,12.5992469 85.7647439,13.1722663 85.5,13.79875 C85.2217273,14.4519463 85.0794996,15.1550036 85.082,15.865 C85.0673514,17.2592849 85.6193241,18.5997899 86.6115,19.5795 C87.0977487,20.0540662 87.6679201,20.4341805 88.293,20.7005 C88.9461963,20.9787727 89.6492536,21.1210004 90.35925,21.1185359 C91.0517182,21.1210097 91.7383702,20.992061 92.38275,20.7385 C92.9402912,20.5206581 93.4573086,20.2107688 93.91225,19.82175 C93.6523919,19.5635097 93.3000912,19.4198531 92.93375,19.42275 C92.7060284,19.4232722 92.4815728,19.4769464 92.27825,19.5795 L91.93625,19.73625 C91.4267702,19.9376467 90.8833287,20.0392396 90.3355,20.0355 C89.4890027,20.050755 88.6588115,19.8016976 87.9605,19.323 C87.3189477,18.8886293 86.8120855,18.2830277 86.4975,17.575 C86.3933814,17.3105484 86.313878,17.0370565 86.26,16.758 C86.26,16.62975 86.21725,16.5015 86.19825,16.378 C86.1709165,16.2052114 86.1582048,16.0304253 86.16025,15.8555 C86.1580603,15.3024441 86.2679369,14.754677 86.48325,14.24525 C86.6905495,13.7500557 86.9922411,13.2999384 87.3715,12.92 C87.7523767,12.5382769 88.2020338,12.2320588 88.69675,12.0175 C89.2114323,11.7907764 89.7683605,11.675829 90.33075,11.68025 C91.0431559,11.6683723 91.741752,11.8774533 92.3305,12.27875 C92.8681824,12.6610152 93.2970819,13.1766769 93.575,13.775 L88.96275,15.675 C88.766884,15.7595041 88.6145603,15.9210747 88.5417326,16.1215755 C88.468905,16.3220763 88.4820265,16.5437414 88.578,16.73425 L88.578,16.73425 Z" id="Path"></path>
                    <path d="M20.4725,10.5592118 C20.8935691,10.5571549 21.3106168,10.641211 21.698,10.80625 C22.080735,10.9658148 22.4278926,11.1999444 22.71925,11.495 C23.3176982,12.1020171 23.6493623,12.9226293 23.64075,13.775 L23.64075,17.94075 C23.6504578,18.7863358 23.3181478,19.5999816 22.71925,20.197 C22.4266259,20.4905251 22.0797906,20.7244373 21.698,20.88575 C21.3109202,21.0522906 20.8938862,21.1379604 20.4725,21.1375466 L16.321,21.1375466 C15.8978924,21.1398398 15.4789276,21.0541057 15.09075,20.88575 C14.7118212,20.7243251 14.3681204,20.4903503 14.079,20.197 C13.7881914,19.9067645 13.555967,19.5632658 13.395,19.18525 C13.2309714,18.7910522 13.1485617,18.3676923 13.15275,17.94075 L13.15275,13.775 C13.1478355,12.9280095 13.4812624,12.1141057 14.079,11.514 C14.3669098,11.2192016 14.7109179,10.9850177 15.09075,10.82525 C15.4792357,10.6583915 15.8982151,10.5742721 16.321,10.57825 L20.4725,10.5592118 Z M14.7724984,17.92175 C14.7721909,18.1301393 14.8175909,18.3360604 14.9055,18.525 C14.9856355,18.7027436 15.0984215,18.8638665 15.238,19 C15.3737613,19.1400159 15.5349728,19.252864 15.713,19.3325 C15.8991654,19.4118856 16.0996179,19.4522994 16.302,19.4513191 L20.4725,19.4513191 C20.676506,19.4532263 20.8786968,19.4127881 21.06625,19.3325 C21.2445101,19.2532755 21.4057957,19.1403757 21.54125,19 C21.6808285,18.8638665 21.7936145,18.7027436 21.87375,18.525 C21.960023,18.3356894 22.0037981,18.1297844 22.0020532,17.92175 L22.0020532,13.775 C22.0037981,13.5669656 21.960023,13.3610606 21.87375,13.17175 C21.7936145,12.9940064 21.6808285,12.8328835 21.54125,12.69675 C21.4057957,12.5563743 21.2445101,12.4434745 21.06625,12.36425 C20.8786968,12.2839619 20.676506,12.2435237 20.4725,12.2454309 L16.321,12.2454309 C16.1186179,12.2444506 15.9181654,12.2848644 15.732,12.36425 C15.5539728,12.443886 15.3927613,12.5567341 15.257,12.69675 C15.1174215,12.8328835 15.0046355,12.9940064 14.9245,13.17175 C14.8333116,13.3599414 14.7846608,13.5658966 14.782,13.775 L14.7724984,17.92175 Z" id="Shape"></path>
                    <path d="M50.597,10.55925 C50.8174489,10.5604653 51.0281649,10.6502056 51.1817992,10.808306 C51.3354335,10.9664064 51.4191005,11.1796067 51.414,11.4 L51.414,17.879 C51.4180827,18.313497 51.3306893,18.7439905 51.1575,19.1425 C50.9949749,19.5227532 50.7648341,19.8703784 50.47825,20.1685 C50.1913859,20.4724258 49.8433063,20.7120341 49.457,20.8715 C49.0671145,21.033819 48.6490741,21.1177499 48.22675,21.1185 L44.07525,21.1185 C43.2265521,21.1293647 42.411958,20.7849274 41.8285,20.1685 C41.2203905,19.5617514 40.8785994,18.738035 40.8784449,17.879 L40.8784449,11.4 C40.8759672,11.181238 40.9607729,10.9704968 41.1141282,10.8144667 C41.2674835,10.6584367 41.4767269,10.5699999 41.6955,10.56875 L41.6955,10.56875 C41.9179493,10.5635404 42.1329001,10.6492866 42.2906862,10.8061763 C42.4484724,10.9630659 42.535442,11.1775247 42.5315,11.4 L42.5315,17.879 C42.5314313,18.3001993 42.7029435,18.7032529 43.0065,18.99525 C43.2852674,19.2979583 43.6779863,19.4702034 44.0895,19.47025 L48.241,19.47025 C48.6556958,19.4722813 49.0521485,19.2999106 49.3335,18.99525 C49.6256809,18.6978885 49.7865023,18.2958348 49.78,17.879 L49.78,11.4 C49.7774672,11.181238 49.8622729,10.9704968 50.0156282,10.8144667 C50.1689835,10.6584367 50.3782269,10.5699999 50.597,10.56875 L50.597,10.55925 Z" id="Path"></path>
                    <path d="M56.34925,10.55925 C56.8091029,10.5644683 57.1783926,10.9401251 57.17575,11.4 L57.17575,18.24 C57.169816,18.5534157 57.2895503,18.8561725 57.50825,19.08075 C57.7181813,19.302031 58.0107479,19.4259416 58.31575,19.42275 L62.91375,19.42275 C63.1354755,19.4252553 63.3471229,19.5157455 63.5021248,19.6743106 C63.6571267,19.8328758 63.7427839,20.0465248 63.7403047,20.26825 L63.7403047,20.26825 C63.7427839,20.4899752 63.6571267,20.7036242 63.5021248,20.8621894 C63.3471229,21.0207545 63.1354755,21.1112447 62.91375,21.1137976 L58.31575,21.1137976 C57.9415679,21.1159782 57.5710549,21.0399341 57.228,20.8905 C56.8953718,20.743332 56.5951166,20.5318619 56.3445,20.26825 C56.0914939,20.0011443 55.8887474,19.6905881 55.746,19.3515 C55.5938412,19.0009494 55.5177508,18.6221165 55.52275,18.24 L55.52275,11.4 C55.5202161,11.1782748 55.6058733,10.9646258 55.7608752,10.8060606 C55.9158771,10.6474955 56.1275245,10.5570053 56.34925,10.5545 L56.34925,10.55925 Z" id="Path"></path>
                    <path d="M8.82075,12.25975 C8.53291623,11.5954465 8.00305351,11.0655838 7.33875,10.77775 C6.99354566,10.6303635 6.62158728,10.5559718 6.24625,10.5591462 L0,10.5591462 L0,20.29675 C0,20.75059 0.367910007,21.1185 0.82175,21.1185 C1.27558999,21.1185 1.6435,20.75059 1.6435,20.29675 L1.6435,16.625 L6.24625,16.625 C6.98795512,16.6316398 7.70013077,16.334757 8.2175,15.80325 C8.4687655,15.5463453 8.67295138,15.2473014 8.82075,14.91975 C8.96317501,14.5784778 9.03274398,14.2112183 9.025,13.8415 L9.025,13.34275 C9.03175118,12.971576 8.96223291,12.6029675 8.82075,12.25975 Z M7.39575999,13.8415 C7.39701934,14.1442341 7.2773202,14.4349357 7.06325295,14.649003 C6.8491857,14.8630702 6.55848415,14.9827693 6.25575,14.98151 L1.6435,14.98151 L1.6435,12.1885 L6.24625,12.1885 C6.54972015,12.1834033 6.84185703,12.303695 7.05375,12.521 C7.27326017,12.7372783 7.39359617,13.0346801 7.38625,13.34275 L7.39575999,13.8415 Z" id="Shape"></path>
                    <path d="M36.575,12.25975 C36.430094,11.9375975 36.2253921,11.645857 35.97175,11.4 C35.7175596,11.1466524 35.417806,10.9435935 35.08825,10.8015 C34.7448438,10.6536965 34.3743446,10.5792731 34.0005,10.583 L27.75425,10.583 L27.75425,20.3205 C27.75425,20.77434 28.12216,21.14225 28.576,21.14225 C29.02984,21.14225 29.39775,20.77434 29.39775,20.3205 L29.39775,16.625 L34.0005,16.625 C34.7417729,16.629437 35.4531203,16.3328994 35.97175,15.80325 C36.2247562,15.5477769 36.4291684,15.2484015 36.575,14.91975 C36.723942,14.5798814 36.7999937,14.2125678 36.7982793,13.8415 L36.7982793,13.34275 C36.7989926,12.9702496 36.7229968,12.6015892 36.575,12.25975 Z M35.1500506,13.8415 C35.1528761,14.144546 35.0329296,14.4358446 34.8175,14.649 C34.605607,14.866305 34.3134702,14.9865967 34.01,14.9815 L29.39775,14.9815 L29.39775,12.1885 L34.0005,12.1885 C34.3039702,12.1834033 34.596107,12.303695 34.808,12.521 C35.0256178,12.7385367 35.1456112,13.0350917 35.1405,13.34275 L35.1500506,13.8415 Z" id="Shape"></path>
                    <path d="M67.45,9.54275 C67.45,9.01807949 67.8753295,8.59275 68.4,8.59275 C68.6445133,8.59429372 68.8778178,8.69550669 69.046,8.873 C69.2342735,9.05024834 69.3394125,9.29844541 69.33575,9.557 C69.3400566,9.81017344 69.2343533,10.0527712 69.046,10.222 C68.8722686,10.3894993 68.6413028,10.4846029 68.4,10.4880075 C68.1493995,10.4889774 67.9079756,10.393768 67.7255,10.222 C67.5385724,10.0468907 67.4378661,9.79859758 67.45,9.54275 Z" id="Path"></path>
                    <path d="M68.4,11.64225 C68.208924,11.6393794 68.0189867,11.6122455 67.83475,11.5615 L67.83475,21.1185104 C68.1228016,21.1197634 68.3994887,21.0062199 68.6036191,20.8029809 C68.8077495,20.5997419 68.9225,20.3235543 68.9225,20.0355 L68.9225,11.56625 C68.7521435,11.6130797 68.5766383,11.6386077 68.4,11.64225 L68.4,11.64225 Z" id="Path"></path>
                    <path d="M80.921,0.55575 C80.1447563,0.884291686 79.4541539,1.38640024 78.90225,2.0235 C78.3010936,2.71739514 77.8455691,3.52506264 77.56275,4.3985 C77.2307987,5.45382004 77.0704248,6.55558913 77.08775,7.66175 L77.08775,11.55675 L73.05025,11.55675 L73.05025,12.6445 L77.08775,12.6445 L77.08775,31.67775 C77.7016145,31.67775 78.19925,31.1801145 78.19925,30.56625 L78.19925,12.64925 L82.2415,12.64925 L82.2415,11.5615 L78.19925,11.5615 L78.19925,7.56675 C78.1868126,6.6549581 78.3215433,5.74713005 78.59825,4.87825 C78.8360147,4.14134229 79.2062444,3.45400275 79.69075,2.85 C80.1412172,2.29743955 80.7070001,1.8500009 81.3485,1.539 C81.7010021,1.37210913 82.0727168,1.24926779 82.45525,1.17325 C83.0237914,1.07050551 83.4387576,0.577733095 83.44325,0 C82.5760881,0.0333751904 81.721887,0.221588992 80.921,0.55575 L80.921,0.55575 Z" id="Path"></path>
                </g>
            </g>
        </g>
    </g>
</svg>