<?xml version="1.0" encoding="UTF-8"?>
<svg width="59px" height="59px" viewBox="0 0 59 59" version="1.1" xmlns="http://www.w3.org/2000/svg" xmlns:xlink="http://www.w3.org/1999/xlink">
    <!-- Generator: Sketch 55.2 (78181) - https://sketchapp.com -->
    <title>mortise-icon-5</title>
    <desc>Created with Sketch.</desc>
    <defs>
        <polygon id="path-1" points="0.00011796014 0.240324324 58.14 0.240324324 58.14 58.377768 0.00011796014 58.377768"></polygon>
    </defs>
    <g id="Page-1" stroke="none" stroke-width="1" fill="none" fill-rule="evenodd">
        <g id="Populife---Mortise" transform="translate(-1071.000000, -951.000000)">
            <g id="mortise-icon-5" transform="translate(1071.000000, 950.000000)">
                <g id="Group-3" transform="translate(0.000000, 1.381784)">
                    <mask id="mask-2" fill="white">
                        <use xlink:href="#path-1"></use>
                    </mask>
                    <g id="Clip-2"></g>
                    <path d="M29.0612432,55.9073514 L28.7174595,55.9041081 C14.2217838,55.7257297 2.44718919,43.7646486 2.47147589,29.2414054 C2.49421622,14.6111351 14.4342162,2.71005405 29.0855676,2.71005405 C36.198,2.71005405 42.8790811,5.47978378 47.8931351,10.5068108 C52.9104324,15.5354595 55.6704324,22.2295135 55.667192,29.3597838 C55.6623243,43.9981622 43.7271892,55.9073514 29.0612432,55.9073514 M29.0855676,0.240324324 C13.038,0.240324324 0.0277297297,13.2262703 0.00011796014,29.2381622 C-0.0274054054,45.2500541 12.8434054,58.1792432 28.6882703,58.3754595 C45.0115135,58.5781622 58.1320541,45.4057297 58.1401646,29.3614054 C58.1466486,13.2554595 45.1590811,0.240324324 29.0855676,0.240324324" id="Fill-1" fill="#1F1D1E" mask="url(#mask-2)"></path>
                </g>
                <path d="M12.3833514,32.2537297 L15.4595676,32.2537297 L13.9141622,27.6483243 L12.3833514,32.2537297 Z M16.1438919,34.3083243 L11.7006486,34.3083243 L10.8557838,36.8429189 L8.15902703,36.8429189 L12.7401081,24.5396757 L15.0865946,24.5396757 L19.6936216,36.8429189 L16.9984865,36.8429189 L16.1438919,34.3083243 Z" id="Fill-4" fill="#1F1D1E"></path>
                <path d="M28.6954054,24.54 L28.6954054,32.6432432 C28.6954054,33.9891892 28.2737838,35.052973 27.4321622,35.8378378 C26.5905405,36.6194595 25.4391892,37.0102703 23.9797297,37.0102703 C22.5445946,37.0102703 21.402973,36.6308108 20.5581081,35.8702703 C19.7132432,35.1113514 19.2818919,34.0654054 19.2656757,32.7356757 L19.2656757,24.54 L21.8002703,24.54 L21.8002703,32.6594595 C21.8002703,33.4654054 21.9932432,34.0524324 22.3791892,34.4221622 C22.7651351,34.7902703 23.297027,34.9751351 23.9797297,34.9751351 C25.4051351,34.9751351 26.1283784,34.2259459 26.1510811,32.7275676 L26.1510811,24.54 L28.6954054,24.54 Z" id="Fill-6" fill="#1F1D1E"></path>
                <polygon id="Fill-8" fill="#1F1D1E" points="39.5028649 26.5923243 35.7342162 26.5923243 35.7342162 36.8425946 33.1996216 36.8425946 33.1996216 26.5923243 29.4812432 26.5923243 29.4812432 24.5393514 39.5028649 24.5393514"></polygon>
                <path d="M47.4121622,30.4118919 C47.4121622,29.1227027 47.1802703,28.1432432 46.7181081,27.4718919 C46.2559459,26.8005405 45.5975676,26.4648649 44.7413514,26.4648649 C43.89,26.4648649 43.2348649,26.7972973 42.7743243,27.4589189 C42.3105405,28.1205405 42.077027,29.0918919 42.0721622,30.3697297 L42.0721622,30.9697297 C42.0721622,32.2248649 42.3024324,33.2010811 42.7645946,33.8918919 C43.2267568,34.5859459 43.89,34.932973 44.7591892,34.932973 C45.6105405,34.932973 46.2624324,34.5989189 46.7181081,33.9308108 C47.1754054,33.2643243 47.4056757,32.2913514 47.4121622,31.0118919 L47.4121622,30.4118919 Z M49.9808108,30.9697297 C49.9808108,32.1810811 49.7667568,33.2432432 49.3386486,34.1562162 C48.9089189,35.0675676 48.2975676,35.772973 47.5013514,36.2675676 C46.7035135,36.7637838 45.7905405,37.0102703 44.7591892,37.0102703 C43.7375676,37.0102703 42.8294595,36.767027 42.03,36.2756757 C41.2289189,35.7859459 40.6110811,35.087027 40.1716216,34.1756757 C39.7321622,33.2675676 39.5083784,32.22 39.5035135,31.0378378 L39.5035135,30.4297297 C39.5035135,29.2183784 39.7208108,28.1497297 40.157027,27.2302703 C40.5932432,26.3091892 41.2110811,25.6021622 42.0089189,25.1091892 C42.8067568,24.6178378 43.7164865,24.3697297 44.7413514,24.3697297 C45.7662162,24.3697297 46.6775676,24.6178378 47.4754054,25.1091892 C48.2716216,25.6021622 48.8894595,26.3091892 49.3256757,27.2302703 C49.7618919,28.1497297 49.9808108,29.2151351 49.9808108,30.42 L49.9808108,30.9697297 Z" id="Fill-10" fill="#1F1D1E"></path>
            </g>
        </g>
    </g>
</svg>