<?xml version="1.0" encoding="UTF-8"?>
<svg width="59px" height="59px" viewBox="0 0 59 59" version="1.1" xmlns="http://www.w3.org/2000/svg" xmlns:xlink="http://www.w3.org/1999/xlink">
    <!-- Generator: Sketch 55.2 (78181) - https://sketchapp.com -->
    <title>mortise-icon-4</title>
    <desc>Created with Sketch.</desc>
    <defs>
        <polygon id="path-1" points="0 0.240162162 58.1395173 0.240162162 58.1395173 58.3776059 0 58.3776059"></polygon>
    </defs>
    <g id="Page-1" stroke="none" stroke-width="1" fill="none" fill-rule="evenodd">
        <g id="Populife---Mortise" transform="translate(-882.000000, -951.000000)">
            <g id="mortise-icon-4" transform="translate(882.000000, 950.000000)">
                <path d="M25.1925405,25.7923784 C25.1925405,26.3567027 24.7336216,26.814 24.1709189,26.814 L17.9179459,26.814 C17.3536216,26.814 16.8963243,26.3567027 16.8963243,25.7923784 L16.8963243,19.5394054 C16.8963243,18.9750811 17.3536216,18.5177838 17.9179459,18.5177838 L24.1709189,18.5177838 C24.7336216,18.5177838 25.1925405,18.9750811 25.1925405,19.5394054 L25.1925405,25.7923784 Z M24.1709189,16.3885946 L17.9179459,16.3885946 C16.1811892,16.3885946 14.7687568,17.801027 14.7687568,19.5394054 L14.7687568,25.7923784 C14.7687568,27.5275135 16.1811892,28.9399459 17.9179459,28.9399459 L24.1709189,28.9399459 C25.9076757,28.9399459 27.3201081,27.5275135 27.3201081,25.7923784 L27.3201081,19.5394054 C27.3201081,17.801027 25.9076757,16.3885946 24.1709189,16.3885946 L24.1709189,16.3885946 Z" id="Fill-1" fill="#333132"></path>
                <path d="M42.2101622,21.9124865 C42.6236757,22.3276216 42.6236757,23.0022162 42.2101622,23.4173514 L37.848,27.7795135 C37.4328649,28.1946486 36.7582703,28.1946486 36.3431351,27.7795135 L31.980973,23.4173514 C31.5658378,23.0022162 31.5658378,22.3276216 31.980973,21.9124865 L36.3431351,17.5519459 C36.7582703,17.1368108 37.4328649,17.1368108 37.848,17.5519459 L42.2101622,21.9124865 Z M34.8398919,16.0470811 L30.4761081,20.4092432 C29.2323243,21.653027 29.2323243,23.6784324 30.4761081,24.9205946 L34.8398919,29.2843784 C36.0836757,30.5281622 38.1074595,30.5281622 39.3512432,29.2843784 L43.7134054,24.9205946 C44.9588108,23.6784324 44.9588108,21.653027 43.7134054,20.4092432 L39.3512432,16.0470811 C38.1074595,14.8016757 36.0836757,14.8016757 34.8398919,16.0470811 L34.8398919,16.0470811 Z" id="Fill-3" fill="#333132"></path>
                <path d="M25.1925405,41.8438378 C25.1925405,42.4065405 24.7336216,42.8654595 24.1709189,42.8654595 L17.9179459,42.8654595 C17.3536216,42.8654595 16.8963243,42.4065405 16.8963243,41.8438378 L16.8963243,35.5908649 C16.8963243,35.0265405 17.3536216,34.5692432 17.9179459,34.5692432 L24.1709189,34.5692432 C24.7336216,34.5692432 25.1925405,35.0265405 25.1925405,35.5908649 L25.1925405,41.8438378 Z M24.1709189,32.4400541 L17.9179459,32.4400541 C16.1811892,32.4400541 14.7687568,33.8524865 14.7687568,35.5908649 L14.7687568,41.8438378 C14.7687568,43.578973 16.1811892,44.9914054 17.9179459,44.9914054 L24.1709189,44.9914054 C25.9076757,44.9914054 27.3201081,43.578973 27.3201081,41.8438378 L27.3201081,35.5908649 C27.3201081,33.8524865 25.9076757,32.4400541 24.1709189,32.4400541 L24.1709189,32.4400541 Z" id="Fill-5" fill="#333132"></path>
                <path d="M41.2433514,41.8011892 C41.2433514,42.3865946 40.7665946,42.864973 40.1795676,42.864973 L34.0109189,42.864973 C33.4238919,42.864973 32.9471351,42.3865946 32.9471351,41.8011892 L32.9471351,35.6309189 C32.9471351,35.0455135 33.4238919,34.5687568 34.0109189,34.5687568 L40.1795676,34.5687568 C40.7665946,34.5687568 41.2433514,35.0455135 41.2433514,35.6309189 L41.2433514,41.8011892 Z M40.1795676,32.4411892 L34.0109189,32.4411892 C32.2514595,32.4411892 30.8195676,33.8714595 30.8195676,35.6309189 L30.8195676,41.8011892 C30.8195676,43.5606486 32.2514595,44.9925405 34.0109189,44.9925405 L40.1795676,44.9925405 C41.939027,44.9925405 43.3709189,43.5606486 43.3709189,41.8011892 L43.3709189,35.6309189 C43.3709189,33.8714595 41.939027,32.4411892 40.1795676,32.4411892 L40.1795676,32.4411892 Z" id="Fill-7" fill="#333132"></path>
                <g id="Group-11" transform="translate(0.000000, 1.381784)">
                    <mask id="mask-2" fill="white">
                        <use xlink:href="#path-1"></use>
                    </mask>
                    <g id="Clip-10"></g>
                    <path d="M29.0605946,55.9071892 L28.7184324,55.9039459 C14.2211351,55.7255676 2.44654054,43.7644865 2.47244369,29.2412432 C2.49518919,14.610973 14.4335676,2.70989189 29.0865405,2.70989189 C36.198973,2.70989189 42.8784324,5.47962162 47.8941081,10.5066486 C52.9114054,15.5352973 55.6697838,22.2293514 55.6681629,29.3596216 C55.6616757,43.998 43.7265405,55.9071892 29.0605946,55.9071892 M29.0849189,0.240162162 C13.0373514,0.240162162 0.0270810811,13.2261081 -0.000525645512,29.238 C-0.0264324324,45.2498919 12.8443784,58.1790811 28.6876216,58.3752973 C45.0108649,58.578 58.133027,45.4055676 58.1395173,29.3612432 C58.1476216,13.2552973 45.1584324,0.240162162 29.0849189,0.240162162" id="Fill-9" fill="#333132" mask="url(#mask-2)"></path>
                </g>
            </g>
        </g>
    </g>
</svg>