<?xml version="1.0" encoding="UTF-8"?>
<svg width="59px" height="59px" viewBox="0 0 59 59" version="1.1" xmlns="http://www.w3.org/2000/svg" xmlns:xlink="http://www.w3.org/1999/xlink">
    <!-- Generator: Sketch 55.2 (78181) - https://sketchapp.com -->
    <title>mortise-icon-9</title>
    <desc>Created with Sketch.</desc>
    <defs>
        <polygon id="path-1" points="0 0.240162162 58.1395173 0.240162162 58.1395173 58.3776059 0 58.3776059"></polygon>
    </defs>
    <g id="Page-1" stroke="none" stroke-width="1" fill="none" fill-rule="evenodd">
        <g id="Populife---Mortise" transform="translate(-982.000000, -1091.000000)">
            <g id="mortise-icon-9" transform="translate(982.000000, 1090.000000)">
                <g id="Group-3" transform="translate(0.000000, 1.381784)">
                    <mask id="mask-2" fill="white">
                        <use xlink:href="#path-1"></use>
                    </mask>
                    <g id="Clip-2"></g>
                    <path d="M29.0605946,55.9071892 L28.7184324,55.9039459 C14.2227568,55.7255676 2.44654054,43.7644865 2.47244369,29.2412432 C2.49356757,14.610973 14.4335676,2.70989189 29.0865405,2.70989189 C36.198973,2.70989189 42.8784324,5.47962162 47.8924865,10.5066486 C52.9114054,15.5352973 55.6697838,22.2293514 55.6665434,29.3596216 C55.6616757,43.998 43.7281622,55.9071892 29.0605946,55.9071892 M29.0865405,0.240162162 C13.0373514,0.240162162 0.0270810811,13.2261081 -0.000525650434,29.238 C-0.0264324324,45.2498919 12.8427568,58.1790811 28.6876216,58.3752973 C45.0108649,58.578 58.133027,45.4055676 58.1395173,29.3612432 C58.1476216,13.2552973 45.1600541,0.240162162 29.0865405,0.240162162" id="Fill-1" fill="#333132" mask="url(#mask-2)"></path>
                </g>
                <path d="M27.9282162,18.4365405 L27.9282162,30.6927568 C27.9282162,31.3219459 28.439027,31.8343784 29.0698378,31.8343784 L41.3260541,31.8343784 C40.7455135,38.1149189 35.4103784,42.9992432 29.0698378,42.9992432 C22.2833514,42.9992432 16.7601081,37.4776216 16.7601081,30.6927568 C16.7601081,24.3505946 21.6460541,19.0138378 27.9282162,18.4365405 M42.5195676,29.5511351 L30.2114595,29.5511351 L30.2114595,17.2414054 C30.2114595,16.6105946 29.699027,16.0997838 29.0698378,16.0997838 C21.0233514,16.0997838 14.4768649,22.6462703 14.4768649,30.6927568 C14.4768649,38.7392432 21.0233514,45.2841081 29.0698378,45.2841081 C37.1163243,45.2841081 43.6611892,38.7392432 43.6611892,30.6927568 C43.6611892,30.0619459 43.1503784,29.5511351 42.5195676,29.5511351" id="Fill-4" fill="#333132"></path>
                <path d="M34.7156757,25.0512973 L34.7156757,13.9383243 C37.847027,14.226973 40.7091892,15.6815676 42.7978378,18.0491351 C44.5118919,19.986973 45.5821622,22.4631892 45.8286486,25.0512973 L34.7156757,25.0512973 Z M44.5135135,16.5296757 C41.7421622,13.3934595 37.7545946,11.5934595 33.5740541,11.5934595 C32.9448649,11.5934595 32.4324324,12.1058919 32.4324324,12.7350811 L32.4324324,26.1864324 C32.4324324,26.8172432 32.9448649,27.3280541 33.5740541,27.3280541 L47.0254054,27.3280541 C47.6545946,27.3280541 48.1654054,26.8172432 48.1654054,26.1377838 C48.1524324,22.5961622 46.8551351,19.1842703 44.5135135,16.5296757 L44.5135135,16.5296757 Z" id="Fill-6" fill="#333132"></path>
            </g>
        </g>
    </g>
</svg>