<?xml version="1.0" encoding="UTF-8"?>
<svg width="57px" height="58px" viewBox="0 0 57 58" version="1.1" xmlns="http://www.w3.org/2000/svg" xmlns:xlink="http://www.w3.org/1999/xlink">
    <!-- Generator: Sketch 55.2 (78181) - https://sketchapp.com -->
    <title>mortise-icon-6</title>
    <desc>Created with Sketch.</desc>
    <defs>
        <polygon id="path-1" points="0 0.233684211 56.60953 0.233684211 56.60953 56.8421053 0 56.8421053"></polygon>
    </defs>
    <g id="Page-1" stroke="none" stroke-width="1" fill="none" fill-rule="evenodd">
        <g id="Populife---Mortise" transform="translate(-413.000000, -1091.000000)">
            <g id="mortise-icon-6" transform="translate(413.000000, 1090.000000)">
                <path d="M16.5986842,34.5737368 L16.5986842,25.3968947 L19.9286842,25.3968947 C20.4481579,25.3968947 20.9613158,25.1884737 21.3386842,24.8268947 C21.5834211,24.5963684 24.3671053,22.1584737 27.195,19.689 L27.195,40.1142632 C24.6007895,37.9258421 21.6071053,35.3884737 21.3623684,35.1642632 C20.9818421,34.7837368 20.4718421,34.5737368 19.9271053,34.5737368 L16.5986842,34.5737368 Z M28.1028947,16.4600526 L27.945,16.4553158 C27.5771053,16.4553158 27.195,16.5753158 26.7513158,16.8500526 C26.1007895,17.4200526 20.7055263,22.1284737 19.7739474,22.9700526 L16.1976316,22.9700526 C15.0797368,22.9700526 14.1686842,23.8795263 14.1686842,24.999 L14.1686842,34.9747895 C14.1686842,36.0942632 15.0797368,37.0037368 16.1976316,37.0037368 L19.7755263,37.0037368 C20.715,37.8326842 26.1086842,42.3705789 26.805,42.9516316 C27.1918421,43.1900526 27.5755263,43.3100526 27.945,43.3100526 L27.9497368,43.3100526 L28.1013158,43.3053158 C28.9334211,43.2279474 29.4607895,42.5458421 29.6265789,41.8100526 L29.6155263,17.8637368 C29.4623684,17.2242632 28.9365789,16.5405789 28.1028947,16.4600526 L28.1028947,16.4600526 Z" id="Fill-1" fill="#333132"></path>
                <path d="M39.5041579,29.8839474 L42.0288947,27.3560526 C42.2957368,27.0939474 42.4394211,26.7434211 42.4394211,26.3707895 C42.4394211,25.9965789 42.2957368,25.6460526 42.0320526,25.3839474 C41.7683684,25.1202632 41.4178421,24.9765789 41.0452105,24.9765789 C40.671,24.9765789 40.3220526,25.1202632 40.0599474,25.3839474 L37.5320526,27.9118421 L35.0025789,25.3839474 C34.7388947,25.1202632 34.3899474,24.9765789 34.0157368,24.9765789 C33.6431053,24.9765789 33.2925789,25.1202632 33.0320526,25.3839474 C32.7667895,25.6476316 32.6231053,25.9965789 32.6231053,26.3707895 C32.6231053,26.7434211 32.7667895,27.0923684 33.0320526,27.3544737 L35.5599474,29.8839474 L33.0320526,32.4118421 C32.7667895,32.6755263 32.6231053,33.0244737 32.6231053,33.3986842 C32.6231053,33.7713158 32.7667895,34.1202632 33.0304737,34.3823684 C33.2925789,34.6460526 33.6431053,34.7897368 34.0157368,34.7897368 C34.3899474,34.7897368 34.7388947,34.6460526 35.001,34.3823684 L37.5320526,31.8544737 L40.0599474,34.3823684 C40.3220526,34.6460526 40.671,34.7897368 41.0452105,34.7897368 C41.4178421,34.7897368 41.7683684,34.6460526 42.0304737,34.3823684 C42.2941579,34.1202632 42.4378421,33.7713158 42.4378421,33.3986842 C42.4378421,33.0244737 42.2941579,32.6755263 42.0304737,32.4118421 L39.5041579,29.8839474 Z" id="Fill-3" fill="#333132"></path>
                <g id="Group-7" transform="translate(0.000000, 1.345421)">
                    <mask id="mask-2" fill="white">
                        <use xlink:href="#path-1"></use>
                    </mask>
                    <g id="Clip-6"></g>
                    <path d="M28.2958421,54.4354737 L27.9626842,54.4338947 C13.8484737,54.2586316 2.38215789,42.6123158 2.40737939,28.4712632 C2.42794737,14.2275789 14.0537368,2.63968421 28.3211053,2.63968421 C35.2463684,2.63968421 41.7500526,5.33494737 46.6321579,10.2296842 C51.519,15.126 54.2047895,21.6454737 54.2016344,28.5865263 C54.1968947,42.8412632 42.5774211,54.4354737 28.2958421,54.4354737 M28.3211053,0.233368421 C12.6942632,0.233368421 0.0263684211,12.8775789 -0.000511817528,28.4681053 C-0.0257368421,44.0586316 12.5047895,56.6491579 27.9326842,56.8402105 C43.8263684,57.036 56.6032105,44.2117895 56.60953,28.5881053 C56.6174211,12.9075789 43.9716316,0.233368421 28.3211053,0.233368421" id="Fill-5" fill="#333132" mask="url(#mask-2)"></path>
                </g>
            </g>
        </g>
    </g>
</svg>