<?xml version="1.0" encoding="UTF-8"?>
<svg width="57px" height="58px" viewBox="0 0 57 58" version="1.1" xmlns="http://www.w3.org/2000/svg" xmlns:xlink="http://www.w3.org/1999/xlink">
    <!-- Generator: Sketch 55.2 (78181) - https://sketchapp.com -->
    <title>mortise-icon-3</title>
    <desc>Created with Sketch.</desc>
    <defs>
        <polygon id="path-1" points="0 0.233684211 56.60953 0.233684211 56.60953 56.8421053 0 56.8421053"></polygon>
    </defs>
    <g id="Page-1" stroke="none" stroke-width="1" fill="none" fill-rule="evenodd">
        <g id="Populife---Mortise" transform="translate(-693.000000, -951.000000)">
            <g id="mortise-icon-3" transform="translate(693.000000, 950.000000)">
                <path d="M39.2388947,34.8348947 C37.5099474,39.5212105 33.9825789,42.7391053 28.4531053,44.6717368 C28.4341579,44.6780526 28.4136316,44.6843684 28.3915263,44.6891053 C28.3346842,44.7001579 28.2762632,44.7001579 28.2178421,44.6875263 C28.1957368,44.6843684 28.1752105,44.6780526 28.1562632,44.6717368 C22.6220526,42.7422632 19.0915263,39.5259474 17.3641579,34.8396316 C15.8531053,30.7422632 15.9399474,26.2454211 16.0157368,22.2791053 L16.0157368,22.257 C16.0315263,21.9159474 16.041,21.5591053 16.0473158,21.1675263 C16.0583684,20.3448947 16.7136316,19.6659474 17.5362632,19.6185789 C19.7215263,19.497 21.6399474,19.0754211 23.4036316,18.3285789 C25.1625789,17.5833158 26.7273158,16.5333158 28.1831053,15.117 C28.2573158,15.0554211 28.3520526,15.0554211 28.4262632,15.117 C29.8836316,16.5333158 31.4467895,17.5833158 33.2073158,18.3285789 C34.9694211,19.0754211 36.8894211,19.497 39.0731053,19.6185789 C39.8973158,19.6659474 40.551,20.3448947 40.5636316,21.1675263 C40.5683684,21.5622632 40.5794211,21.9191053 40.5952105,22.257 C40.6694211,26.2280526 40.7531053,30.7280526 39.2388947,34.8348947 M42.5641579,22.2064737 L42.5625789,22.1812105 C42.5483684,21.8591053 42.5388947,21.5164737 42.5325789,21.1375263 C42.5057368,19.287 41.0341579,17.7554211 39.1820526,17.6527895 C35.3231053,17.4364737 32.3373158,16.1796316 29.7873158,13.6912105 L29.7652105,13.6706842 C28.9331053,12.9080526 27.6778421,12.9080526 26.8457368,13.6706842 L26.8236316,13.6912105 C24.2720526,16.1796316 21.2862632,17.4364737 17.4273158,17.6527895 C15.5767895,17.7554211 14.1052105,19.287 14.0767895,21.1375263 C14.0720526,21.5148947 14.0625789,21.8559474 14.0467895,22.1812105 L14.0452105,22.2412105 C13.971,26.1775263 13.8778421,31.0754211 15.5167895,35.5217368 C16.4167895,37.9643684 17.781,40.0912105 19.5715263,41.8391053 C21.6099474,43.827 24.2799474,45.4059474 27.5073158,46.5317368 C27.6131053,46.5696316 27.7220526,46.5980526 27.8325789,46.6201579 C27.9888947,46.6517368 28.1467895,46.6675263 28.3046842,46.6675263 C28.4625789,46.6675263 28.6204737,46.6517368 28.7783684,46.6201579 C28.8888947,46.5980526 28.9978421,46.5680526 29.1036316,46.5317368 C32.3278421,45.4027895 34.9946842,43.8238421 37.0315263,41.8359474 C38.8204737,40.0864737 40.1846842,37.9612105 41.0862632,35.517 C42.7315263,31.0564737 42.6383684,26.1506842 42.5641579,22.2064737" id="Fill-1" fill="#333132"></path>
                <path d="M28.3043684,36.2796316 C24.7785789,36.2796316 21.9080526,33.4106842 21.9080526,29.8833158 C21.9080526,26.3575263 24.7785789,23.487 28.3043684,23.487 C31.8301579,23.487 34.7006842,26.3575263 34.7006842,29.8833158 C34.7006842,33.4106842 31.8301579,36.2796316 28.3043684,36.2796316 M28.3043684,21.5180526 C23.6922632,21.5180526 19.9391053,25.2712105 19.9391053,29.8833158 C19.9391053,34.497 23.6922632,38.2501579 28.3043684,38.2501579 C32.9164737,38.2501579 36.6696316,34.497 36.6696316,29.8833158 C36.6696316,25.2712105 32.9164737,21.5180526 28.3043684,21.5180526" id="Fill-3" fill="#333132"></path>
                <path d="M30.7089474,27.2862632 L26.8231579,31.1720526 L25.7684211,30.1173158 C25.3831579,29.7320526 24.7594737,29.7320526 24.3757895,30.1173158 C23.9921053,30.5025789 23.9921053,31.1262632 24.3757895,31.5099474 L26.1268421,33.2625789 C26.3194737,33.4536316 26.5705263,33.5499474 26.8231579,33.5499474 C27.0757895,33.5499474 27.3268421,33.4536316 27.5194737,33.2625789 L32.1015789,28.6788947 C32.4852632,28.2952105 32.4852632,27.6715263 32.1015789,27.2862632 C31.7178947,26.901 31.0942105,26.901 30.7089474,27.2862632" id="Fill-5" fill="#333132"></path>
                <g id="Group-9" transform="translate(0.000000, 1.345421)">
                    <mask id="mask-2" fill="white">
                        <use xlink:href="#path-1"></use>
                    </mask>
                    <g id="Clip-8"></g>
                    <path d="M28.2958421,54.4351579 L27.9626842,54.4335789 C13.8468947,54.2598947 2.38215789,42.6135789 2.40737938,28.4709474 C2.42952632,14.2272632 14.0537368,2.63936842 28.3211053,2.63936842 C35.2463684,2.63936842 41.7500526,5.33463158 46.6337368,10.2293684 C51.519,15.1256842 54.2047895,21.6451579 54.2032112,28.5862105 C54.1968947,42.8393684 42.5758421,54.4351579 28.2958421,54.4351579 M28.3195263,0.233052632 C12.6942632,0.233052632 0.0263684211,12.8772632 -0.000511812736,28.4677895 C-0.0257368421,44.0583158 12.5063684,56.6472632 27.9326842,56.8398947 C43.8263684,57.0356842 56.6032105,44.2098947 56.60953,28.5877895 C56.6174211,12.9072632 43.9700526,0.233052632 28.3195263,0.233052632" id="Fill-7" fill="#333132" mask="url(#mask-2)"></path>
                </g>
            </g>
        </g>
    </g>
</svg>