<?xml version="1.0" encoding="UTF-8"?>
<svg width="59px" height="59px" viewBox="0 0 59 59" version="1.1" xmlns="http://www.w3.org/2000/svg" xmlns:xlink="http://www.w3.org/1999/xlink">
    <!-- Generator: Sketch 55.2 (78181) - https://sketchapp.com -->
    <title>mortise-icon-2</title>
    <desc>Created with Sketch.</desc>
    <defs>
        <polygon id="path-1" points="0 0.240324324 58.1395173 0.240324324 58.1395173 58.377768 0 58.377768"></polygon>
    </defs>
    <g id="Page-1" stroke="none" stroke-width="1" fill="none" fill-rule="evenodd">
        <g id="Populife---Mortise" transform="translate(-502.000000, -951.000000)">
            <g id="mortise-icon-2" transform="translate(502.000000, 950.000000)">
                <path d="M21.3150811,29.5109189 L22.734,29.5109189 C23.4102162,29.5109189 23.9112973,29.3422703 24.2372432,29.004973 C24.5615676,28.6660541 24.7253514,28.2168649 24.7253514,27.6574054 C24.7253514,27.1174054 24.5631892,26.6957838 24.2421081,26.3957838 C23.9177838,26.0941622 23.4750811,25.9433514 22.9091351,25.9433514 C22.3983243,25.9433514 21.9718378,26.0844324 21.6280541,26.3633514 C21.2842703,26.6422703 21.1123784,27.0071351 21.1123784,27.4547027 L18.4480541,27.4547027 C18.4480541,26.7541622 18.6377838,26.1265946 19.0156216,25.5703784 C19.3918378,25.0141622 19.9221081,24.5795676 20.5999459,24.2665946 C21.2794054,23.952 22.026973,23.7963243 22.8442703,23.7963243 C24.2648108,23.7963243 25.3772432,24.1352432 26.1815676,24.8147027 C26.9875135,25.4925405 27.3896757,26.4298378 27.3896757,27.6201081 C27.3896757,28.2363243 27.2015676,28.8022703 26.826973,29.3163243 C26.4523784,29.8336216 25.961027,30.2292973 25.3529189,30.5065946 C26.1085946,30.7774054 26.6712973,31.1828108 27.0442703,31.7228108 C27.4156216,32.2644324 27.6004865,32.9033514 27.6004865,33.6395676 C27.6004865,34.8330811 27.1658919,35.7882162 26.2967027,36.5065946 C25.4275135,37.2265946 24.2761622,37.584973 22.8442703,37.584973 C21.5048108,37.584973 20.4102162,37.2330811 19.5588649,36.5260541 C18.7075135,35.819027 18.281027,34.884973 18.281027,33.7238919 L20.9453514,33.7238919 C20.9453514,34.2282162 21.1350811,34.6401081 21.5129189,34.9579459 C21.8907568,35.279027 22.3561622,35.4379459 22.9091351,35.4379459 C23.5431892,35.4379459 24.0394054,35.2709189 24.3977838,34.9368649 C24.7577838,34.6011892 24.9377838,34.1568649 24.9377838,33.6038919 C24.9377838,32.2644324 24.1999459,31.5947027 22.7258919,31.5947027 L21.3150811,31.5947027 L21.3150811,29.5109189 Z" id="Fill-1" fill="#333132"></path>
                <polygon id="Fill-3" fill="#333132" points="39.8576757 37.4014054 37.0911892 37.4014054 37.0911892 31.6495135 31.6992973 31.6495135 31.6992973 37.4014054 28.9344324 37.4014054 28.9344324 23.9808649 31.6992973 23.9808649 31.6992973 29.4197838 37.0911892 29.4197838 37.0911892 23.9808649 39.8576757 23.9808649"></polygon>
                <g id="Group-7" transform="translate(0.000000, 1.381784)">
                    <mask id="mask-2" fill="white">
                        <use xlink:href="#path-1"></use>
                    </mask>
                    <g id="Clip-6"></g>
                    <path d="M29.0605946,55.9073514 L28.7184324,55.9041081 C14.2211351,55.7257297 2.44654054,43.7646486 2.47244369,29.2397838 C2.49518919,14.6111351 14.4335676,2.71005405 29.0865405,2.71005405 C36.198973,2.71005405 42.8784324,5.47978378 47.8941081,10.5068108 C52.9114054,15.5338378 55.6697838,22.2295135 55.6681629,29.3597838 C55.6616757,43.9981622 43.7265405,55.9073514 29.0605946,55.9073514 M29.0849189,0.240324324 C13.0373514,0.238702703 0.0270810811,13.2246486 -0.000525645512,29.2365405 C-0.0264324324,45.2484324 12.8443784,58.1792432 28.6876216,58.3754595 C45.0108649,58.5781622 58.133027,45.4057297 58.1395173,29.3614054 C58.1476216,13.2554595 45.1584324,0.240324324 29.0849189,0.240324324" id="Fill-5" fill="#333132" mask="url(#mask-2)"></path>
                </g>
            </g>
        </g>
    </g>
</svg>