<?xml version="1.0" encoding="UTF-8"?>
<svg width="57px" height="58px" viewBox="0 0 57 58" version="1.1" xmlns="http://www.w3.org/2000/svg" xmlns:xlink="http://www.w3.org/1999/xlink">
    <!-- Generator: Sketch 55.2 (78181) - https://sketchapp.com -->
    <title>mortise-icon-8</title>
    <desc>Created with Sketch.</desc>
    <defs>
        <polygon id="path-1" points="0 0.233684211 56.60953 0.233684211 56.60953 56.8421053 0 56.8421053"></polygon>
    </defs>
    <g id="Page-1" stroke="none" stroke-width="1" fill="none" fill-rule="evenodd">
        <g id="Populife---Mortise" transform="translate(-794.000000, -1091.000000)">
            <g id="mortise-icon-8" transform="translate(794.000000, 1090.000000)">
                <g id="Group-3" transform="translate(0.000000, 1.345421)">
                    <mask id="mask-2" fill="white">
                        <use xlink:href="#path-1"></use>
                    </mask>
                    <g id="Clip-2"></g>
                    <path d="M28.2958421,54.4351579 L27.9626842,54.4335789 C13.8484737,54.2598947 2.38215789,42.6135789 2.40737939,28.4709474 C2.42794737,14.2272632 14.0537368,2.63936842 28.3211053,2.63936842 C35.2463684,2.63936842 41.7500526,5.33463158 46.6321579,10.2293684 C51.519,15.1256842 54.2047895,21.6451579 54.2016344,28.5862105 C54.1968947,42.8393684 42.5774211,54.4351579 28.2958421,54.4351579 M28.3211053,0.233052632 C12.6942632,0.233052632 0.0263684211,12.8772632 -0.000511817528,28.4677895 C-0.0257368421,44.0583158 12.5047895,56.6472632 27.9326842,56.8398947 C43.8263684,57.0356842 56.6032105,44.2098947 56.60953,28.5877895 C56.6174211,12.9072632 43.9716316,0.233052632 28.3211053,0.233052632" id="Fill-1" fill="#333132" mask="url(#mask-2)"></path>
                </g>
                <path d="M41.3823158,30.9014211 C41.2907368,30.9014211 41.2291579,30.8508947 41.2023158,30.8208947 C41.1675789,30.7845789 41.1296842,30.7245789 41.136,30.6361579 C41.1502105,30.3851053 41.1581053,30.1340526 41.1581053,29.883 C41.1391579,22.8124737 35.3728421,17.0919474 28.3054737,17.0919474 C24.3802105,17.0919474 20.5986316,18.9314211 18.186,22.0135263 L17.8133684,22.4872105 L19.6575789,24.3282632 C19.7586316,24.4293158 19.7317895,24.5508947 19.716,24.5998421 C19.7017895,24.6440526 19.6575789,24.7419474 19.5486316,24.753 L13.3023158,25.6419474 C13.2312632,25.6087895 13.0607368,25.5045789 13.0812632,25.353 L13.9765263,19.2140526 C13.9875789,19.1082632 14.0365263,19.0435263 14.1012632,19.0261579 L14.1107368,19.0372105 L14.3870526,19.0782632 L16.1081053,20.7708947 L16.5817895,20.2040526 C19.5186316,16.6845789 23.7912632,14.6651053 28.3054737,14.6651053 C36.6944211,14.6651053 43.5202105,21.4940526 43.5217895,29.883 C43.5217895,30.0472105 43.5202105,30.2177368 43.5138947,30.3835263 C43.5091579,30.5051053 43.4191579,30.6061579 43.3007368,30.6219474 L41.3823158,30.9014211 Z" id="Fill-4" fill="#333132"></path>
                <path d="M28.305,45.1010526 C20.1118421,45.1010526 13.2828947,38.4426316 13.0886842,30.2605263 L13.0886842,30.0836842 C13.0871053,29.8705263 13.0855263,29.5515789 13.1028947,29.1805263 C13.1092105,29.0605263 13.1992105,28.9626316 13.3192105,28.9452632 C13.3192105,28.9452632 15.2028947,28.68 15.2076316,28.68 C15.3055263,28.68 15.3686842,28.71 15.4144737,28.7605263 C15.4476316,28.7984211 15.4871053,28.86 15.4792105,28.95 C15.4476316,29.3336842 15.4492105,29.5863158 15.4507895,29.7473684 C15.4507895,36.9363158 21.2186842,42.6742105 28.305,42.6742105 C32.2886842,42.6742105 36.1018421,40.7921053 38.505,37.6373684 L38.8634211,37.1636842 L36.9544737,35.2515789 C36.8518421,35.1489474 36.8786842,35.0273684 36.8928947,34.9815789 C36.9102632,34.9294737 36.9560526,34.8378947 37.065,34.8268421 C37.065,34.8268421 43.2497368,33.9505263 43.2576316,33.9505263 C43.3507895,33.9505263 43.4107895,33.9821053 43.4581579,34.0357895 C43.5086842,34.0942105 43.5355263,34.1668421 43.5276316,34.2252632 L42.6339474,40.3673684 C42.6228947,40.47 42.5739474,40.5347368 42.5139474,40.5536842 L42.5013158,40.5394737 L42.225,40.5047368 L40.5939474,38.8752632 L40.1171053,39.4578947 C37.1881579,43.0421053 32.8823684,45.1010526 28.305,45.1010526" id="Fill-6" fill="#333132"></path>
            </g>
        </g>
    </g>
</svg>