<?xml version="1.0" encoding="UTF-8"?>
<svg width="60px" height="60px" viewBox="0 0 60 60" version="1.1" xmlns="http://www.w3.org/2000/svg" xmlns:xlink="http://www.w3.org/1999/xlink">
    <!-- Generator: Sketch 55.2 (78181) - https://sketchapp.com -->
    <title>mortise-icon-7</title>
    <desc>Created with Sketch.</desc>
    <defs>
        <polygon id="path-1" points="0 59.7535 59.755 59.7535 59.755 0.000166666667 0 0.000166666667"></polygon>
    </defs>
    <g id="Page-1" stroke="none" stroke-width="1" fill="none" fill-rule="evenodd">
        <g id="Populife---Mortise" transform="translate(-602.000000, -1090.000000)">
            <g id="mortise-icon-7" transform="translate(602.000000, 1090.000000)">
                <path d="M29.8775,23.0943333 C33.6158333,23.0943333 36.6591667,26.1376667 36.6591667,29.876 L36.6591667,40.5993333 L23.0958333,40.5993333 L23.0958333,29.876 C23.0958333,26.1376667 26.1375,23.0943333 29.8775,23.0943333 L29.8775,23.0943333 Z M38.5958333,44.4743333 L21.1575,44.4743333 L21.1575,43.506 C21.1575,42.971 21.5908333,42.5376667 22.1275,42.5376667 L37.6275,42.5376667 C38.1625,42.5376667 38.5958333,42.971 38.5958333,43.506 L38.5958333,44.4743333 Z M21.1575,29.876 L21.1575,40.766 C20.0291667,41.166 19.2191667,42.2426667 19.2191667,43.506 L19.2191667,46.4126667 L40.5358333,46.4126667 L40.5358333,43.506 C40.5358333,42.2426667 39.7241667,41.166 38.5958333,40.766 L38.5958333,29.876 C38.5958333,25.0693333 34.6858333,21.156 29.8775,21.156 C25.0691667,21.156 21.1575,25.0693333 21.1575,29.876 L21.1575,29.876 Z" id="Fill-1" fill="#333132"></path>
                <mask id="mask-2" fill="white">
                    <use xlink:href="#path-1"></use>
                </mask>
                <g id="Clip-4"></g>
                <polygon id="Fill-3" fill="#333132" mask="url(#mask-2)" points="28.9066667 32.7835 30.845 32.7835 30.845 26.9701667 28.9066667 26.9701667"></polygon>
                <polygon id="Fill-5" fill="#333132" mask="url(#mask-2)" points="28.9066667 36.6601667 30.845 36.6601667 30.845 34.7218333 28.9066667 34.7218333"></polygon>
                <polygon id="Fill-6" fill="#333132" mask="url(#mask-2)" points="13.3416667 30.8468333 17.2816667 30.8468333 17.2816667 28.9085 13.3416667 28.9085"></polygon>
                <polygon id="Fill-7" fill="#333132" mask="url(#mask-2)" points="42.4716667 30.8468333 46.4116667 30.8468333 46.4116667 28.9085 42.4716667 28.9085"></polygon>
                <polygon id="Fill-8" fill="#333132" mask="url(#mask-2)" points="40.8378333 17.545 42.2078333 18.915 39.4695 21.655 38.0978333 20.285"></polygon>
                <polygon id="Fill-9" fill="#333132" mask="url(#mask-2)" points="20.286 21.6556667 17.5443333 18.9156667 18.916 17.5456667 21.656 20.2856667"></polygon>
                <polygon id="Fill-10" fill="#333132" mask="url(#mask-2)" points="28.9066667 17.2801667 30.845 17.2801667 30.845 13.3401667 28.9066667 13.3401667"></polygon>
                <path d="M29.8678333,57.2138333 L29.5161667,57.2105 C14.6178333,57.0271667 2.5145,44.7338333 2.54112269,29.8055 C2.56283333,14.7705 14.8345,2.53883333 29.8945,2.53883333 C37.2045,2.53883333 44.0695,5.3855 49.2228333,10.5521667 C54.3811667,15.7188333 57.2161667,22.6005 57.2128363,29.9288333 C57.2078333,44.9738333 44.9428333,57.2138333 29.8678333,57.2138333 M29.8945,0.0005 C13.3995,-0.00116666667 0.0278333333,13.3455 -0.000540251835,29.8021667 C-0.0271666667,46.2588333 13.1995,59.5488333 29.4845,59.7505 C46.2611667,59.9588333 59.7478333,46.4205 59.7545039,29.9305 C59.7628333,13.3771667 46.4145,0.0005 29.8945,0.0005" id="Fill-11" fill="#333132" mask="url(#mask-2)"></path>
            </g>
        </g>
    </g>
</svg>