<?xml version="1.0" encoding="UTF-8"?>
<svg width="119px" height="40px" viewBox="0 0 119 40" version="1.1" xmlns="http://www.w3.org/2000/svg" xmlns:xlink="http://www.w3.org/1999/xlink">
    <!-- Generator: Sketch 55.2 (78181) - https://sketchapp.com -->
    <title>app-store</title>
    <desc>Created with Sketch.</desc>
    <g id="Page-1" stroke="none" stroke-width="1" fill="none" fill-rule="evenodd">
        <g id="Populife---Smart-Keybox---Mobile" transform="translate(-50.000000, -4040.000000)" fill-rule="nonzero">
            <g id="Group-7" transform="translate(50.000000, 4040.000000)">
                <g id="app-store" transform="translate(0.000000, 0.000000)">
                    <path d="M109.045545,0 L8.35643564,0 C8.05148515,0 7.75445545,0 7.44554455,0 C6.78196402,0.00676182425 6.11990944,0.0650226272 5.46534653,0.174257426 C4.80294582,0.288893816 4.16190886,0.503908295 3.56435644,0.811881188 C2.97958594,1.1178911 2.44530061,1.51192653 1.98019802,1.98019802 C1.5084358,2.44974469 1.11410181,2.99111848 0.811881188,3.58415842 C0.510191269,4.17562084 0.30178769,4.81018302 0.194059406,5.46534653 C0.0835290367,6.11980989 0.0239442829,6.78186271 0.0158415842,7.44554455 C0.0158415842,7.75049505 0.0158415842,8.05148515 0.0158415842,8.35643564 L0.0158415842,31.2475248 C0.0158415842,31.5524752 0.0158415842,31.849505 0.0158415842,32.1584158 C0.0239442829,32.8220977 0.0835290367,33.4841505 0.194059406,34.1386139 C0.300800446,34.8003304 0.509202377,35.4415672 0.811881188,36.039604 C1.11404166,36.6267722 1.50849864,37.1616291 1.98019802,37.6237624 C2.44224198,38.1009204 2.97691246,38.5019232 3.56435644,38.8118812 C4.15710553,39.1121488 4.79103941,39.3230152 5.44554455,39.4376238 C6.10035564,39.5448965 6.76226034,39.6031442 7.42574257,39.6118812 C7.73465347,39.6118812 8.03168317,39.6118812 8.33663366,39.6118812 L110.118812,39.6118812 C110.419802,39.6118812 110.728713,39.6118812 111.029703,39.6118812 C111.693204,39.603515 112.355136,39.5452649 113.009901,39.4376238 C113.667124,39.3237722 114.30378,39.1128882 114.89901,38.8118812 C115.487287,38.5032413 116.022156,38.1020896 116.483168,37.6237624 C116.959483,37.1609759 117.36038,36.6264465 117.671287,36.039604 C117.967814,35.4449566 118.174676,34.8096878 118.285149,34.1544554 C118.393096,33.4995883 118.453978,32.8378276 118.467327,32.1742574 C118.467327,31.8653465 118.467327,31.5683168 118.467327,31.2633663 C118.467327,30.9584158 118.467327,30.5425743 118.467327,30.1782178 L118.467327,9.44158416 C118.467327,9.08118812 118.467327,8.72079208 118.467327,8.36039604 C118.467327,8 118.467327,7.75445545 118.467327,7.44950495 C118.453978,6.78593475 118.393096,6.12417405 118.285149,5.46930693 C118.175095,4.81523636 117.968203,4.18121309 117.671287,3.58811881 C117.059965,2.39676525 116.090363,1.42716382 114.89901,0.815841584 C114.304447,0.513232775 113.667545,0.302267227 113.009901,0.19009901 C112.355385,0.0804978096 111.693302,0.0222344862 111.029703,0.0158415842 L110.118812,0.0158415842 L109.045545,0 Z" id="Shape" fill="#A6A6A6"></path>
                    <path d="M8.36039604,38.7366337 L7.46534653,38.7366337 C6.84568734,38.7281295 6.22750316,38.6738564 5.61584158,38.5742574 C5.03930896,38.4736401 4.48122877,38.2867233 3.96039604,38.019802 C3.44736837,37.7610347 2.97933628,37.4213771 2.57425743,37.0138614 C2.17455455,36.6117183 1.84045508,36.1493246 1.58415842,35.6435644 C1.32243428,35.1264831 1.14209321,34.5721013 1.04950495,34 C0.946464955,33.3860455 0.890855023,32.7650679 0.883168317,32.1425743 C0.883168317,31.9366337 0.883168317,31.239604 0.883168317,31.239604 L0.883168317,8.36039604 C0.883168317,8.36039604 0.883168317,7.67524752 0.883168317,7.47326733 C0.891808108,6.8523016 0.946079736,6.23281081 1.04554455,5.61980198 C1.13976239,5.04252172 1.32138432,4.48296591 1.58415842,3.96039604 C1.84257019,3.44715171 2.1822671,2.97906542 2.59009901,2.57425743 C2.99266386,2.17505151 3.45497514,1.84101157 3.96039604,1.58415842 C4.47501548,1.32240942 5.02658699,1.14077812 5.5960396,1.04554455 C6.21011651,0.943986758 6.83108143,0.889701978 7.45346535,0.883168317 L8.34455446,0.883168317 L110.09901,0.883168317 L111.005941,0.883168317 C111.621758,0.889713114 112.236141,0.944001259 112.843564,1.04554455 C113.423693,1.13843161 113.986058,1.32009838 114.510891,1.58415842 C116.073807,2.38053898 117.159495,3.87870009 117.429703,5.61188119 C117.533412,6.22988526 117.591654,6.85466352 117.60396,7.48118812 C117.60396,7.75841584 117.60396,8.05940594 117.60396,8.36039604 C117.60396,8.73267327 117.60396,9.08514851 117.60396,9.44158416 L117.60396,30.1623762 C117.60396,30.5227723 117.60396,30.8752475 117.60396,31.2277228 C117.60396,31.580198 117.60396,31.8455446 117.60396,32.1465347 C117.591008,32.7623486 117.534097,33.3764516 117.433663,33.9841584 C117.342474,34.5616483 117.162105,35.1214619 116.89901,35.6435644 C116.636471,36.1507219 116.297155,36.6142749 115.893069,37.0178218 C115.488106,37.426536 115.020093,37.7675167 114.506931,38.0277228 C113.991635,38.287842 113.440316,38.46939 112.871287,38.5663366 C112.259626,38.6659356 111.641441,38.7202087 111.021782,38.7287129 L110.134653,38.7287129 L8.36039604,38.7287129 L8.36039604,38.7366337 Z" id="Shape" fill="#000000"></path>
                    <g id="_Group_" transform="translate(9.504950, 8.316832)" fill="#FFFFFF">
                        <g id="_Group_2">
                            <g id="_Group_3">
                                <path d="M15.0178218,11.7821782 C15.0407,10.1029971 15.9207146,8.55213939 17.350495,7.67128713 C16.4429222,6.3726872 14.9737963,5.58082835 13.390099,5.53663366 C11.7267327,5.36237624 10.1148515,6.53069307 9.26732673,6.53069307 C8.41980198,6.53069307 7.0970297,5.55247525 5.7029703,5.58019802 C3.85415239,5.64057826 2.17227178,6.66563865 1.27128713,8.28118812 C-0.637623762,11.5960396 0.792079208,16.4712871 2.62574257,19.1485149 C3.54059406,20.4633663 4.60594059,21.9207921 6.01980198,21.8772277 C7.43366337,21.8336634 7.92079208,20.990099 9.56435644,20.990099 C11.2079208,20.990099 11.6871287,21.8653465 13.1287129,21.829703 C14.570297,21.7940594 15.5326733,20.5148515 16.4158416,19.1881188 C17.076446,18.2537922 17.5844268,17.2204523 17.9207921,16.1267327 C16.1724129,15.3881478 15.0311287,13.680114 15.0178218,11.7821782 L15.0178218,11.7821782 Z" id="_Path_"></path>
                                <path d="M12.3128713,3.77425743 C13.1165281,2.8091827 13.5128395,1.56911166 13.4178218,0.316831683 C12.1932983,0.449051574 11.0628208,1.03548677 10.249505,1.96039604 C9.44234155,2.87368142 9.03193213,4.07070888 9.10891089,5.28712871 C10.3527491,5.30250535 11.534442,4.74452427 12.3128713,3.77425743 Z" id="_Path_2"></path>
                            </g>
                        </g>
                        <path d="M32.380198,18.5544554 L27.6910891,18.5544554 L26.5663366,21.8772277 L24.5861386,21.8772277 L29.0257426,9.6 L31.0851485,9.6 L35.5247525,21.8772277 L33.5049505,21.8772277 L32.380198,18.5544554 Z M28.1782178,17.029703 L31.8930693,17.029703 L30.0594059,11.6277228 L30.0079208,11.6277228 L28.1782178,17.029703 Z" id="Shape"></path>
                        <path d="M45.1089109,17.3940594 C45.1089109,20.1663366 43.6158416,21.9722772 41.3663366,21.9722772 C40.2007268,22.0272203 39.1059606,21.4121831 38.5465347,20.3881188 L38.5029703,20.3881188 L38.5029703,24.8435644 L36.6653465,24.8435644 L36.6653465,12.9148515 L38.4435644,12.9148515 L38.4435644,14.4039604 L38.4792079,14.4039604 C39.0646475,13.3883028 40.1630612,12.7789194 41.3346535,12.819802 C43.6079208,12.819802 45.1089109,14.6178218 45.1089109,17.3940594 Z M43.2158416,17.3940594 C43.2158416,15.580198 42.2772277,14.3881188 40.839604,14.3881188 C39.4019802,14.3881188 38.4871287,15.6079208 38.4871287,17.3940594 C38.4871287,19.180198 39.4336634,20.4118812 40.839604,20.4118812 C42.2455446,20.4118812 43.2158416,19.2277228 43.2158416,17.3940594 Z" id="Shape"></path>
                        <path d="M54.9742574,17.3940594 C54.9742574,20.1663366 53.4851485,21.9722772 51.2316832,21.9722772 C50.0660734,22.0272203 48.9713071,21.4121831 48.4118812,20.3881188 L48.3722772,20.3881188 L48.3722772,24.8435644 L46.5306931,24.8435644 L46.5306931,12.9148515 L48.3168317,12.9148515 L48.3168317,14.4039604 L48.3485149,14.4039604 C48.9339545,13.3883028 50.0323681,12.7789194 51.2039604,12.819802 C53.4653465,12.819802 54.9742574,14.6178218 54.9742574,17.3940594 Z M53.0851485,17.3940594 C53.0851485,15.580198 52.1465347,14.3881188 50.7089109,14.3881188 C49.2712871,14.3881188 48.360396,15.6079208 48.360396,17.3940594 C48.360396,19.180198 49.3029703,20.4118812 50.7089109,20.4118812 C52.1148515,20.4118812 53.0851485,19.2237624 53.0851485,17.3940594 Z" id="Shape"></path>
                        <path d="M61.4970297,18.4514851 C61.6316832,19.6712871 62.8158416,20.4712871 64.4356436,20.4712871 C65.9841584,20.4712871 67.1009901,19.6792079 67.1009901,18.570297 C67.1009901,17.6158416 66.4277228,17.0455446 64.8356436,16.6534653 L63.2514851,16.2574257 C60.9940594,15.7148515 59.9485149,14.6732673 59.9485149,12.9425743 C59.9485149,10.8237624 61.7980198,9.37821782 64.419802,9.37821782 C67.0415842,9.37821782 68.8,10.8356436 68.8594059,12.9425743 L67.0019802,12.9425743 C66.8910891,11.7188119 65.8772277,10.9623762 64.3960396,10.9623762 C62.9148515,10.9623762 61.8970297,11.7108911 61.8970297,12.8 C61.8970297,13.6712871 62.5465347,14.1821782 64.1306931,14.5742574 L65.4851485,14.9069307 C68.0079208,15.5009901 69.049505,16.5148515 69.049505,18.3128713 C69.049505,20.6138614 67.2158416,22.0554455 64.2970297,22.0554455 C61.5722772,22.0554455 59.7306931,20.649505 59.6118812,18.4237624 L61.4970297,18.4514851 Z" id="Shape"></path>
                        <path d="M73.0138614,10.7920792 L73.0138614,12.9148515 L74.7207921,12.9148515 L74.7207921,14.3722772 L73.0138614,14.3722772 L73.0138614,19.3108911 C73.0138614,20.0792079 73.3584158,20.4356436 74.1069307,20.4356436 C74.3095109,20.4342839 74.5118375,20.4210599 74.7128713,20.3960396 L74.7128713,21.8415842 C74.3762354,21.9060915 74.0337867,21.9352926 73.6910891,21.9287129 C71.8732673,21.9287129 71.1683168,21.2475248 71.1683168,19.5089109 L71.1683168,14.360396 L69.8653465,14.360396 L69.8653465,12.9148515 L71.1683168,12.9148515 L71.1683168,10.7920792 L73.0138614,10.7920792 Z" id="Shape"></path>
                        <path d="M75.7069307,17.3940594 C75.7069307,14.5742574 77.370297,12.8039604 79.960396,12.8039604 C82.550495,12.8039604 84.209901,14.5742574 84.209901,17.3940594 C84.209901,20.2138614 82.5663366,21.9881188 79.960396,21.9881188 C77.3544554,21.9881188 75.7069307,20.2257426 75.7069307,17.3940594 Z M82.3366337,17.3940594 C82.3366337,15.4613861 81.449505,14.3207921 79.960396,14.3207921 C78.4712871,14.3207921 77.5841584,15.4693069 77.5841584,17.3940594 C77.5841584,19.3188119 78.4673267,20.4712871 79.960396,20.4712871 C81.4534653,20.4712871 82.3366337,19.3386139 82.3366337,17.3940594 Z" id="Shape"></path>
                        <path d="M85.7267327,12.9148515 L87.4851485,12.9148515 L87.4851485,14.439604 L87.5247525,14.439604 C87.7697504,13.4565919 88.670854,12.7803509 89.6831683,12.819802 C89.8948308,12.8204434 90.1058577,12.843006 90.3128713,12.8871287 L90.3128713,14.609901 C90.0449459,14.5276399 89.7652785,14.4901725 89.4851485,14.4990099 C88.9934713,14.4786428 88.5138771,14.6546388 88.1520818,14.9882037 C87.7902865,15.3217685 87.5759924,15.7855176 87.5564356,16.2772277 C87.548461,16.3707875 87.548461,16.4648561 87.5564356,16.5584158 L87.5564356,21.8772277 L85.7148515,21.8772277 L85.7267327,12.9148515 Z" id="Shape"></path>
                        <path d="M98.7960396,19.2435644 C98.5465347,20.8712871 96.9623762,21.9881188 94.9346535,21.9881188 C92.3287129,21.9881188 90.6930693,20.2415842 90.6930693,17.4257426 C90.6930693,14.609901 92.3207921,12.7920792 94.8435644,12.7920792 C97.3663366,12.7920792 98.8831683,14.4950495 98.8831683,17.2118812 L98.8831683,17.8415842 L92.5465347,17.8415842 L92.5465347,17.9524752 C92.432062,19.2373818 93.3805018,20.371964 94.6653465,20.4871287 C94.7643564,20.4871287 94.8594059,20.4871287 94.9584158,20.4871287 C95.8521041,20.5697287 96.6941076,20.0561548 97.029703,19.2237624 L98.7960396,19.2435644 Z M92.5742574,16.570297 L97.0574257,16.570297 C97.1226996,15.3820214 96.2138605,14.3651138 95.0257426,14.2970297 L94.8594059,14.2970297 C94.2568619,14.2928152 93.6773796,14.5284107 93.2487139,14.9518759 C92.8200482,15.3753412 92.5773974,15.9519048 92.5742574,16.5544554 L92.5742574,16.570297 Z" id="Shape"></path>
                    </g>
                    <g id="_Group_4" transform="translate(35.247525, 8.316832)" fill="#FFFFFF">
                        <path d="M2.20594059,0.328712871 C3.64491999,0.226637487 4.8945339,1.30963621 4.9980198,2.74851485 C5.01580209,2.91967138 5.01580209,3.09220981 4.9980198,3.26336634 C4.9980198,5.15247525 3.98019802,6.23366337 2.22574257,6.23366337 L0.0712871287,6.23366337 L0.0712871287,0.328712871 L2.20594059,0.328712871 Z M0.986138614,5.4019802 L2.1029703,5.4019802 C2.59753026,5.43449552 3.08463611,5.26843044 3.45634159,4.94058621 C3.82804707,4.61274198 4.05365476,4.15019371 4.08316832,3.65544554 C4.09604059,3.52374613 4.09604059,3.39110536 4.08316832,3.25940594 C4.22197127,2.24320395 3.51432158,1.30556811 2.4990099,1.16039604 C2.38049389,1.14853797 2.26109026,1.14853797 2.14257426,1.16039604 L0.986138614,1.16039604 L0.986138614,5.4019802 Z" id="Shape"></path>
                        <path d="M6.01980198,4.0039604 C5.9490563,3.25264146 6.28450848,2.52065177 6.89979693,2.08372476 C7.51508538,1.64679775 8.31673314,1.57131302 9.00276726,1.88570495 C9.68880137,2.20009689 10.1549969,2.85660186 10.2257426,3.60792079 C10.2373861,3.73967726 10.2373861,3.87220393 10.2257426,4.0039604 C10.2964883,4.75527933 9.96103607,5.48726902 9.34574762,5.92419603 C8.73045917,6.36112305 7.92881141,6.43660777 7.2427773,6.12221584 C6.55674319,5.80782391 6.09054763,5.15131894 6.01980198,4.4 C6.00861329,4.26822387 6.00861329,4.13573653 6.01980198,4.0039604 L6.01980198,4.0039604 Z M9.31881188,4.0039604 C9.31881188,3.03762376 8.88712871,2.47128713 8.13069307,2.47128713 C7.37425743,2.47128713 6.94257426,3.03762376 6.94257426,4.0039604 C6.94257426,4.97029703 7.37029703,5.54059406 8.13069307,5.54059406 C8.89108911,5.54059406 9.31881188,4.97425743 9.31881188,4.0039604 L9.31881188,4.0039604 Z" id="Shape"></path>
                        <polygon id="Shape" points="15.8138614 6.23366337 14.9029703 6.23366337 13.980198 2.95049505 13.9128713 2.95049505 12.9940594 6.23366337 12.0910891 6.23366337 10.8594059 1.77821782 11.7544554 1.77821782 12.5465347 5.18019802 12.6138614 5.18019802 13.5287129 1.77821782 14.3722772 1.77821782 15.2910891 5.18019802 15.3584158 5.18019802 16.150495 1.77821782 17.029703 1.77821782"></polygon>
                        <path d="M18.0712871,1.77821782 L18.9188119,1.77821782 L18.9188119,2.48712871 L18.9861386,2.48712871 C19.2145773,1.96561426 19.749493,1.64721207 20.3168317,1.6950495 C20.7561226,1.66254799 21.1863575,1.83156657 21.486061,2.1543834 C21.7857644,2.47720024 21.9224135,2.91878416 21.8574257,3.35445545 L21.8574257,6.23762376 L20.990099,6.23762376 L20.990099,3.56435644 C20.990099,2.85148515 20.6811881,2.4950495 20.0277228,2.4950495 C19.7566531,2.48214776 19.4915858,2.5776093 19.2909853,2.76037866 C19.0903848,2.94314801 18.9707311,3.19821003 18.9584158,3.46930693 C18.9584158,3.52079208 18.9584158,3.57227723 18.9584158,3.62376238 L18.9584158,6.22970297 L18.0792079,6.22970297 L18.0712871,1.77821782 Z" id="Shape"></path>
                        <polygon id="Shape" points="23.2594059 0.0356435644 24.1584158 0.0356435644 24.1584158 6.23366337 23.2752475 6.23366337"></polygon>
                        <path d="M25.3465347,4.0039604 C25.275789,3.25264146 25.6112412,2.52065177 26.2265296,2.08372476 C26.8418181,1.64679775 27.6434658,1.57131302 28.3294999,1.88570495 C29.015534,2.20009689 29.4817296,2.85660186 29.5524752,3.60792079 C29.5641187,3.73967726 29.5641187,3.87220393 29.5524752,4.0039604 C29.6232209,4.75527933 29.2877687,5.48726902 28.6724803,5.92419603 C28.0571918,6.36112305 27.2555441,6.43660777 26.56951,6.12221584 C25.8834759,5.80782391 25.4172803,5.15131894 25.3465347,4.4 C25.335346,4.26822387 25.335346,4.13573653 25.3465347,4.0039604 L25.3465347,4.0039604 Z M28.649505,4.0039604 C28.649505,3.03762376 28.2138614,2.47128713 27.4613861,2.47128713 C26.7089109,2.47128713 26.2732673,3.03762376 26.2732673,4.0039604 C26.2732673,4.97029703 26.7049505,5.54059406 27.4613861,5.54059406 C28.2178218,5.54059406 28.6653465,4.97425743 28.6653465,4.0039604 L28.649505,4.0039604 Z" id="Shape"></path>
                        <path d="M30.4950495,4.97425743 C30.4950495,4.18217822 31.0930693,3.71089109 32.1544554,3.64356436 L33.3623762,3.57227723 L33.3623762,3.17623762 C33.3623762,2.7049505 33.049505,2.43960396 32.4475248,2.43960396 C31.9564356,2.43960396 31.6158416,2.62178218 31.5207921,2.93465347 L30.6693069,2.93465347 C30.7564356,2.17029703 31.4613861,1.67920792 32.4910891,1.67920792 C33.6079208,1.67920792 34.2376238,2.23366337 34.2376238,3.17623762 L34.2376238,6.22178218 L33.390099,6.22178218 L33.390099,5.60792079 L33.3227723,5.60792079 C33.0339992,6.06615806 32.5212602,6.33387137 31.980198,6.30891089 C31.2451932,6.3853074 30.5859476,5.85508304 30.5029703,5.12079208 C30.4950495,5.06534653 30.4950495,5.01782178 30.4950495,4.97425743 Z M33.3623762,4.57821782 L33.3623762,4.20594059 L32.2732673,4.27326733 C31.6594059,4.31683168 31.3821782,4.52277228 31.3821782,4.91881188 C31.3821782,5.31485149 31.7267327,5.55247525 32.2059406,5.55247525 C32.4833168,5.58124244 32.7607376,5.49843575 32.9769631,5.32233457 C33.1931886,5.14623339 33.3304387,4.89131836 33.3584158,4.61386139 C33.3584158,4.61386139 33.3623762,4.60594059 33.3623762,4.59405941 L33.3623762,4.57821782 Z" id="Shape"></path>
                        <path d="M35.3940594,4.0039604 C35.3940594,2.59405941 36.1188119,1.7029703 37.2435644,1.7029703 C37.8147446,1.67697058 38.3486241,1.98646596 38.609901,2.4950495 L38.6772277,2.4950495 L38.6772277,0.0356435644 L39.5564356,0.0356435644 L39.5564356,6.23366337 L38.7128713,6.23366337 L38.7128713,5.54455446 L38.6455446,5.54455446 C38.3623738,6.04924803 37.8219936,6.35454756 37.2435644,6.33663366 C36.1108911,6.30891089 35.3940594,5.41782178 35.3940594,4.0039604 Z M36.3009901,4.0039604 C36.3009901,4.95049505 36.7485149,5.52079208 37.4891089,5.52079208 C38.229703,5.52079208 38.6772277,4.94257426 38.6772277,4.00792079 C38.6772277,3.07326733 38.2138614,2.4950495 37.4891089,2.4950495 C36.7643564,2.4950495 36.3009901,3.06534653 36.3009901,4.0039604 L36.3009901,4.0039604 Z" id="Shape"></path>
                        <path d="M43.1960396,4.0039604 C43.0866763,2.84252197 43.9395517,1.81233361 45.1009901,1.7029703 C46.2624285,1.59360698 47.2926169,2.44648237 47.4019802,3.60792079 C47.4136237,3.73967726 47.4136237,3.87220393 47.4019802,4.0039604 C47.4727259,4.75527935 47.1372737,5.48726907 46.5219853,5.9241961 C45.9066968,6.36112314 45.105049,6.43660786 44.4190149,6.12221591 C43.7329808,5.80782396 43.2667852,5.15131896 43.1960396,4.4 C43.1848509,4.26822387 43.1848509,4.13573653 43.1960396,4.0039604 L43.1960396,4.0039604 Z M46.4990099,4.0039604 C46.4990099,3.03762376 46.0633663,2.47128713 45.3108911,2.47128713 C44.5584158,2.47128713 44.1227723,3.03762376 44.1227723,4.0039604 C44.1227723,4.97029703 44.5544554,5.54059406 45.3108911,5.54059406 C46.0673267,5.54059406 46.4990099,4.97425743 46.4990099,4.0039604 Z" id="Shape"></path>
                        <path d="M48.5821782,1.77821782 L49.429703,1.77821782 L49.429703,2.48712871 L49.5049505,2.48712871 C49.7324303,1.9647684 50.2680186,1.64596586 50.8356436,1.6950495 C51.2749345,1.66254799 51.7051694,1.83156657 52.0048728,2.1543834 C52.3045763,2.47720024 52.4412254,2.91878416 52.3762376,3.35445545 L52.3762376,6.23762376 L51.4851485,6.23762376 L51.4851485,3.56435644 C51.4851485,2.85148515 51.1762376,2.4950495 50.5227723,2.4950495 C50.2517026,2.48214776 49.9866353,2.5776093 49.7860348,2.76037866 C49.5854343,2.94314801 49.4657806,3.19821003 49.4534653,3.46930693 C49.4534653,3.52079208 49.4534653,3.57227723 49.4534653,3.62376238 L49.4534653,6.22970297 L48.5742574,6.22970297 L48.5821782,1.77821782 Z" id="Shape"></path>
                        <path d="M57.3425743,0.665346535 L57.3425743,1.7980198 L58.3089109,1.7980198 L58.3089109,2.53861386 L57.3425743,2.53861386 L57.3425743,4.83168317 C57.3425743,5.2990099 57.5326733,5.5009901 57.9722772,5.5009901 C58.0843542,5.50875381 58.196834,5.50875381 58.3089109,5.5009901 L58.3089109,6.23366337 C58.1505575,6.26124237 57.9903887,6.27712687 57.829703,6.28118812 C56.8514851,6.28118812 56.4594059,5.93663366 56.4594059,5.09306931 L56.4594059,2.53861386 L55.7544554,2.53861386 L55.7544554,1.7980198 L56.4594059,1.7980198 L56.4594059,0.665346535 L57.3425743,0.665346535 Z" id="Shape"></path>
                        <path d="M59.5089109,0.0356435644 L60.380198,0.0356435644 L60.380198,2.4950495 L60.4514851,2.4950495 C60.6926742,1.97163582 61.2355843,1.65507017 61.809901,1.7029703 C62.6195537,1.6602064 63.311595,2.27968069 63.3584158,3.08910891 C63.3663189,3.18134918 63.3663189,3.27409636 63.3584158,3.36633663 L63.3584158,6.24158416 L62.4752475,6.24158416 L62.4752475,3.56435644 C62.4752475,2.85544554 62.1465347,2.4950495 61.5247525,2.4950495 C60.9517448,2.44710537 60.4482838,2.87256539 60.4,3.44554455 C60.3960411,3.50488454 60.3960411,3.56442239 60.4,3.62376238 L60.4,6.22574257 L59.5207921,6.22574257 L59.5089109,0.0356435644 Z" id="Shape"></path>
                        <path d="M68.4752475,5.02970297 C68.2361653,5.88211565 67.4144181,6.43553724 66.5346535,6.33663366 C65.9962299,6.35151912 65.4741637,6.15073102 65.0844756,5.77889131 C64.6947876,5.4070516 64.4697616,4.89496539 64.4594059,4.35643564 C64.4515154,4.24568492 64.4515154,4.1345131 64.4594059,4.02376238 C64.3874128,3.48334374 64.5330709,2.93646179 64.8643311,2.50344678 C65.1955913,2.07043177 65.6853128,1.78676137 66.2257426,1.71485149 C66.3214111,1.70037876 66.4181031,1.69375602 66.5148515,1.6950495 C67.7584158,1.6950495 68.4950495,2.54257426 68.4950495,3.94059406 L68.4950495,4.24950495 L65.3267327,4.24950495 L65.3267327,4.2970297 C65.2763047,4.94384776 65.7540699,5.51152453 66.4,5.57227723 L66.5108911,5.57227723 C66.9422296,5.62479775 67.3622392,5.41009137 67.5722772,5.02970297 L68.4752475,5.02970297 Z M65.3821782,3.5960396 L67.6316832,3.5960396 C67.6534837,3.31121154 67.560837,3.02944408 67.3742587,2.81313219 C67.1876804,2.59682031 66.9225663,2.46381328 66.6376238,2.44356436 L66.5346535,2.44356436 C66.2331909,2.4393335 65.9423978,2.55504663 65.7262603,2.76524217 C65.5101228,2.97543772 65.3863505,3.26289306 65.3821782,3.56435644 L65.3821782,3.5960396 L65.3821782,3.5960396 Z" id="Shape"></path>
                    </g>
                </g>
            </g>
        </g>
    </g>
</svg>