<?xml version="1.0" encoding="UTF-8"?>
<svg width="58px" height="59px" viewBox="0 0 58 59" version="1.1" xmlns="http://www.w3.org/2000/svg" xmlns:xlink="http://www.w3.org/1999/xlink">
    <!-- Generator: Sketch 55.2 (78181) - https://sketchapp.com -->
    <title>keybox-icon-3</title>
    <desc>Created with Sketch.</desc>
    <defs>
        <polygon id="path-1" points="0 59.7624324 57.7647778 59.7624324 57.7647778 1.62081081 0 1.62081081"></polygon>
    </defs>
    <g id="Page-1" stroke="none" stroke-width="1" fill="none" fill-rule="evenodd">
        <g id="Populife---Smart-Keybox---Mobile" transform="translate(-80.000000, -899.000000)">
            <g id="Group-4" transform="translate(34.000000, 898.000000)">
                <g id="keybox-icon-3" transform="translate(46.000000, 0.000000)">
                    <path d="M19.6521722,42.6535135 C19.6860056,43.2275676 19.40245,43.7740541 18.9126722,44.0724324 C18.4245056,44.3691892 17.8106722,44.3691892 17.3241167,44.0724324 C16.8343389,43.7740541 16.5491722,43.2275676 16.5846167,42.6535135 L16.5846167,40.9102703 C16.5846167,40.0589189 17.2693389,39.3697297 18.1151722,39.3697297 C18.9610056,39.3697297 19.64895,40.0572973 19.6521722,40.9102703 L19.6521722,42.6535135 Z M18.11195,37.6491892 C16.31395,37.6491892 14.8333389,39.0762162 14.7592278,40.8859459 L14.7592278,42.6308108 C14.7092833,43.8697297 15.3360056,45.0372973 16.3945056,45.672973 C17.4530056,46.307027 18.7708944,46.307027 19.8293944,45.672973 C20.8895056,45.0372973 21.5162278,43.8697297 21.4662833,42.6308108 L21.4662833,40.8859459 C21.3905611,39.0762162 19.9115611,37.6491892 18.11195,37.6491892 L18.11195,37.6491892 Z" id="Fill-1" fill="#1F1D1E"></path>
                    <path d="M24.1566778,31.5372973 C24.1566778,32.3918919 23.4687333,33.0843243 22.6212889,33.0843243 C21.7722333,33.0843243 21.0842889,32.3918919 21.0842889,31.5372973 L21.0842889,29.7924324 C21.0875111,28.9410811 21.7738444,28.2518919 22.6212889,28.2518919 C23.4671222,28.2518919 24.1534556,28.9410811 24.1566778,29.7924324 L24.1566778,31.5372973 Z M22.6357889,26.52 C20.8345667,26.52 19.3571778,27.9486486 19.2830667,29.7583784 L19.2830667,31.5032432 C19.3571778,33.3113514 20.8345667,34.74 22.6357889,34.74 C24.4354,34.74 25.9144,33.3113514 25.9885111,31.5032432 L25.9885111,29.7583784 C25.9144,27.9486486 24.4354,26.52 22.6357889,26.52 L22.6357889,26.52 Z" id="Fill-3" fill="#1F1D1E"></path>
                    <path d="M28.8830333,20.2636216 C28.8830333,21.1182162 28.1934778,21.8106486 27.3460333,21.8106486 C26.4985889,21.8106486 25.8090333,21.1182162 25.8090333,20.2636216 L25.8090333,18.5203784 C25.8138667,17.6674054 26.5002,16.9798378 27.3460333,16.9798378 C28.1918667,16.9798378 28.8798111,17.6674054 28.8830333,18.5203784 L28.8830333,20.2636216 Z M27.3428111,15.234973 C25.5448111,15.234973 24.0642,16.6636216 23.9900889,18.4733514 L23.9900889,20.2182162 C24.0642,22.0263243 25.5448111,23.454973 27.3428111,23.454973 C29.1424222,23.454973 30.6214222,22.0263243 30.6955333,20.2182162 L30.6955333,18.4733514 C30.6214222,16.6636216 29.1424222,15.234973 27.3428111,15.234973 L27.3428111,15.234973 Z" id="Fill-5" fill="#1F1D1E"></path>
                    <mask id="mask-2" fill="white">
                        <use xlink:href="#path-1"></use>
                    </mask>
                    <g id="Clip-8"></g>
                    <polygon id="Fill-7" fill="#1F1D1E" mask="url(#mask-2)" points="19.6523333 23.4964865 21.4664444 23.4964865 21.4664444 15.27 19.6523333 15.27"></polygon>
                    <polygon id="Fill-9" fill="#1F1D1E" mask="url(#mask-2)" points="14.7658333 23.4964865 16.5847778 23.4964865 16.5847778 15.27 14.7658333 15.27"></polygon>
                    <polygon id="Fill-10" fill="#1F1D1E" mask="url(#mask-2)" points="14.7658333 34.7521622 16.5847778 34.7521622 16.5847778 26.5078378 14.7658333 26.5078378"></polygon>
                    <polygon id="Fill-11" fill="#1F1D1E" mask="url(#mask-2)" points="25.8038778 45.8865405 23.9897667 45.8865405 23.9897667 37.6600541 25.8087111 37.6600541"></polygon>
                    <polygon id="Fill-12" fill="#1F1D1E" mask="url(#mask-2)" points="28.8823889 45.8862162 30.7077778 45.8862162 30.7077778 37.6597297 28.8823889 37.6597297"></polygon>
                    <polygon id="Fill-13" fill="#1F1D1E" mask="url(#mask-2)" points="28.8179444 34.7521622 30.6385 34.7521622 30.6385 26.5078378 28.8179444 26.5078378"></polygon>
                    <path d="M43.60005,39.3690811 C42.9797722,39.3707027 42.4013833,39.0528649 42.0694944,38.5258378 L41.9261056,38.3052973 L38.8231056,38.3815135 L38.8231056,42.6885405 L33.7046056,42.6885405 L33.7046056,40.8577297 L37.0089944,40.8577297 L37.0089944,36.5555676 L42.1274944,36.5555676 L42.1274944,36.4274595 C42.64305,35.7366486 43.5662167,35.5015135 44.3459944,35.8615135 C45.1257722,36.2215135 45.5527167,37.0777297 45.3706611,37.920973 C45.1869944,38.7658378 44.4458833,39.3674595 43.5887722,39.3690811 L43.60005,39.3690811 Z" id="Fill-14" fill="#1F1D1E" mask="url(#mask-2)"></path>
                    <path d="M43.60005,32.4796216 C43.0248833,32.4796216 42.48355,32.2055676 42.1387722,31.7401622 L41.9953833,31.5488108 L33.7046056,31.6120541 L33.7046056,29.7877297 L42.0694944,29.7877297 L42.0694944,29.6417838 C42.4094389,29.1277297 42.9862167,28.8228649 43.60005,28.8342162 C44.6086056,28.8342162 45.42705,29.6563784 45.42705,30.6715135 C45.42705,31.685027 44.6086056,32.5088108 43.60005,32.5088108 L43.60005,32.4796216 Z" id="Fill-15" fill="#1F1D1E" mask="url(#mask-2)"></path>
                    <path d="M43.60005,25.461737 C43.0264944,25.4633514 42.48355,25.1925405 42.1387722,24.7287568 L41.9953833,24.5374054 L37.0089944,24.6006486 L37.0089944,20.2984865 L33.7046056,20.2984865 L33.7046056,18.4676757 L38.8231056,18.4676757 L38.8231056,22.7747027 L42.0694944,22.7747027 L42.0694944,22.6303784 C42.4013833,22.1033514 42.9797722,21.7838919 43.60005,21.7871351 C44.6086056,21.7871351 45.42705,22.6092973 45.42705,23.6244324 C45.42705,24.6395676 44.6086056,25.461737 43.60005,25.461737" id="Fill-16" fill="#1F1D1E" mask="url(#mask-2)"></path>
                    <path d="M28.8735278,57.2909189 L28.5319722,57.2892973 C14.13025,57.1092973 2.43197222,45.1482162 2.45610151,30.6233514 C2.47869444,15.9947027 14.3413056,4.092 28.8993056,4.092 C35.9656389,4.092 42.6018056,6.86172973 47.5849722,11.8887568 C52.56975,16.9174054 55.31025,23.6130811 55.3086396,30.7417297 C55.3038056,45.3817297 43.4460278,57.2909189 28.8735278,57.2909189 M28.8976944,1.62064865 C12.9541389,1.62064865 0.0281944444,14.6082162 -0.000844460771,30.6201081 C-0.0265833333,46.6336216 12.7608056,59.5628108 28.5029722,59.759027 C44.7220278,59.9617297 57.7575278,46.7892973 57.7655857,30.7433514 C57.7720278,14.6374054 44.8686389,1.62227027 28.8976944,1.62064865" id="Fill-17" fill="#1F1D1E" mask="url(#mask-2)"></path>
                </g>
            </g>
        </g>
    </g>
</svg>