<?xml version="1.0" encoding="UTF-8"?>
<svg width="58px" height="59px" viewBox="0 0 58 59" version="1.1" xmlns="http://www.w3.org/2000/svg" xmlns:xlink="http://www.w3.org/1999/xlink">
    <!-- Generator: Sketch 55.2 (78181) - https://sketchapp.com -->
    <title>keybox-icon-1</title>
    <desc>Created with Sketch.</desc>
    <defs>
        <polygon id="path-1" points="0 0.236756757 57.7647778 0.236756757 57.7647778 58.3783784 0 58.3783784"></polygon>
    </defs>
    <g id="Page-1" stroke="none" stroke-width="1" fill="none" fill-rule="evenodd">
        <g id="Populife---Smart-Keybox---Mobile" transform="translate(-80.000000, -745.000000)">
            <g id="Group" transform="translate(36.000000, 744.000000)">
                <g id="keybox-icon-1" transform="translate(44.000000, 0.000000)">
                    <path d="M28.89705,46.9696216 L28.89705,33.1874595 L37.0009389,40.1442162 L28.89705,46.9696216 Z M28.89705,14.4123243 L36.9848278,21.2182703 L28.89705,27.9236757 L28.89705,14.4123243 Z M39.9283371,40.1652973 C39.9299389,39.6901622 39.7237167,39.2393514 39.3628278,38.9344865 L29.5898278,30.540973 L39.3467167,22.4523243 C39.7076056,22.1474595 39.91705,21.6982703 39.91705,21.2247568 C39.91705,20.7496216 39.7076056,20.3004324 39.3467167,19.9955676 L29.0613833,11.3377297 C28.5877167,10.9371892 27.92555,10.8496216 27.3648833,11.1123243 C26.8042167,11.3766486 26.44655,11.9425946 26.44655,12.5669189 L26.44655,27.8442162 L19.8587167,22.1896216 C19.34155,21.7485405 18.5698278,21.8101622 18.1299944,22.3290811 C17.6917722,22.848 17.7546056,23.6247568 18.26855,24.0674595 L25.7763278,30.5101622 L18.28305,36.7242162 C17.76105,37.1555676 17.6869389,37.9339459 18.1171056,38.4593514 C18.5472722,38.9847568 19.3189944,39.060973 19.8409944,38.6263784 L26.44655,33.1485405 L26.44655,48.8166486 C26.4449389,49.4393514 26.8026056,50.0069189 27.3648833,50.268 C27.57755,50.3685405 27.80955,50.4204324 28.0447722,50.4204324 C28.4169389,50.4204324 28.7778278,50.2874595 29.0613833,50.0442162 L39.3531611,41.3782703 L39.3531611,41.3912432 C39.7156611,41.088 39.9267167,40.6388108 39.9283371,40.1652973 L39.9283371,40.1652973 Z" id="Fill-1" fill="#1F1D1E"></path>
                    <g id="Group-5" transform="translate(0.000000, 1.384054)">
                        <mask id="mask-2" fill="white">
                            <use xlink:href="#path-1"></use>
                        </mask>
                        <g id="Clip-4"></g>
                        <path d="M28.8735278,55.9068649 L28.5319722,55.9052432 C14.13025,55.7252432 2.43197222,43.7641622 2.45610151,29.2392973 C2.47869444,14.6106486 14.3413056,2.70794595 28.8993056,2.70794595 C35.9656389,2.70794595 42.6018056,5.47767568 47.5849722,10.5047027 C52.56975,15.5333514 55.31025,22.229027 55.3086396,29.3576757 C55.3038056,43.9976757 43.4460278,55.9068649 28.8735278,55.9068649 M28.8976944,0.236594595 C12.9541389,0.236594595 0.0281944444,13.2241622 -0.000844460771,29.2360541 C-0.0265833333,45.2495676 12.7608056,58.1787568 28.5029722,58.3765946 C44.7220278,58.5776757 57.7575278,45.4052432 57.7655857,29.3592973 C57.7720278,13.2533514 44.8686389,0.238216216 28.8976944,0.236594595" id="Fill-3" fill="#1F1D1E" mask="url(#mask-2)"></path>
                    </g>
                </g>
            </g>
        </g>
    </g>
</svg>