<?xml version="1.0" encoding="UTF-8"?>
<svg width="58px" height="59px" viewBox="0 0 58 59" version="1.1" xmlns="http://www.w3.org/2000/svg" xmlns:xlink="http://www.w3.org/1999/xlink">
    <!-- Generator: Sketch 55.2 (78181) - https://sketchapp.com -->
    <title>keybox-icon-5</title>
    <desc>Created with Sketch.</desc>
    <defs>
        <polygon id="path-1" points="0 59.7624324 57.7647778 59.7624324 57.7647778 1.62081081 0 1.62081081"></polygon>
    </defs>
    <g id="Page-1" stroke="none" stroke-width="1" fill="none" fill-rule="evenodd">
        <g id="Populife---Smart-Keybox---Mobile" transform="translate(-80.000000, -1053.000000)">
            <g id="Group-6" transform="translate(48.000000, 1052.000000)">
                <g id="keybox-icon-5" transform="translate(32.000000, 0.000000)">
                    <path d="M31.0783333,12.9718378 L26.6848333,12.9718378 C26.2627222,12.9718378 25.9179444,13.3172432 25.9179444,13.7437297 C25.9179444,14.1702162 26.2627222,14.5156216 26.6848333,14.5156216 L31.0783333,14.5156216 C31.5020556,14.5156216 31.8452222,14.1702162 31.8452222,13.7437297 C31.8452222,13.3172432 31.5020556,12.9718378 31.0783333,12.9718378" id="Fill-1" fill="#1F1D1E"></path>
                    <path d="M29.1179333,35.7981081 L29.1179333,34.3597297 L29.9589333,35.0845946 L29.1179333,35.7981081 Z M29.1179333,30.9883784 L29.9541,31.6905405 L29.1179333,32.3862162 L29.1179333,30.9883784 Z M30.9094889,34.6662162 L29.3708778,33.3494595 L30.8982111,32.0845946 C31.0206556,31.9840541 31.0899333,31.8364865 31.0899333,31.6775676 C31.0931556,31.5218919 31.0254889,31.3727027 30.9046556,31.2721622 L29.0599333,29.7348649 C28.9648778,29.657027 28.8472667,29.6148649 28.7264333,29.6132432 C28.6491,29.6132432 28.5749889,29.6310811 28.5073222,29.6651351 C28.3204333,29.7494595 28.2012111,29.9359459 28.2012111,30.1402703 L28.2012111,32.357027 L27.4101556,31.6775676 C27.3199333,31.5981081 27.1991,31.5591892 27.0766556,31.5689189 C26.9558222,31.5786486 26.8446556,31.637027 26.7657111,31.7310811 L26.7657111,31.7359459 C26.6867667,31.8316216 26.6481,31.9532432 26.6593778,32.0764865 C26.6690444,32.1997297 26.7302667,32.3132432 26.8237111,32.3910811 L27.9756556,33.3608108 L26.8237111,34.2948649 C26.6287667,34.457027 26.6013778,34.7472973 26.7592667,34.9451351 C26.8494889,35.0521622 26.9799889,35.1137838 27.1185444,35.1137838 C27.2232667,35.1121622 27.3263778,35.0732432 27.4069333,35.0035135 L28.2012111,34.3467568 L28.2012111,36.6689189 C28.1996,36.8748649 28.3172111,37.0613514 28.5008778,37.1489189 C28.5717667,37.1813514 28.6491,37.1959894 28.7264333,37.1959894 C28.8488778,37.1975676 28.9664889,37.1537838 29.0599333,37.0743243 L30.9046556,35.4737838 C31.0271,35.3764865 31.0963778,35.2272973 31.0963778,35.0732432 C31.0947667,34.9175676 31.0271,34.77 30.9094889,34.6662162 L30.9094889,34.6662162 Z" id="Fill-3" fill="#1F1D1E"></path>
                    <mask id="mask-2" fill="white">
                        <use xlink:href="#path-1"></use>
                    </mask>
                    <g id="Clip-6"></g>
                    <path d="M23.2145,38.1137838 L34.4665,38.1137838 L34.4665,28.6678378 L23.2145,28.6678378 L23.2145,38.1137838 Z M30.6352778,27.1240541 L27.1746111,27.1240541 C27.4178889,26.1608108 28.0752222,25.47 28.8759444,25.47 C29.6766667,25.47 30.363,26.1608108 30.6352778,27.1240541 L30.6352778,27.1240541 Z M28.8759444,23.322973 C30.8125,23.322973 32.4268333,24.9656757 32.7442222,27.1240541 L32.1674444,27.1240541 C31.8613333,25.29 30.5015556,23.897027 28.8759444,23.897027 C27.2680556,23.897027 25.9066667,25.29 25.5844444,27.1240541 L25.0076667,27.1240541 C25.3250556,24.9656757 26.9393889,23.322973 28.8759444,23.322973 L28.8759444,23.322973 Z M35.9841667,27.8943243 C35.9857778,27.69 35.9052222,27.4921622 35.7602222,27.3478378 C35.6152222,27.2035135 35.4202778,27.1224324 35.2156667,27.1240541 L34.3118333,27.1240541 C33.9718889,24.0948649 31.6712222,21.7743243 28.8936667,21.7743243 C26.1145,21.7743243 23.8138333,24.1110811 23.4738889,27.1240541 L22.4427778,27.1240541 C22.0190556,27.1240541 21.6758889,27.4694595 21.6758889,27.8943243 L21.6758889,38.8905405 C21.6791111,39.3154054 22.0206667,39.6591892 22.4427778,39.6624324 L35.2156667,39.6624324 C35.4235,39.6672973 35.6216667,39.5878378 35.7698889,39.4435135 C35.9181111,39.2975676 36.0018889,39.0981081 36.0018889,38.8905405 L35.9841667,27.8943243 Z" id="Fill-5" fill="#1F1D1E" mask="url(#mask-2)"></path>
                    <path d="M39.7127611,14.9678919 L18.1190389,14.9678919 L18.1190389,14.1262703 C18.1190389,13.2327568 18.8392056,12.5078803 19.7269278,12.5078803 L38.0984278,12.5078803 C38.5269833,12.5062703 38.9378167,12.6749189 39.2407056,12.9797838 C39.5435944,13.283027 39.7127611,13.6965405 39.7127611,14.1262703 L39.7127611,14.9678919 Z M39.7079278,47.2576216 C39.7079278,48.1511351 38.9877611,48.876 38.0984278,48.876 L19.7269278,48.876 C18.8392056,48.876 18.1190389,48.1511351 18.1190389,47.2576216 L18.1190389,46.1435676 L39.7079278,46.1435676 L39.7079278,47.2576216 Z M38.17415,10.9641081 L19.6528167,10.9641081 C17.9579278,10.9673514 16.5852611,12.3505946 16.5852611,14.0565405 L16.5852611,19.9932973 C16.5852611,20.4181622 16.9284278,20.7635676 17.35215,20.7635676 C17.7758722,20.7635676 18.1190389,20.4181622 18.1190389,19.9932973 L18.1190389,16.5116757 L39.7127611,16.5116757 L39.7127611,44.6176216 L18.1125944,44.6176216 L18.1125944,26.148973 C18.1125944,25.7224865 17.7694278,25.3770811 17.3457056,25.3770811 C16.9219833,25.3770811 16.5804278,25.7224865 16.5804278,26.148973 L16.5804278,47.3273514 C16.5804278,49.0349189 17.9547056,50.4197838 19.6528167,50.4197838 L38.17415,50.4197838 C39.8722611,50.4197838 41.2465389,49.0349189 41.2465389,47.3273514 L41.2465389,14.0565405 C41.2465389,12.348973 39.8722611,10.9641081 38.17415,10.9641081 L38.17415,10.9641081 Z" id="Fill-7" fill="#1F1D1E" mask="url(#mask-2)"></path>
                    <path d="M28.8756222,48.2784324 C29.1382333,48.2832973 29.3831222,48.1535676 29.5281222,47.9346486 C29.6731222,47.7141081 29.6972889,47.4335676 29.5893444,47.1935676 C29.5136222,47.0022162 29.3670111,46.8497838 29.1769,46.7687027 C28.9884,46.6876216 28.7757333,46.686 28.5872333,46.7638378 C28.3922889,46.8400541 28.2376222,46.9924865 28.1570667,47.1870811 C28.0765111,47.3800541 28.0781222,47.598973 28.1619,47.7919459 C28.2779,48.0854595 28.5614556,48.2784324 28.8756222,48.2784324" id="Fill-8" fill="#1F1D1E" mask="url(#mask-2)"></path>
                    <path d="M16.5562611,23.358 C16.4305944,22.9688108 16.6239278,22.5471892 17.0009278,22.3947568 C17.3795389,22.2423243 17.8080944,22.4093514 17.9869278,22.7774595 C18.0642611,22.9688108 18.06265,23.1828649 17.9820944,23.3725946 C17.9015389,23.5607027 17.7500944,23.7115135 17.5599833,23.7877297 C17.46815,23.8234054 17.3747056,23.8428649 17.2764278,23.8444865 C16.9622611,23.8444865 16.6787056,23.6515135 16.5627056,23.358 L16.5562611,23.358 Z" id="Fill-9" fill="#1F1D1E" mask="url(#mask-2)"></path>
                    <path d="M20.4643333,42.2959459 L37.2972222,42.2959459 L37.2972222,18.75 L20.4643333,18.75 L20.4643333,42.2959459 Z M38.0641111,17.2013514 L19.6926111,17.2013514 C19.2688889,17.2045946 18.9257222,17.5516216 18.9257222,17.9797297 L18.9257222,43.062973 C18.9257222,43.4894595 19.2688889,43.8364865 19.6926111,43.8397297 L38.0641111,43.8397297 C38.4926667,43.8397297 38.8358333,43.4927027 38.8358333,43.062973 L38.8358333,17.9797297 C38.8358333,17.55 38.4926667,17.2013514 38.0641111,17.2013514 L38.0641111,17.2013514 Z" id="Fill-10" fill="#1F1D1E" mask="url(#mask-2)"></path>
                    <path d="M28.8740111,57.2909189 L28.5324556,57.2892973 C14.1307333,57.1092973 2.43084444,45.1482162 2.45657971,30.6233514 C2.47756667,15.9947027 14.3401778,4.092 28.8997889,4.092 C35.9645111,4.092 42.6022889,6.86172973 47.5838444,11.8887568 C52.5702333,16.9174054 55.3107333,23.6130811 55.3075139,30.7417297 C55.3026778,45.3817297 43.4449,57.2909189 28.8740111,57.2909189 M28.8981778,1.62064865 C12.9530111,1.62064865 0.0270666667,14.6082162 -0.000361127438,30.6201081 C-0.0261,46.6336216 12.7612889,59.5628108 28.5034556,59.7606486 C44.7209,59.9617297 57.7580111,46.7892973 57.7660691,30.7433514 C57.7725111,14.6374054 44.8675111,1.62227027 28.8981778,1.62064865" id="Fill-11" fill="#1F1D1E" mask="url(#mask-2)"></path>
                </g>
            </g>
        </g>
    </g>
</svg>