<?xml version="1.0" encoding="UTF-8"?>
<svg width="58px" height="59px" viewBox="0 0 58 59" version="1.1" xmlns="http://www.w3.org/2000/svg" xmlns:xlink="http://www.w3.org/1999/xlink">
    <!-- Generator: Sketch 55.2 (78181) - https://sketchapp.com -->
    <title>keybox-icon-4</title>
    <desc>Created with Sketch.</desc>
    <defs>
        <polygon id="path-1" points="0 0.237891892 57.7647778 0.237891892 57.7647778 58.3783784 0 58.3783784"></polygon>
    </defs>
    <g id="Page-1" stroke="none" stroke-width="1" fill="none" fill-rule="evenodd">
        <g id="Populife---Smart-Keybox---Mobile" transform="translate(-237.000000, -899.000000)">
            <g id="Group-4" transform="translate(34.000000, 898.000000)">
                <g id="keybox-icon-4" transform="translate(203.000000, 0.000000)">
                    <g id="Group-3" transform="translate(0.000000, 1.384054)">
                        <mask id="mask-2" fill="white">
                            <use xlink:href="#path-1"></use>
                        </mask>
                        <g id="Clip-2"></g>
                        <path d="M28.8740111,55.9065405 L28.5324556,55.9049189 C14.1307333,55.7249189 2.43084444,43.7638378 2.45657971,29.238973 C2.47756667,14.6103243 14.3401778,2.70762162 28.8997889,2.70762162 C35.9645111,2.70762162 42.6022889,5.47735135 47.5838444,10.5043784 C52.5702333,15.533027 55.3107333,22.2287027 55.3075139,29.3573514 C55.3026778,43.9973514 43.4449,55.9065405 28.8740111,55.9065405 M28.8981778,0.237891892 C12.9530111,0.23627027 0.0270666667,13.2238378 -0.000361127438,29.2357297 C-0.0261,45.2492432 12.7612889,58.1800541 28.5034556,58.3762703 C44.7209,58.5773514 57.7580111,45.4049189 57.7660691,29.358973 C57.7725111,13.2546486 44.8675111,0.237891892 28.8981778,0.237891892" id="Fill-1" fill="#1F1D1E" mask="url(#mask-2)"></path>
                    </g>
                    <path d="M9.36925556,9.30308108 C8.76508889,9.86091892 8.18831111,10.4430811 7.63247778,11.0495676 L48.3984222,52.0814595 C49.0025889,51.5236216 49.5777556,50.9398378 50.1335889,50.3333514 L9.36925556,9.30308108 Z" id="Fill-4" fill="#1F1D1E"></path>
                    <path d="M10.1448444,27.365027 C9.88223333,27.365027 9.63251111,27.2742162 9.42467778,27.0990811 C9.19751111,26.9077297 9.05573333,26.6369189 9.02995556,26.3385405 C9.00578889,26.0369189 9.09923333,25.745027 9.29095556,25.5147568 C14.1806778,19.6590811 21.3211222,16.2990811 28.8820667,16.2990811 C36.4430111,16.2990811 43.5834556,19.6590811 48.4747889,25.5147568 C48.6665111,25.745027 48.7583444,26.0369189 48.7341778,26.3352973 C48.7100111,26.6336757 48.5698444,26.9061081 48.3410667,27.0990811 C48.1348444,27.2742162 47.8851222,27.365027 47.6192889,27.365027 C47.2890111,27.365027 46.9716222,27.2190811 46.7605667,26.9612432 C42.2977889,21.618 35.7808444,18.5515135 28.8820667,18.5515135 C21.9849,18.5515135 15.4679556,21.618 11.0051778,26.9628649 C10.7892889,27.2190811 10.4767333,27.365027 10.1448444,27.365027 M41.8563444,32.2331351 C41.5244556,32.2331351 41.2102889,32.0888108 40.9992333,31.8342162 C37.9719556,28.2098919 33.5542889,26.1325946 28.8820667,26.1325946 C24.2082333,26.1325946 19.7921778,28.2098919 16.7697333,31.8325946 C16.5554556,32.0888108 16.2429,32.2331351 15.9126222,32.2331351 C15.6467889,32.2331351 15.3986778,32.1423243 15.1940667,31.9688108 C14.7204,31.5698919 14.6607889,30.858 15.0539,30.3828649 C18.5081222,26.250973 23.5460667,23.8801622 28.8820667,23.8801622 C34.2164556,23.8801622 39.2576222,26.250973 42.7134556,30.3844865 C42.9051778,30.6131351 42.9970111,30.905027 42.9712333,31.2034054 C42.9438444,31.505027 42.8036778,31.7758378 42.5732889,31.9688108 C42.3735111,32.1407027 42.1189556,32.2331351 41.8563444,32.2331351 M36.0885667,37.1012432 C35.7566778,37.1012432 35.4441222,36.9569189 35.2298444,36.7023243 C33.6477333,34.8017838 31.3309556,33.7136757 28.8820667,33.7136757 C26.4331778,33.7136757 24.1180111,34.8017838 22.5326778,36.7023243 C22.3216222,36.9569189 22.0074556,37.1012432 21.6755667,37.1012432 C21.4097333,37.1012432 21.1616222,37.0120541 20.9586222,36.8385405 C20.4849556,36.4396216 20.4221222,35.7277297 20.8184556,35.250973 C22.8307333,32.8412432 25.7694,31.4596216 28.8820667,31.4596216 C31.9947333,31.4596216 34.9334,32.8412432 36.9456778,35.2525946 C37.3436222,35.7277297 37.2807889,36.4396216 36.8071222,36.8385405 C36.5525667,37.0574595 36.2754556,37.1012432 36.0885667,37.1012432 M28.8820667,45.0844865 C27.2290667,45.0844865 25.8805667,43.7304324 25.8805667,42.0634054 C25.8805667,40.3963784 27.2290667,39.0423243 28.8820667,39.0423243 C30.5366778,39.0423243 31.8835667,40.3963784 31.8835667,42.0634054 C31.8835667,43.7304324 30.5366778,45.0844865 28.8820667,45.0844865" id="Fill-6" fill="#1F1D1E"></path>
                </g>
            </g>
        </g>
    </g>
</svg>