<?xml version="1.0" encoding="UTF-8"?>
<svg width="58px" height="59px" viewBox="0 0 58 59" version="1.1" xmlns="http://www.w3.org/2000/svg" xmlns:xlink="http://www.w3.org/1999/xlink">
    <!-- Generator: Sketch 55.2 (78181) - https://sketchapp.com -->
    <title>keybox-icon-6</title>
    <desc>Created with Sketch.</desc>
    <defs>
        <polygon id="path-1" points="0 0.238054054 57.7647778 0.238054054 57.7647778 58.3783784 0 58.3783784"></polygon>
    </defs>
    <g id="Page-1" stroke="none" stroke-width="1" fill="none" fill-rule="evenodd">
        <g id="Populife---Smart-Keybox---Mobile" transform="translate(-237.000000, -1053.000000)">
            <g id="Group-6" transform="translate(48.000000, 1052.000000)">
                <g id="keybox-icon-6" transform="translate(189.000000, 0.000000)">
                    <g id="Group-3" transform="translate(0.000000, 1.384054)">
                        <mask id="mask-2" fill="white">
                            <use xlink:href="#path-1"></use>
                        </mask>
                        <g id="Clip-2"></g>
                        <path d="M28.8740111,55.9067027 L28.5324556,55.9050811 C14.1307333,55.7250811 2.43084444,43.764 2.45657971,29.2391351 C2.47756667,14.6104865 14.3401778,2.70778378 28.8997889,2.70778378 C35.9645111,2.70778378 42.6022889,5.47751351 47.5838444,10.5045405 C52.5702333,15.5331892 55.3107333,22.2288649 55.3075139,29.3575135 C55.3026778,43.9975135 43.4449,55.9067027 28.8740111,55.9067027 M28.8981778,0.238054054 C12.9530111,0.236432432 0.0270666667,13.224 -0.000361127438,29.2358919 C-0.0261,45.2494054 12.7612889,58.1785946 28.5034556,58.3764324 C44.7209,58.5775135 57.7580111,45.4050811 57.7660691,29.3591351 C57.7725111,13.2548108 44.8675111,0.238054054 28.8981778,0.238054054" id="Fill-1" fill="#1F1D1E" mask="url(#mask-2)"></path>
                    </g>
                    <path d="M42.85475,32.0891351 L40.7135833,29.8723784 L38.4515833,32.1491351 L38.1341944,32.1491351 L35.9398611,29.8350811 L33.7068611,32.1653514 L33.3830278,32.1653514 L31.1226389,29.8885946 L28.94925,32.1653514 L26.2425833,32.1653514 L25.9864167,32.7718378 C25.4740833,34.014 24.6250278,35.0842703 23.5359167,35.861027 C22.4870833,36.6458919 21.2143056,37.0658919 19.9093056,37.0594054 C18.1838056,37.0967027 16.5179167,36.4383243 15.2789722,35.2302162 C14.0255278,34.0885946 13.33275,32.454 13.3794722,30.7529189 C13.3311389,29.0291351 14.0255278,27.3685946 15.2870278,26.1994054 C16.5114722,24.9718378 18.1805833,24.2972432 19.9093056,24.3329189 C21.9586389,24.3329189 23.7244167,25.3107568 25.2324167,27.3231892 L25.5256389,27.7172432 L42.8015833,27.7399459 L45.1151389,29.8804865 L42.85475,32.0891351 Z M43.5491389,25.7129189 L26.48425,25.7129189 C25.0310278,23.7750811 22.81575,22.5621081 20.40875,22.386973 C18.0033611,22.2102162 15.63825,23.0891351 13.9224167,24.7950811 C12.2855278,26.3404865 11.3736389,28.5102162 11.4106944,30.7691351 C11.3704167,33.0150811 12.2871389,35.1718378 13.9288611,36.6961622 L13.9900833,36.7415676 C15.5931389,38.2448108 17.7165833,39.0621081 19.9093056,39.0183243 C21.6251389,39.0248108 23.2974722,38.4767027 24.6830278,37.4550811 C25.8833056,36.5907568 26.8580278,35.4475135 27.5234167,34.1226486 L29.7870278,34.1226486 L31.1580833,32.6891351 L32.5839167,34.1226486 L34.5978056,34.1226486 L35.9398611,32.7037297 L37.2593611,34.1226486 L39.25875,34.1226486 L40.6894167,32.6891351 L42.0556389,34.1226486 L43.5620278,34.1226486 L47.9506944,29.7961622 L43.5491389,25.7129189 Z" id="Fill-4" fill="#1F1D1E"></path>
                    <path d="M18.3483,31.4357838 C18.1340222,31.6692973 17.8343556,31.8022703 17.5185778,31.8006633 C17.2060222,31.8006633 16.9047444,31.6725405 16.6888556,31.4438919 C16.4584667,31.2071351 16.3311889,30.8876757 16.3344111,30.5552432 C16.3183,30.2292973 16.4326889,29.9098378 16.6501889,29.6682162 C16.8612444,29.4314595 17.1673556,29.3033514 17.4815222,29.3179459 C17.8101889,29.2952432 18.1291889,29.4265946 18.3483,29.6763243 C18.8187444,30.1660541 18.8187444,30.9444324 18.3483,31.4357838 M19.7435222,28.3238919 C19.1490222,27.7109189 18.3321889,27.3638919 17.4815222,27.3638919 C16.6292444,27.3638919 15.8140222,27.7109189 15.2195222,28.3238919 C14.0434111,29.5774054 14.0434111,31.5347027 15.2195222,32.7865946 C15.8059667,33.4141622 16.6244111,33.7709189 17.4815222,33.7709189 C18.3370222,33.7709189 19.1554667,33.4141622 19.7435222,32.7865946 C20.9196333,31.5347027 20.9196333,29.5774054 19.7435222,28.3238919" id="Fill-6" fill="#1F1D1E"></path>
                </g>
            </g>
        </g>
    </g>
</svg>